{
.appVersion = "1356";
copyright = "Copyright 2019-2021 Google LLC. All Rights Reserved.";
customParameters = (
{
name = vendorID;
value = GOOG;
},
{
name = unicodeRanges;
value = (
13,
67
);
},
{
name = codePageRanges;
value = (
864
);
},
{
name = fsType;
value = (
);
},
{
name = "Enforce Compatibility Check";
value = 1;
},
{
name = license;
value = "This Font Software is licensed under the SIL Open Font License, Version 1.1. This Font Software is distributed on an \"AS IS\" BASIS, WITHOUT WARRANTIES OR CONDITIONS OF ANY KIND, either express or implied. See the SIL Open Font License for the specific language, permissions and limitations governing your use of this Font Software.";
},
{
name = licenseURL;
value = "http://scripts.sil.org/OFL";
},
{
name = description;
value = "Designed by Monotype Design Team and David Williams";
},
{
name = trademark;
value = "Noto is a trademark of Google LLC";
},
{
name = versionString;
value = "Version 2.106";
},
{
name = Axes;
value = (
{
Name = Weight;
Tag = wght;
}
);
}
);
date = "2021-06-01 07:42:49 +0000";
designer = "Monotype Design Team, David Williams";
designerURL = "http://www.monotype.com/studio";
familyName = "Noto Kufi Arabic";
featurePrefixes = (
{
automatic = 1;
code = "languagesystem DFLT dflt;\012\012languagesystem arab dflt;\012languagesystem arab URD;\012\012languagesystem hebr dflt;\012";
name = Languagesystems;
}
);
features = (
{
automatic = 1;
code = "feature locl;\012feature init;\012feature medi;\012feature fina;\012";
name = aalt;
},
{
automatic = 1;

glyphs = (
{
glyphname = "hamza-ar";
lastChange = "2021-05-30 08:29:50 +0000";
layers = (
{
anchors = (
{
name = bottom;
position = "{254, -78}";
},
{
name = top;
position = "{249, 488}";
}
);
layerId = "307C4A58-79B8-4138-817C-FBEE21722E1A";
paths = (
{
closed = 1;
nodes = (
"65 -17 LINE",
"166 3 OFFCURVE",
"388 31 OFFCURVE",
"481 31 CURVE",
"481 152 LINE",
"440 150 OFFCURVE",
"355 139 OFFCURVE",
"315 133 CURVE SMOOTH",
"292 130 LINE",
"259 145 OFFCURVE",
"235 177 OFFCURVE",
"235 217 CURVE SMOOTH",
"235 282 OFFCURVE",
"276 311 OFFCURVE",
"337 311 CURVE SMOOTH",
"376 311 OFFCURVE",
"407 304 OFFCURVE",
"432 290 CURVE",
"462 402 LINE",
"431 419 OFFCURVE",
"380 431 OFFCURVE",
"321 431 CURVE SMOOTH",
"231 431 OFFCURVE",
"162 401 OFFCURVE",
"124 349 CURVE SMOOTH",
"102 319 OFFCURVE",
"90 283 OFFCURVE",
"90 240 CURVE SMOOTH",
"90 183 OFFCURVE",
"117 132 OFFCURVE",
"160 107 CURVE",
"133 103 OFFCURVE",
"101 96 OFFCURVE",
"65 87 CURVE"
);
}
);
userData = {
assembly = "NPUSHB[ ]	/* 44 values pushed */\01217 5 23 11 5 3 28 29 20 2 23 0 23 24 70 89 15 23 31 23 143 23 3 13 3 23 23 8 0 27 8 14 70 89 31 8 63 8 111 8 223 8 4 8 \012SVTCA[0]	/* SetFreedomAndProjectionVectorToAxis */\012MDAP[1]	/* MoveDirectAbsPt */\012DELTAP1[ ]	/* DeltaExceptionP1 */\012CALL[ ]	/* CallFunction */\012SVTCA[0]	/* SetFreedomAndProjectionVectorToAxis */\012RTG[ ]	/* RoundToGrid */\012MDAP[1]	/* MoveDirectAbsPt */\012SHP[1]	/* ShiftPointByLastPoint */\012SRP2[ ]	/* SetRefPoint2 */\012IP[ ]	/* InterpolatePts */\012MDAP[1]	/* MoveDirectAbsPt */\012SDS[ ]	/* SetDeltaShiftInGState */\012SDB[ ]	/* SetDeltaBaseInGState */\012DELTAP1[ ]	/* DeltaExceptionP1 */\012CALL[ ]	/* CallFunction */\012SRP1[ ]	/* SetRefPoint1 */\012SRP2[ ]	/* SetRefPoint2 */\012SVTCA[0]	/* SetFreedomAndProjectionVectorToAxis */\012IP[ ]	/* InterpolatePts */\012IP[ ]	/* InterpolatePts */\012SRP1[ ]	/* SetRefPoint1 */\012SRP2[ ]	/* SetRefPoint2 */\012SVTCA[1]	/* SetFreedomAndProjectionVectorToAxis */\012SLOOP[ ]	/* SetLoopVariable */\012IP[ ]	/* InterpolatePts */\012SRP1[ ]	/* SetRefPoint1 */\012SHP[1]	/* ShiftPointByLastPoint */\012IUP[1]	/* InterpolateUntPts */\012IUP[0]	/* InterpolateUntPts */";
};
width = 526;
},
{
anchors = (
{
name = bottom;
position = "{254, -78}";
},
{
name = top;
position = "{249, 488}";
}
);
layerId = "15908E2C-AB74-4DC1-B0E7-8741EE8F4DA5";
paths = (
{
closed = 1;
nodes = (
"65 -9 LINE",
"130 6 OFFCURVE",
"385 39 OFFCURVE",
"450 39 CURVE",
"450 120 LINE",
"428 120 OFFCURVE",
"366 114 OFFCURVE",
"265 101 CURVE SMOOTH",
"243 98 LINE",
"206 117 OFFCURVE",
"180 160 OFFCURVE",
"180 211 CURVE SMOOTH",
"180 290 OFFCURVE",
"222 331 OFFCURVE",
"299 331 CURVE SMOOTH",
"331 331 OFFCURVE",
"363 322 OFFCURVE",
"396 305 CURVE",
"418 380 LINE",
"385 399 OFFCURVE",
"345 409 OFFCURVE",
"297 409 CURVE SMOOTH",
"214 409 OFFCURVE",
"150 377 OFFCURVE",
"116 320 CURVE SMOOTH",
"99 291 OFFCURVE",
"90 257 OFFCURVE",
"90 217 CURVE SMOOTH",
"90 158 OFFCURVE",
"117 105 OFFCURVE",
"154 80 CURVE",
"126 76 OFFCURVE",
"94 70 OFFCURVE",
"65 64 CURVE"
);
}
);
userData = {
assembly = "NPUSHB[ ]	/* 34 values pushed */\01218 6 6 12 24 3 30 29 3 21 0 24 24 25 70 89 24 24 10 28 28 0 70 89 28 19 10 15 70 89 31 10 1 10 \012SVTCA[0]	/* SetFreedomAndProjectionVectorToAxis */\012MDAP[1]	/* MoveDirectAbsPt */\012DELTAP1[ ]	/* DeltaExceptionP1 */\012CALL[ ]	/* CallFunction */\012SVTCA[0]	/* SetFreedomAndProjectionVectorToAxis */\012RTG[ ]	/* RoundToGrid */\012MIAP[1]	/* MoveIndirectAbsPt */\012CALL[ ]	/* CallFunction */\012SRP1[ ]	/* SetRefPoint1 */\012SRP2[ ]	/* SetRefPoint2 */\012SVTCA[0]	/* SetFreedomAndProjectionVectorToAxis */\012IP[ ]	/* InterpolatePts */\012RTG[ ]	/* RoundToGrid */\012MDAP[1]	/* MoveDirectAbsPt */\012CALL[ ]	/* CallFunction */\012SRP1[ ]	/* SetRefPoint1 */\012SRP2[ ]	/* SetRefPoint2 */\012SVTCA[0]	/* SetFreedomAndProjectionVectorToAxis */\012IP[ ]	/* InterpolatePts */\012IP[ ]	/* InterpolatePts */\012SRP1[ ]	/* SetRefPoint1 */\012SRP2[ ]	/* SetRefPoint2 */\012SVTCA[1]	/* SetFreedomAndProjectionVectorToAxis */\012SLOOP[ ]	/* SetLoopVariable */\012IP[ ]	/* InterpolatePts */\012SRP1[ ]	/* SetRefPoint1 */\012SHP[1]	/* ShiftPointByLastPoint */\012IUP[1]	/* InterpolateUntPts */\012IUP[0]	/* InterpolateUntPts */";
};
width = 490;
},
{
anchors = (
{
name = bottom;
position = "{247, -26}";
},
{
name = top;
position = "{262, 439}";
}
);
layerId = "410295A1-92BC-4707-ABFC-13885E60878B";
paths = (
{
closed = 1;
nodes = (
"65 13 LINE",
"177 35 OFFCURVE",
"350 58 OFFCURVE",
"419 61 CURVE",
"419 84 LINE",
"408 84 OFFCURVE",
"306 75 OFFCURVE",
"225 64 CURVE SMOOTH",
"182 58 LINE",
"140 84 OFFCURVE",
"112 136 OFFCURVE",
"112 199 CURVE SMOOTH",
"112 293 OFFCURVE",
"174 359 OFFCURVE",
"266 359 CURVE SMOOTH",
"301 359 OFFCURVE",
"333 349 OFFCURVE",
"361 334 CURVE",
"374 354 LINE",
"346 371 OFFCURVE",
"309 383 OFFCURVE",
"268 383 CURVE SMOOTH",
"193 383 OFFCURVE",
"135 343 OFFCURVE",
"106 282 CURVE SMOOTH",
"94 257 OFFCURVE",
"88 229 OFFCURVE",
"88 200 CURVE SMOOTH",
"88 135 OFFCURVE",
"119 78 OFFCURVE",
"157 53 CURVE",
"124 48 OFFCURVE",
"87 42 OFFCURVE",
"65 37 CURVE"
);
}
);
width = 454;
},
{
anchors = (
{
name = bottom;
position = "{272, -78}";
},
{
name = top;
position = "{293, 488}";
}
);
layerId = "DCD2D043-4E01-4B5D-9248-443A06E88532";
paths = (
{
closed = 1;
nodes = (
"65 -22 LINE",
"186 -3 OFFCURVE",
"384 20 OFFCURVE",
"502 26 CURVE",
"502 173 LINE",
"447 170 OFFCURVE",
"360 158 OFFCURVE",
"341 155 CURVE SMOOTH",
"323 152 LINE",
"293 164 OFFCURVE",
"272 189 OFFCURVE",
"272 221 CURVE SMOOTH",
"272 277 OFFCURVE",
"312 298 OFFCURVE",
"362 298 CURVE SMOOTH",
"406 298 OFFCURVE",
"437 292 OFFCURVE",
"456 280 CURVE",
"491 417 LINE",
"462 433 OFFCURVE",
"403 446 OFFCURVE",
"337 446 CURVE SMOOTH",
"242 446 OFFCURVE",
"170 417 OFFCURVE",
"130 368 CURVE SMOOTH",
"104 337 OFFCURVE",
"90 300 OFFCURVE",
"90 255 CURVE SMOOTH",
"90 199 OFFCURVE",
"118 150 OFFCURVE",
"164 125 CURVE",
"137 121 OFFCURVE",
"106 114 OFFCURVE",
"65 102 CURVE"
);
}
);
width = 550;
}
);
note = uni0621;
unicode = 0621;
},
{
glyphname = "alef-ar";
lastChange = "2019-10-22 14:22:53 +0000";
layers = (
{
anchors = (
{
name = bottom;
position = "{166, -78}";
},
{
name = top;
position = "{176, 830}";
}
);
layerId = "307C4A58-79B8-4138-817C-FBEE21722E1A";
paths = (
{
closed = 1;
nodes = (
"100 0 LINE",
"249 0 LINE",
"249 760 LINE",
"100 760 LINE"
);
}
);
userData = {
assembly = "PUSHB[ ]	/* 7 values pushed */\0123 5 4 3 18 0 0 \012SVTCA[0]	/* SetFreedomAndProjectionVectorToAxis */\012MIAP[1]	/* MoveIndirectAbsPt */\012MIAP[1]	/* MoveIndirectAbsPt */\012SRP1[ ]	/* SetRefPoint1 */\012SRP2[ ]	/* SetRefPoint2 */\012SVTCA[1]	/* SetFreedomAndProjectionVectorToAxis */\012IP[ ]	/* InterpolatePts */\012IUP[1]	/* InterpolateUntPts */\012IUP[0]	/* InterpolateUntPts */";
};
width = 349;
},
{
anchors = (
{
name = bottom;
position = "{146, -78}";
},
{
name = top;
position = "{146, 820}";
}
);
layerId = "15908E2C-AB74-4DC1-B0E7-8741EE8F4DA5";
paths = (
{
closed = 1;
nodes = (
"100 0 LINE",
"189 0 LINE",
"189 760 LINE",
"100 760 LINE"
);
}
);
userData = {
assembly = "PUSHB[ ]	/* 7 values pushed */\0123 4 5 3 18 0 0 \012SVTCA[0]	/* SetFreedomAndProjectionVectorToAxis */\012MIAP[1]	/* MoveIndirectAbsPt */\012MIAP[1]	/* MoveIndirectAbsPt */\012SRP1[ ]	/* SetRefPoint1 */\012SRP2[ ]	/* SetRefPoint2 */\012SVTCA[1]	/* SetFreedomAndProjectionVectorToAxis */\012IP[ ]	/* InterpolatePts */\012IUP[1]	/* InterpolateUntPts */\012IUP[0]	/* InterpolateUntPts */";
};
width = 289;
},
{
anchors = (
{
name = bottom;
position = "{112, -75}";
},
{
name = top;
position = "{104, 830}";
}
);
layerId = "410295A1-92BC-4707-ABFC-13885E60878B";
paths = (
{
closed = 1;
nodes = (
"98 0 LINE",
"122 0 LINE",
"122 760 LINE",
"98 760 LINE"
);
}
);
width = 220;
},
{
anchors = (
{
name = bottom;
position = "{189, -78}";
},
{
name = top;
position = "{196, 837}";
}
);
layerId = "DCD2D043-4E01-4B5D-9248-443A06E88532";
paths = (
{
closed = 1;
nodes = (
"100 0 LINE",
"289 0 LINE",
"289 760 LINE",
"100 760 LINE"
);
}
);
width = 389;
}
);
note = uni0627;
unicode = 0627;
},
{
glyphname = "alef-ar.fina";
lastChange = "2021-05-30 08:30:03 +0000";
layers = (
{
anchors = (
{
name = bottom;
position = "{225, -78}";
},
{
name = top;
position = "{176, 830}";
}
);
layerId = "307C4A58-79B8-4138-817C-FBEE21722E1A";
paths = (
{
closed = 1;
nodes = (
"249 120 LINE",
"249 760 LINE",
"100 760 LINE",
"100 0 LINE",
"374 0 LINE SMOOTH",
"377 0 OFFCURVE",
"379 2 OFFCURVE",
"379 5 CURVE SMOOTH",
"379 116 LINE SMOOTH",
"379 119 OFFCURVE",
"377 120 OFFCURVE",
"374 120 CURVE SMOOTH"
);
}
);
userData = {
assembly = "NPUSHB[ ]	/* 14 values pushed */\0120 9 6 6 11 10 7 0 6 9 70 89 6 18 \012SVTCA[0]	/* SetFreedomAndProjectionVectorToAxis */\012MIAP[1]	/* MoveIndirectAbsPt */\012CALL[ ]	/* CallFunction */\012SVTCA[0]	/* SetFreedomAndProjectionVectorToAxis */\012RTG[ ]	/* RoundToGrid */\012MIAP[1]	/* MoveIndirectAbsPt */\012SRP1[ ]	/* SetRefPoint1 */\012SRP2[ ]	/* SetRefPoint2 */\012SVTCA[1]	/* SetFreedomAndProjectionVectorToAxis */\012IP[ ]	/* InterpolatePts */\012SRP1[ ]	/* SetRefPoint1 */\012SHP[1]	/* ShiftPointByLastPoint */\012SHP[0]	/* ShiftPointByLastPoint */\012IUP[1]	/* InterpolateUntPts */\012IUP[0]	/* InterpolateUntPts */";
};
width = 369;
},
{
anchors = (
{
name = bottom;
position = "{195, -78}";
},
{
name = top;
position = "{146, 820}";
}
);
layerId = "15908E2C-AB74-4DC1-B0E7-8741EE8F4DA5";
paths = (
{
closed = 1;
nodes = (
"189 78 LINE",
"189 760 LINE",
"100 760 LINE",
"100 0 LINE",
"321 0 LINE SMOOTH",
"324 0 OFFCURVE",
"326 2 OFFCURVE",
"326 5 CURVE SMOOTH",
"326 74 LINE SMOOTH",
"326 77 OFFCURVE",
"324 78 OFFCURVE",
"321 78 CURVE SMOOTH"
);
}
);
userData = {
assembly = "NPUSHB[ ]	/* 15 values pushed */\0125 11 2 9 9 10 11 9 2 70 89 9 18 0 0 \012SVTCA[0]	/* SetFreedomAndProjectionVectorToAxis */\012MIAP[1]	/* MoveIndirectAbsPt */\012MIAP[1]	/* MoveIndirectAbsPt */\012CALL[ ]	/* CallFunction */\012SRP1[ ]	/* SetRefPoint1 */\012SRP2[ ]	/* SetRefPoint2 */\012SVTCA[1]	/* SetFreedomAndProjectionVectorToAxis */\012IP[ ]	/* InterpolatePts */\012SRP1[ ]	/* SetRefPoint1 */\012SHP[1]	/* ShiftPointByLastPoint */\012SRP1[ ]	/* SetRefPoint1 */\012SHP[1]	/* ShiftPointByLastPoint */\012IUP[1]	/* InterpolateUntPts */\012IUP[0]	/* InterpolateUntPts */";
};
width = 316;
},
{
anchors = (
{
name = bottom;
position = "{165, -78}";
},
{
name = top;
position = "{116, 810}";
}
);
layerId = "410295A1-92BC-4707-ABFC-13885E60878B";
paths = (
{
closed = 1;
nodes = (
"124 24 LINE",
"124 760 LINE",
"100 760 LINE",
"100 0 LINE",
"268 0 LINE SMOOTH",
"271 0 OFFCURVE",
"273 2 OFFCURVE",
"273 5 CURVE SMOOTH",
"273 20 LINE SMOOTH",
"273 23 OFFCURVE",
"271 24 OFFCURVE",
"268 24 CURVE SMOOTH"
);
}
);
width = 263;
},
{
anchors = (
{
name = bottom;
position = "{215, -78}";
},
{
name = top;
position = "{196, 837}";
}
);
layerId = "DCD2D043-4E01-4B5D-9248-443A06E88532";
paths = (
{
closed = 1;
nodes = (
"289 148 LINE",
"289 760 LINE",
"100 760 LINE",
"100 0 LINE",
"409 0 LINE SMOOTH",
"413 0 OFFCURVE",
"414 2 OFFCURVE",
"414 5 CURVE SMOOTH",
"414 144 LINE SMOOTH",
"414 147 OFFCURVE",
"413 148 OFFCURVE",
"409 148 CURVE SMOOTH"
);
}
);
width = 404;
}
);
note = uni0627.fina;
},
{
glyphname = "highhamzaAlef-ar.fina";
lastChange = "2021-05-27 12:23:39 +0000";
layers = (
{
anchors = (
{
name = bottom;
position = "{185, -78}";
},
{
name = bottomleft;
position = "{20, 0}";
},
{
name = center;
position = "{185, 445}";
},
{
name = top;
position = "{175, 760}";
},
{
name = topleft;
position = "{20, 890}";
}
);
components = (
{
alignment = -1;
name = "hamzaabove-ar";
transform = "{1, 0, 0, 1, 417, -254}";
}
);
layerId = "307C4A58-79B8-4138-817C-FBEE21722E1A";
paths = (
{
closed = 1;
nodes = (
"100 0 LINE",
"544 0 LINE SMOOTH",
"547 0 OFFCURVE",
"549 2 OFFCURVE",
"549 5 CURVE SMOOTH",
"549 116 LINE SMOOTH",
"549 119 OFFCURVE",
"547 120 OFFCURVE",
"544 120 CURVE SMOOTH",
"249 120 LINE",
"249 700 LINE",
"100 700 LINE"
);
}
);
width = 539;
},
{
anchors = (
{
name = bottom;
position = "{158, -78}";
},
{
name = bottomleft;
position = "{20, 0}";
},
{
name = center;
position = "{158, 445}";
},
{
name = top;
position = "{150, 780}";
},
{
name = topleft;
position = "{20, 890}";
}
);
components = (
{
alignment = -1;
name = "hamzaabove-ar";
transform = "{1, 0, 0, 1, 338, -254}";
}
);
layerId = "15908E2C-AB74-4DC1-B0E7-8741EE8F4DA5";
paths = (
{
closed = 1;
nodes = (
"100 0 LINE",
"461 0 LINE SMOOTH",
"464 0 OFFCURVE",
"466 2 OFFCURVE",
"466 5 CURVE SMOOTH",
"466 74 LINE SMOOTH",
"466 77 OFFCURVE",
"464 78 OFFCURVE",
"461 78 CURVE SMOOTH",
"189 78 LINE",
"189 700 LINE",
"100 700 LINE"
);
}
);
width = 456;
},
{
anchors = (
{
name = bottom;
position = "{131, -78}";
},
{
name = bottomleft;
position = "{20, 0}";
},
{
name = center;
position = "{119, 445}";
},
{
name = top;
position = "{125, 780}";
},
{
name = topleft;
position = "{20, 770}";
}
);
components = (
{
alignment = -1;
name = "hamzaabove-ar";
transform = "{1, 0, 0, 1, 279, -214}";
}
);
layerId = "410295A1-92BC-4707-ABFC-13885E60878B";
paths = (
{
closed = 1;
nodes = (
"100 0 LINE",
"359 0 LINE SMOOTH",
"362 0 OFFCURVE",
"364 2 OFFCURVE",
"364 5 CURVE SMOOTH",
"364 20 LINE SMOOTH",
"364 23 OFFCURVE",
"362 24 OFFCURVE",
"359 24 CURVE SMOOTH",
"124 24 LINE",
"124 700 LINE",
"100 700 LINE"
);
}
);
width = 354;
},
{
anchors = (
{
name = bottom;
position = "{203, -78}";
},
{
name = bottomleft;
position = "{20, 0}";
},
{
name = center;
position = "{203, 445}";
},
{
name = top;
position = "{202, 777}";
},
{
name = topleft;
position = "{20, 797}";
}
);
components = (
{
alignment = -1;
name = "hamzaabove-ar";
transform = "{1, 0, 0, 1, 470, -254}";
}
);
layerId = "DCD2D043-4E01-4B5D-9248-443A06E88532";
paths = (
{
closed = 1;
nodes = (
"100 0 LINE",
"609 0 LINE SMOOTH",
"613 0 OFFCURVE",
"614 2 OFFCURVE",
"614 5 CURVE SMOOTH",
"614 144 LINE SMOOTH",
"614 147 OFFCURVE",
"613 148 OFFCURVE",
"609 148 CURVE SMOOTH",
"289 148 LINE",
"289 700 LINE",
"100 700 LINE"
);
}
);
width = 604;
}
);
note = uni0675.fina;
},
{
glyphname = "behDotless-ar";
lastChange = "2021-05-30 08:30:29 +0000";
layers = (
{
anchors = (
{
name = bottom;
position = "{391, -78}";
},
{
name = ring;
position = "{434, 0}";
},
{
name = top;
position = "{391, 488}";
}
);
layerId = "307C4A58-79B8-4138-817C-FBEE21722E1A";
paths = (
{
closed = 1;
nodes = (
"782 0 LINE",
"782 495 LINE",
"633 495 LINE",
"633 120 LINE",
"308 120 LINE SMOOTH",
"252 120 OFFCURVE",
"214 162 OFFCURVE",
"214 223 CURVE SMOOTH",
"214 267 OFFCURVE",
"219 311 OFFCURVE",
"229 354 CURVE",
"97 354 LINE",
"78 314 OFFCURVE",
"65 252 OFFCURVE",
"65 201 CURVE SMOOTH",
"65 76 OFFCURVE",
"141 0 OFFCURVE",
"264 0 CURVE SMOOTH"
);
}
);
userData = {
assembly = "NPUSHB[ ]	/* 19 values pushed */\01213 16 9 3 16 3 18 17 6 6 0 14 15 0 12 70 89 0 18 \012SVTCA[0]	/* SetFreedomAndProjectionVectorToAxis */\012MIAP[1]	/* MoveIndirectAbsPt */\012CALL[ ]	/* CallFunction */\012SVTCA[0]	/* SetFreedomAndProjectionVectorToAxis */\012RTG[ ]	/* RoundToGrid */\012MIAP[1]	/* MoveIndirectAbsPt */\012SRP2[ ]	/* SetRefPoint2 */\012IP[ ]	/* InterpolatePts */\012MDAP[1]	/* MoveDirectAbsPt */\012SRP1[ ]	/* SetRefPoint1 */\012SRP2[ ]	/* SetRefPoint2 */\012SVTCA[1]	/* SetFreedomAndProjectionVectorToAxis */\012IP[ ]	/* InterpolatePts */\012IP[ ]	/* InterpolatePts */\012SRP1[ ]	/* SetRefPoint1 */\012SHP[1]	/* ShiftPointByLastPoint */\012SRP1[ ]	/* SetRefPoint1 */\012SHP[1]	/* ShiftPointByLastPoint */\012IUP[1]	/* InterpolateUntPts */\012IUP[0]	/* InterpolateUntPts */";
};
width = 867;
},
{
anchors = (
{
name = bottom;
position = "{391, -78}";
},
{
name = ring;
position = "{389, 0}";
},
{
name = top;
position = "{391, 488}";
}
);
layerId = "15908E2C-AB74-4DC1-B0E7-8741EE8F4DA5";
paths = (
{
closed = 1;
nodes = (
"693 0 LINE",
"693 485 LINE",
"608 485 LINE",
"608 78 LINE",
"249 78 LINE SMOOTH",
"193 78 OFFCURVE",
"155 128 OFFCURVE",
"155 201 CURVE SMOOTH",
"155 248 OFFCURVE",
"160 296 OFFCURVE",
"170 344 CURVE",
"90 344 LINE",
"75 304 OFFCURVE",
"65 238 OFFCURVE",
"65 194 CURVE SMOOTH",
"65 74 OFFCURVE",
"137 0 OFFCURVE",
"252 0 CURVE SMOOTH"
);
}
);
userData = {
assembly = "NPUSHB[ ]	/* 19 values pushed */\01213 16 9 3 16 3 18 17 6 6 0 14 15 0 12 70 89 0 18 \012SVTCA[0]	/* SetFreedomAndProjectionVectorToAxis */\012MIAP[1]	/* MoveIndirectAbsPt */\012CALL[ ]	/* CallFunction */\012SVTCA[0]	/* SetFreedomAndProjectionVectorToAxis */\012RTG[ ]	/* RoundToGrid */\012MIAP[1]	/* MoveIndirectAbsPt */\012SRP2[ ]	/* SetRefPoint2 */\012IP[ ]	/* InterpolatePts */\012MDAP[1]	/* MoveDirectAbsPt */\012SRP1[ ]	/* SetRefPoint1 */\012SRP2[ ]	/* SetRefPoint2 */\012SVTCA[1]	/* SetFreedomAndProjectionVectorToAxis */\012IP[ ]	/* InterpolatePts */\012IP[ ]	/* InterpolatePts */\012SRP1[ ]	/* SetRefPoint1 */\012SHP[1]	/* ShiftPointByLastPoint */\012SRP1[ ]	/* SetRefPoint1 */\012SHP[1]	/* ShiftPointByLastPoint */\012IUP[1]	/* InterpolateUntPts */\012IUP[0]	/* InterpolateUntPts */";
};
width = 778;
},
{
anchors = (
{
name = bottom;
position = "{391, -78}";
},
{
name = ring;
position = "{344, 0}";
},
{
name = top;
position = "{344, 462}";
}
);
layerId = "410295A1-92BC-4707-ABFC-13885E60878B";
paths = (
{
closed = 1;
nodes = (
"604 0 LINE",
"604 475 LINE",
"580 475 LINE",
"580 24 LINE",
"253 24 LINE SMOOTH",
"136 24 OFFCURVE",
"90 92 OFFCURVE",
"90 190 CURVE SMOOTH",
"90 245 OFFCURVE",
"96 288 OFFCURVE",
"110 334 CURVE",
"89 334 LINE",
"73 294 OFFCURVE",
"65 224 OFFCURVE",
"65 187 CURVE SMOOTH",
"65 74 OFFCURVE",
"133 0 OFFCURVE",
"245 0 CURVE SMOOTH"
);
}
);
width = 689;
},
{
anchors = (
{
name = bottom;
position = "{461, -78}";
},
{
name = ring;
position = "{464, 0}";
},
{
name = top;
position = "{431, 488}";
}
);
layerId = "DCD2D043-4E01-4B5D-9248-443A06E88532";
paths = (
{
closed = 1;
nodes = (
"841 0 LINE",
"841 502 LINE",
"652 502 LINE",
"652 148 LINE",
"347 148 LINE SMOOTH",
"286 148 OFFCURVE",
"252 179 OFFCURVE",
"252 238 CURVE SMOOTH",
"252 279 OFFCURVE",
"258 321 OFFCURVE",
"268 361 CURVE",
"102 361 LINE",
"80 321 OFFCURVE",
"65 261 OFFCURVE",
"65 206 CURVE SMOOTH",
"65 77 OFFCURVE",
"144 0 OFFCURVE",
"272 0 CURVE SMOOTH"
);
}
);
width = 926;
}
);
note = uni066E;
unicode = 066E;
},
{
glyphname = "behDotless-ar.fina";
lastChange = "2021-05-30 08:30:35 +0000";
layers = (
{
anchors = (
{
name = bottom;
position = "{391, -78}";
},
{
name = ring;
position = "{454, 0}";
},
{
name = top;
position = "{391, 488}";
}
);
layerId = "307C4A58-79B8-4138-817C-FBEE21722E1A";
paths = (
{
closed = 1;
nodes = (
"912 0 LINE SMOOTH",
"915 0 OFFCURVE",
"917 2 OFFCURVE",
"917 5 CURVE SMOOTH",
"917 116 LINE SMOOTH",
"917 119 OFFCURVE",
"915 120 OFFCURVE",
"912 120 CURVE SMOOTH",
"782 120 LINE",
"782 495 LINE",
"633 495 LINE",
"633 120 LINE",
"308 120 LINE SMOOTH",
"252 120 OFFCURVE",
"214 162 OFFCURVE",
"214 223 CURVE SMOOTH",
"214 267 OFFCURVE",
"219 311 OFFCURVE",
"229 354 CURVE",
"97 354 LINE",
"78 314 OFFCURVE",
"65 252 OFFCURVE",
"65 201 CURVE SMOOTH",
"65 76 OFFCURVE",
"141 0 OFFCURVE",
"264 0 CURVE SMOOTH"
);
}
);
userData = {
assembly = "NPUSHB[ ]	/* 22 values pushed */\0129 3 13 16 3 16 23 20 24 6 6 0 14 15 16 12 0 12 70 89 0 18 \012SVTCA[0]	/* SetFreedomAndProjectionVectorToAxis */\012MIAP[1]	/* MoveIndirectAbsPt */\012CALL[ ]	/* CallFunction */\012SRP1[ ]	/* SetRefPoint1 */\012SVTCA[0]	/* SetFreedomAndProjectionVectorToAxis */\012SHP[1]	/* ShiftPointByLastPoint */\012RTG[ ]	/* RoundToGrid */\012MIAP[1]	/* MoveIndirectAbsPt */\012SRP2[ ]	/* SetRefPoint2 */\012IP[ ]	/* InterpolatePts */\012MDAP[1]	/* MoveDirectAbsPt */\012SRP1[ ]	/* SetRefPoint1 */\012SVTCA[1]	/* SetFreedomAndProjectionVectorToAxis */\012SHP[1]	/* ShiftPointByLastPoint */\012SRP2[ ]	/* SetRefPoint2 */\012IP[ ]	/* InterpolatePts */\012IP[ ]	/* InterpolatePts */\012SRP1[ ]	/* SetRefPoint1 */\012SHP[1]	/* ShiftPointByLastPoint */\012SRP1[ ]	/* SetRefPoint1 */\012SHP[1]	/* ShiftPointByLastPoint */\012IUP[1]	/* InterpolateUntPts */\012IUP[0]	/* InterpolateUntPts */";
};
width = 907;
},
{
anchors = (
{
name = bottom;
position = "{391, -78}";
},
{
name = ring;
position = "{411, 0}";
},
{
name = top;
position = "{391, 488}";
}
);
layerId = "15908E2C-AB74-4DC1-B0E7-8741EE8F4DA5";
paths = (
{
closed = 1;
nodes = (
"826 0 LINE SMOOTH",
"829 0 OFFCURVE",
"831 2 OFFCURVE",
"831 5 CURVE SMOOTH",
"831 74 LINE SMOOTH",
"831 77 OFFCURVE",
"829 78 OFFCURVE",
"826 78 CURVE SMOOTH",
"693 78 LINE",
"693 485 LINE",
"608 485 LINE",
"608 78 LINE",
"249 78 LINE SMOOTH",
"193 78 OFFCURVE",
"155 128 OFFCURVE",
"155 201 CURVE SMOOTH",
"155 248 OFFCURVE",
"160 296 OFFCURVE",
"170 344 CURVE",
"90 344 LINE",
"75 304 OFFCURVE",
"65 238 OFFCURVE",
"65 194 CURVE SMOOTH",
"65 74 OFFCURVE",
"137 0 OFFCURVE",
"252 0 CURVE SMOOTH"
);
}
);
userData = {
assembly = "NPUSHB[ ]	/* 22 values pushed */\0129 3 13 16 3 16 23 19 24 6 6 0 14 15 16 12 0 12 70 89 0 18 \012SVTCA[0]	/* SetFreedomAndProjectionVectorToAxis */\012MIAP[1]	/* MoveIndirectAbsPt */\012CALL[ ]	/* CallFunction */\012SRP1[ ]	/* SetRefPoint1 */\012SVTCA[0]	/* SetFreedomAndProjectionVectorToAxis */\012SHP[1]	/* ShiftPointByLastPoint */\012RTG[ ]	/* RoundToGrid */\012MIAP[1]	/* MoveIndirectAbsPt */\012SRP2[ ]	/* SetRefPoint2 */\012IP[ ]	/* InterpolatePts */\012MDAP[1]	/* MoveDirectAbsPt */\012SRP1[ ]	/* SetRefPoint1 */\012SVTCA[1]	/* SetFreedomAndProjectionVectorToAxis */\012SHP[1]	/* ShiftPointByLastPoint */\012SRP2[ ]	/* SetRefPoint2 */\012IP[ ]	/* InterpolatePts */\012IP[ ]	/* InterpolatePts */\012SRP1[ ]	/* SetRefPoint1 */\012SHP[1]	/* ShiftPointByLastPoint */\012SRP1[ ]	/* SetRefPoint1 */\012SHP[1]	/* ShiftPointByLastPoint */\012IUP[1]	/* InterpolateUntPts */\012IUP[0]	/* InterpolateUntPts */";
};
width = 821;
},
{
anchors = (
{
name = bottom;
position = "{391, -78}";
},
{
name = ring;
position = "{368, 0}";
},
{
name = top;
position = "{344, 462}";
}
);
layerId = "410295A1-92BC-4707-ABFC-13885E60878B";
paths = (
{
closed = 1;
nodes = (
"740 0 LINE SMOOTH",
"743 0 OFFCURVE",
"745 2 OFFCURVE",
"745 5 CURVE SMOOTH",
"745 20 LINE SMOOTH",
"745 23 OFFCURVE",
"743 24 OFFCURVE",
"740 24 CURVE SMOOTH",
"604 24 LINE",
"604 475 LINE",
"580 475 LINE",
"580 24 LINE",
"253 24 LINE SMOOTH",
"135 24 OFFCURVE",
"90 92 OFFCURVE",
"90 190 CURVE SMOOTH",
"90 245 OFFCURVE",
"96 288 OFFCURVE",
"110 334 CURVE",
"89 334 LINE",
"73 294 OFFCURVE",
"65 224 OFFCURVE",
"65 187 CURVE SMOOTH",
"65 74 OFFCURVE",
"133 0 OFFCURVE",
"245 0 CURVE SMOOTH"
);
}
);
width = 735;
},
{
anchors = (
{
name = bottom;
position = "{461, -78}";
},
{
name = ring;
position = "{483, 0}";
},
{
name = top;
position = "{431, 488}";
}
);
layerId = "DCD2D043-4E01-4B5D-9248-443A06E88532";
paths = (
{
closed = 1;
nodes = (
"969 0 LINE SMOOTH",
"973 0 OFFCURVE",
"974 2 OFFCURVE",
"974 5 CURVE SMOOTH",
"974 144 LINE SMOOTH",
"974 147 OFFCURVE",
"973 148 OFFCURVE",
"969 148 CURVE SMOOTH",
"841 148 LINE",
"841 502 LINE",
"652 502 LINE",
"652 148 LINE",
"347 148 LINE SMOOTH",
"284 148 OFFCURVE",
"252 178 OFFCURVE",
"252 238 CURVE SMOOTH",
"252 279 OFFCURVE",
"258 321 OFFCURVE",
"268 361 CURVE",
"102 361 LINE",
"80 321 OFFCURVE",
"65 261 OFFCURVE",
"65 206 CURVE SMOOTH",
"65 77 OFFCURVE",
"144 0 OFFCURVE",
"272 0 CURVE SMOOTH"
);
}
);
width = 964;
}
);
note = uni066E.fina;
},
{
glyphname = "behDotless-ar.medi";
lastChange = "2021-05-30 08:30:57 +0000";
layers = (
{
anchors = (
{
name = bottom;
position = "{166, -78}";
},
{
name = ring;
position = "{197, 0}";
},
{
name = top;
position = "{146, 586}";
}
);
layerId = "307C4A58-79B8-4138-817C-FBEE21722E1A";
paths = (
{
closed = 1;
nodes = (
"399 0 LINE SMOOTH",
"402 0 OFFCURVE",
"404 2 OFFCURVE",
"404 5 CURVE SMOOTH",
"404 116 LINE SMOOTH",
"404 119 OFFCURVE",
"402 120 OFFCURVE",
"399 120 CURVE SMOOTH",
"269 120 LINE",
"269 495 LINE",
"120 495 LINE",
"120 120 LINE",
"-5 120 LINE SMOOTH",
"-8 120 OFFCURVE",
"-10 119 OFFCURVE",
"-10 116 CURVE SMOOTH",
"-10 5 LINE SMOOTH",
"-10 2 OFFCURVE",
"-8 0 OFFCURVE",
"-5 0 CURVE SMOOTH"
);
}
);
userData = {
assembly = "NPUSHB[ ]	/* 18 values pushed */\01215 12 12 16 2 17 9 16 13 15 15 11 6 11 70 89 6 18 \012SVTCA[0]	/* SetFreedomAndProjectionVectorToAxis */\012MIAP[1]	/* MoveIndirectAbsPt */\012CALL[ ]	/* CallFunction */\012SRP1[ ]	/* SetRefPoint1 */\012SVTCA[0]	/* SetFreedomAndProjectionVectorToAxis */\012SHP[1]	/* ShiftPointByLastPoint */\012RTG[ ]	/* RoundToGrid */\012MIAP[1]	/* MoveIndirectAbsPt */\012SRP1[ ]	/* SetRefPoint1 */\012SVTCA[1]	/* SetFreedomAndProjectionVectorToAxis */\012SHP[1]	/* ShiftPointByLastPoint */\012SRP1[ ]	/* SetRefPoint1 */\012SHP[1]	/* ShiftPointByLastPoint */\012SRP2[ ]	/* SetRefPoint2 */\012IP[ ]	/* InterpolatePts */\012SRP1[ ]	/* SetRefPoint1 */\012SHP[1]	/* ShiftPointByLastPoint */\012IUP[1]	/* InterpolateUntPts */\012IUP[0]	/* InterpolateUntPts */";
};
width = 394;
},
{
anchors = (
{
name = bottom;
position = "{166, -78}";
},
{
name = ring;
position = "{171, 0}";
},
{
name = top;
position = "{146, 537}";
}
);
layerId = "15908E2C-AB74-4DC1-B0E7-8741EE8F4DA5";
paths = (
{
closed = 1;
nodes = (
"346 0 LINE SMOOTH",
"349 0 OFFCURVE",
"351 2 OFFCURVE",
"351 5 CURVE SMOOTH",
"351 74 LINE SMOOTH",
"351 77 OFFCURVE",
"349 78 OFFCURVE",
"346 78 CURVE SMOOTH",
"216 78 LINE",
"216 485 LINE",
"127 485 LINE",
"127 78 LINE",
"-5 78 LINE SMOOTH",
"-8 78 OFFCURVE",
"-10 77 OFFCURVE",
"-10 74 CURVE SMOOTH",
"-10 5 LINE SMOOTH",
"-10 2 OFFCURVE",
"-8 0 OFFCURVE",
"-5 0 CURVE SMOOTH"
);
}
);
userData = {
assembly = "NPUSHB[ ]	/* 18 values pushed */\0129 6 6 16 12 17 3 16 7 15 9 5 0 5 70 89 0 18 \012SVTCA[0]	/* SetFreedomAndProjectionVectorToAxis */\012MIAP[1]	/* MoveIndirectAbsPt */\012CALL[ ]	/* CallFunction */\012SRP1[ ]	/* SetRefPoint1 */\012SVTCA[0]	/* SetFreedomAndProjectionVectorToAxis */\012SHP[1]	/* ShiftPointByLastPoint */\012RTG[ ]	/* RoundToGrid */\012MIAP[1]	/* MoveIndirectAbsPt */\012SRP1[ ]	/* SetRefPoint1 */\012SVTCA[1]	/* SetFreedomAndProjectionVectorToAxis */\012SHP[1]	/* ShiftPointByLastPoint */\012SRP1[ ]	/* SetRefPoint1 */\012SHP[1]	/* ShiftPointByLastPoint */\012SRP2[ ]	/* SetRefPoint2 */\012IP[ ]	/* InterpolatePts */\012SRP1[ ]	/* SetRefPoint1 */\012SHP[1]	/* ShiftPointByLastPoint */\012IUP[1]	/* InterpolateUntPts */\012IUP[0]	/* InterpolateUntPts */";
};
width = 341;
},
{
anchors = (
{
name = bottom;
position = "{136, -58}";
},
{
name = ring;
position = "{135, 0}";
},
{
name = top;
position = "{136, 528}";
}
);
layerId = "410295A1-92BC-4707-ABFC-13885E60878B";
paths = (
{
closed = 1;
nodes = (
"273 0 LINE SMOOTH",
"276 0 OFFCURVE",
"278 2 OFFCURVE",
"278 5 CURVE SMOOTH",
"278 20 LINE SMOOTH",
"278 23 OFFCURVE",
"276 24 OFFCURVE",
"273 24 CURVE SMOOTH",
"150 24 LINE",
"150 475 LINE",
"126 475 LINE",
"126 24 LINE",
"-5 24 LINE SMOOTH",
"-8 24 OFFCURVE",
"-10 23 OFFCURVE",
"-10 20 CURVE SMOOTH",
"-10 5 LINE SMOOTH",
"-10 2 OFFCURVE",
"-8 0 OFFCURVE",
"-5 0 CURVE SMOOTH"
);
}
);
width = 268;
},
{
anchors = (
{
name = bottom;
position = "{226, -78}";
},
{
name = ring;
position = "{214, 0}";
},
{
name = top;
position = "{206, 619}";
}
);
layerId = "DCD2D043-4E01-4B5D-9248-443A06E88532";
paths = (
{
closed = 1;
nodes = (
"434 0 LINE SMOOTH",
"438 0 OFFCURVE",
"439 2 OFFCURVE",
"439 5 CURVE SMOOTH",
"439 144 LINE SMOOTH",
"439 147 OFFCURVE",
"438 148 OFFCURVE",
"434 148 CURVE SMOOTH",
"304 148 LINE",
"304 502 LINE",
"115 502 LINE",
"115 148 LINE",
"-5 148 LINE SMOOTH",
"-8 148 OFFCURVE",
"-10 147 OFFCURVE",
"-10 144 CURVE SMOOTH",
"-10 5 LINE SMOOTH",
"-10 2 OFFCURVE",
"-8 0 OFFCURVE",
"-5 0 CURVE SMOOTH"
);
}
);
width = 429;
}
);
note = uni066E.medi;
},
{
glyphname = "behDotless-ar.init";
lastChange = "2021-05-30 08:31:03 +0000";
layers = (
{
anchors = (
{
name = bottom;
position = "{127, -78}";
},
{
name = ring;
position = "{177, 0}";
},
{
name = top;
position = "{146, 586}";
}
);
layerId = "307C4A58-79B8-4138-817C-FBEE21722E1A";
paths = (
{
closed = 1;
nodes = (
"269 0 LINE",
"269 495 LINE",
"120 495 LINE",
"120 120 LINE",
"-5 120 LINE SMOOTH",
"-8 120 OFFCURVE",
"-10 119 OFFCURVE",
"-10 116 CURVE SMOOTH",
"-10 5 LINE SMOOTH",
"-10 2 OFFCURVE",
"-8 0 OFFCURVE",
"-5 0 CURVE SMOOTH"
);
}
);
userData = {
assembly = "NPUSHB[ ]	/* 14 values pushed */\0129 6 6 11 3 10 7 15 0 5 70 89 0 18 \012SVTCA[0]	/* SetFreedomAndProjectionVectorToAxis */\012MIAP[1]	/* MoveIndirectAbsPt */\012CALL[ ]	/* CallFunction */\012SVTCA[0]	/* SetFreedomAndProjectionVectorToAxis */\012RTG[ ]	/* RoundToGrid */\012MIAP[1]	/* MoveIndirectAbsPt */\012SRP1[ ]	/* SetRefPoint1 */\012SVTCA[1]	/* SetFreedomAndProjectionVectorToAxis */\012SHP[1]	/* ShiftPointByLastPoint */\012SRP2[ ]	/* SetRefPoint2 */\012IP[ ]	/* InterpolatePts */\012SRP1[ ]	/* SetRefPoint1 */\012SHP[1]	/* ShiftPointByLastPoint */\012IUP[1]	/* InterpolateUntPts */\012IUP[0]	/* InterpolateUntPts */";
};
width = 354;
},
{
anchors = (
{
name = bottom;
position = "{127, -78}";
},
{
name = ring;
position = "{151, 0}";
},
{
name = top;
position = "{146, 537}";
}
);
layerId = "15908E2C-AB74-4DC1-B0E7-8741EE8F4DA5";
paths = (
{
closed = 1;
nodes = (
"216 0 LINE",
"216 485 LINE",
"127 485 LINE",
"127 78 LINE",
"-5 78 LINE SMOOTH",
"-8 78 OFFCURVE",
"-10 77 OFFCURVE",
"-10 74 CURVE SMOOTH",
"-10 5 LINE SMOOTH",
"-10 2 OFFCURVE",
"-8 0 OFFCURVE",
"-5 0 CURVE SMOOTH"
);
}
);
userData = {
assembly = "NPUSHB[ ]	/* 14 values pushed */\0126 9 9 11 3 10 7 15 0 5 70 89 0 18 \012SVTCA[0]	/* SetFreedomAndProjectionVectorToAxis */\012MIAP[1]	/* MoveIndirectAbsPt */\012CALL[ ]	/* CallFunction */\012SVTCA[0]	/* SetFreedomAndProjectionVectorToAxis */\012RTG[ ]	/* RoundToGrid */\012MIAP[1]	/* MoveIndirectAbsPt */\012SRP1[ ]	/* SetRefPoint1 */\012SVTCA[1]	/* SetFreedomAndProjectionVectorToAxis */\012SHP[1]	/* ShiftPointByLastPoint */\012SRP2[ ]	/* SetRefPoint2 */\012IP[ ]	/* InterpolatePts */\012SRP1[ ]	/* SetRefPoint1 */\012SHP[1]	/* ShiftPointByLastPoint */\012IUP[1]	/* InterpolateUntPts */\012IUP[0]	/* InterpolateUntPts */";
};
width = 301;
},
{
anchors = (
{
name = bottom;
position = "{127, -58}";
},
{
name = ring;
position = "{125, 0}";
},
{
name = top;
position = "{146, 528}";
}
);
layerId = "410295A1-92BC-4707-ABFC-13885E60878B";
paths = (
{
closed = 1;
nodes = (
"163 0 LINE",
"163 475 LINE",
"139 475 LINE",
"139 24 LINE",
"-5 24 LINE SMOOTH",
"-8 24 OFFCURVE",
"-10 23 OFFCURVE",
"-10 20 CURVE SMOOTH",
"-10 5 LINE SMOOTH",
"-10 2 OFFCURVE",
"-8 0 OFFCURVE",
"-5 0 CURVE SMOOTH"
);
}
);
width = 248;
},
{
anchors = (
{
name = bottom;
position = "{187, -78}";
},
{
name = ring;
position = "{194, 0}";
},
{
name = top;
position = "{206, 619}";
}
);
layerId = "DCD2D043-4E01-4B5D-9248-443A06E88532";
paths = (
{
closed = 1;
nodes = (
"304 0 LINE",
"304 502 LINE",
"115 502 LINE",
"115 148 LINE",
"-5 148 LINE SMOOTH",
"-8 148 OFFCURVE",
"-10 147 OFFCURVE",
"-10 144 CURVE SMOOTH",
"-10 5 LINE SMOOTH",
"-10 2 OFFCURVE",
"-8 0 OFFCURVE",
"-5 0 CURVE SMOOTH"
);
}
);
width = 389;
}
);
note = uni066E.init;
},
{
glyphname = "behThreedotshorizontalbelow-ar";
lastChange = "2021-05-30 08:31:24 +0000";
layers = (
{
anchors = (
{
name = bottom;
position = "{518, -283}";
},
{
name = top;
position = "{459, 488}";
}
);
layerId = "307C4A58-79B8-4138-817C-FBEE21722E1A";
paths = (
{
closed = 1;
nodes = (
"893 0 LINE",
"893 495 LINE",
"744 495 LINE",
"744 120 LINE",
"308 120 LINE SMOOTH",
"252 120 OFFCURVE",
"214 162 OFFCURVE",
"214 223 CURVE SMOOTH",
"214 267 OFFCURVE",
"219 311 OFFCURVE",
"229 354 CURVE",
"97 354 LINE",
"78 314 OFFCURVE",
"65 252 OFFCURVE",
"65 201 CURVE SMOOTH",
"65 76 OFFCURVE",
"141 0 OFFCURVE",
"264 0 CURVE SMOOTH"
);
},
{
closed = 1;
nodes = (
"383 -250 OFFCURVE",
"409 -223 OFFCURVE",
"409 -178 CURVE SMOOTH",
"409 -133 OFFCURVE",
"384 -106 OFFCURVE",
"343 -106 CURVE SMOOTH",
"302 -106 OFFCURVE",
"276 -131 OFFCURVE",
"276 -178 CURVE SMOOTH",
"276 -225 OFFCURVE",
"303 -250 OFFCURVE",
"343 -250 CURVE SMOOTH"
);
},
{
closed = 1;
nodes = (
"553 -250 OFFCURVE",
"579 -223 OFFCURVE",
"579 -178 CURVE SMOOTH",
"579 -133 OFFCURVE",
"554 -106 OFFCURVE",
"513 -106 CURVE SMOOTH",
"472 -106 OFFCURVE",
"446 -131 OFFCURVE",
"446 -178 CURVE SMOOTH",
"446 -225 OFFCURVE",
"473 -250 OFFCURVE",
"513 -250 CURVE SMOOTH"
);
},
{
closed = 1;
nodes = (
"722 -250 OFFCURVE",
"748 -223 OFFCURVE",
"748 -178 CURVE SMOOTH",
"748 -133 OFFCURVE",
"723 -106 OFFCURVE",
"682 -106 CURVE SMOOTH",
"641 -106 OFFCURVE",
"615 -131 OFFCURVE",
"615 -178 CURVE SMOOTH",
"615 -225 OFFCURVE",
"642 -250 OFFCURVE",
"682 -250 CURVE SMOOTH"
);
}
);
userData = {
assembly = "NPUSHB[ ]	/* 37 values pushed */\01213 16 50 44 38 32 26 20 9 3 3 20 32 44 16 5 54 53 6 6 0 14 15 41 29 17 47 35 23 0 64 0 12 70 89 0 18 \012SVTCA[0]	/* SetFreedomAndProjectionVectorToAxis */\012MIAP[1]	/* MoveIndirectAbsPt */\012CALL[ ]	/* CallFunction */\012SVTCA[0]	/* SetFreedomAndProjectionVectorToAxis */\012SMD[ ]	/* SetMinimumDistance */\012RTG[ ]	/* RoundToGrid */\012SRP0[ ]	/* SetRefPoint0 */\012MDRP[11110]	/* MoveDirectRelPt */\012SHP[0]	/* ShiftPointByLastPoint */\012SHP[0]	/* ShiftPointByLastPoint */\012MDRP[01101]	/* MoveDirectRelPt */\012SHP[0]	/* ShiftPointByLastPoint */\012SHP[0]	/* ShiftPointByLastPoint */\012MIAP[1]	/* MoveIndirectAbsPt */\012SRP2[ ]	/* SetRefPoint2 */\012IP[ ]	/* InterpolatePts */\012MDAP[1]	/* MoveDirectAbsPt */\012SRP1[ ]	/* SetRefPoint1 */\012SRP2[ ]	/* SetRefPoint2 */\012SVTCA[1]	/* SetFreedomAndProjectionVectorToAxis */\012SLOOP[ ]	/* SetLoopVariable */\012IP[ ]	/* InterpolatePts */\012SRP1[ ]	/* SetRefPoint1 */\012SHP[1]	/* ShiftPointByLastPoint */\012SRP1[ ]	/* SetRefPoint1 */\012SHP[1]	/* ShiftPointByLastPoint */\012SRP1[ ]	/* SetRefPoint1 */\012SHP[1]	/* ShiftPointByLastPoint */\012SRP1[ ]	/* SetRefPoint1 */\012SHP[1]	/* ShiftPointByLastPoint */\012SRP1[ ]	/* SetRefPoint1 */\012SHP[1]	/* ShiftPointByLastPoint */\012IUP[1]	/* InterpolateUntPts */\012IUP[0]	/* InterpolateUntPts */";
};
width = 978;
},
{
anchors = (
{
name = bottom;
position = "{498, -264}";
},
{
name = top;
position = "{509, 458}";
}
);
layerId = "15908E2C-AB74-4DC1-B0E7-8741EE8F4DA5";
paths = (
{
closed = 1;
nodes = (
"893 0 LINE",
"893 485 LINE",
"808 485 LINE",
"808 78 LINE",
"249 78 LINE SMOOTH",
"193 78 OFFCURVE",
"155 128 OFFCURVE",
"155 201 CURVE SMOOTH",
"155 248 OFFCURVE",
"160 296 OFFCURVE",
"170 344 CURVE",
"90 344 LINE",
"75 304 OFFCURVE",
"65 238 OFFCURVE",
"65 194 CURVE SMOOTH",
"65 74 OFFCURVE",
"137 0 OFFCURVE",
"252 0 CURVE SMOOTH"
);
},
{
closed = 1;
nodes = (
"351 -200 OFFCURVE",
"371 -176 OFFCURVE",
"371 -140 CURVE SMOOTH",
"371 -104 OFFCURVE",
"351 -80 OFFCURVE",
"315 -80 CURVE SMOOTH",
"280 -80 OFFCURVE",
"259 -103 OFFCURVE",
"259 -140 CURVE SMOOTH",
"259 -179 OFFCURVE",
"280 -200 OFFCURVE",
"315 -200 CURVE SMOOTH"
);
},
{
closed = 1;
nodes = (
"529 -200 OFFCURVE",
"549 -176 OFFCURVE",
"549 -140 CURVE SMOOTH",
"549 -104 OFFCURVE",
"529 -80 OFFCURVE",
"493 -80 CURVE SMOOTH",
"458 -80 OFFCURVE",
"437 -101 OFFCURVE",
"437 -140 CURVE SMOOTH",
"437 -179 OFFCURVE",
"458 -200 OFFCURVE",
"493 -200 CURVE SMOOTH"
);
},
{
closed = 1;
nodes = (
"702 -200 OFFCURVE",
"722 -176 OFFCURVE",
"722 -140 CURVE SMOOTH",
"722 -104 OFFCURVE",
"702 -80 OFFCURVE",
"666 -80 CURVE SMOOTH",
"631 -80 OFFCURVE",
"610 -103 OFFCURVE",
"610 -140 CURVE SMOOTH",
"610 -179 OFFCURVE",
"631 -200 OFFCURVE",
"666 -200 CURVE SMOOTH"
);
}
);
userData = {
assembly = "NPUSHB[ ]	/* 41 values pushed */\01213 16 50 44 38 32 26 20 9 3 3 20 32 44 16 5 54 53 29 35 35 47 17 23 23 41 47 16 64 7 7 15 16 16 13 70 89 16 18 15 15 \012SVTCA[0]	/* SetFreedomAndProjectionVectorToAxis */\012MIAP[1]	/* MoveIndirectAbsPt */\012MIAP[1]	/* MoveIndirectAbsPt */\012CALL[ ]	/* CallFunction */\012SRP1[ ]	/* SetRefPoint1 */\012SRP2[ ]	/* SetRefPoint2 */\012SVTCA[0]	/* SetFreedomAndProjectionVectorToAxis */\012IP[ ]	/* InterpolatePts */\012RTG[ ]	/* RoundToGrid */\012MDAP[1]	/* MoveDirectAbsPt */\012SMD[ ]	/* SetMinimumDistance */\012SRP0[ ]	/* SetRefPoint0 */\012MDRP[11110]	/* MoveDirectRelPt */\012MDRP[01101]	/* MoveDirectRelPt */\012SHP[1]	/* ShiftPointByLastPoint */\012MDAP[1]	/* MoveDirectAbsPt */\012MDRP[01101]	/* MoveDirectRelPt */\012SRP1[ ]	/* SetRefPoint1 */\012SHP[1]	/* ShiftPointByLastPoint */\012MDAP[1]	/* MoveDirectAbsPt */\012MDRP[01101]	/* MoveDirectRelPt */\012SRP1[ ]	/* SetRefPoint1 */\012SRP2[ ]	/* SetRefPoint2 */\012SVTCA[1]	/* SetFreedomAndProjectionVectorToAxis */\012SLOOP[ ]	/* SetLoopVariable */\012IP[ ]	/* InterpolatePts */\012SRP1[ ]	/* SetRefPoint1 */\012SHP[1]	/* ShiftPointByLastPoint */\012SRP1[ ]	/* SetRefPoint1 */\012SHP[1]	/* ShiftPointByLastPoint */\012SRP1[ ]	/* SetRefPoint1 */\012SHP[1]	/* ShiftPointByLastPoint */\012SRP1[ ]	/* SetRefPoint1 */\012SHP[1]	/* ShiftPointByLastPoint */\012SRP1[ ]	/* SetRefPoint1 */\012SHP[1]	/* ShiftPointByLastPoint */\012IUP[1]	/* InterpolateUntPts */\012IUP[0]	/* InterpolateUntPts */";
};
width = 978;
},
{
anchors = (
{
name = bottom;
position = "{530, -190}";
},
{
name = top;
position = "{496, 426}";
}
);
layerId = "410295A1-92BC-4707-ABFC-13885E60878B";
paths = (
{
closed = 1;
nodes = (
"893 0 LINE",
"893 475 LINE",
"869 475 LINE",
"869 24 LINE",
"245 24 LINE SMOOTH",
"138 24 OFFCURVE",
"89 96 OFFCURVE",
"89 190 CURVE SMOOTH",
"89 245 OFFCURVE",
"96 290 OFFCURVE",
"112 334 CURVE",
"89 334 LINE",
"73 294 OFFCURVE",
"65 224 OFFCURVE",
"65 187 CURVE SMOOTH",
"65 74 OFFCURVE",
"133 0 OFFCURVE",
"244 0 CURVE SMOOTH"
);
},
{
closed = 1;
nodes = (
"440 -155 OFFCURVE",
"448 -142 OFFCURVE",
"448 -127 CURVE SMOOTH",
"448 -111 OFFCURVE",
"439 -99 OFFCURVE",
"422 -99 CURVE SMOOTH",
"405 -99 OFFCURVE",
"395 -111 OFFCURVE",
"395 -127 CURVE SMOOTH",
"395 -145 OFFCURVE",
"404 -155 OFFCURVE",
"422 -155 CURVE SMOOTH"
);
},
{
closed = 1;
nodes = (
"548 -155 OFFCURVE",
"557 -142 OFFCURVE",
"557 -127 CURVE SMOOTH",
"557 -111 OFFCURVE",
"548 -99 OFFCURVE",
"530 -99 CURVE SMOOTH",
"513 -99 OFFCURVE",
"504 -109 OFFCURVE",
"504 -127 CURVE SMOOTH",
"504 -145 OFFCURVE",
"513 -155 OFFCURVE",
"530 -155 CURVE SMOOTH"
);
},
{
closed = 1;
nodes = (
"652 -155 OFFCURVE",
"660 -142 OFFCURVE",
"660 -127 CURVE SMOOTH",
"660 -111 OFFCURVE",
"651 -99 OFFCURVE",
"633 -99 CURVE SMOOTH",
"617 -99 OFFCURVE",
"607 -111 OFFCURVE",
"607 -127 CURVE SMOOTH",
"607 -145 OFFCURVE",
"616 -155 OFFCURVE",
"633 -155 CURVE SMOOTH"
);
}
);
width = 978;
},
{
anchors = (
{
name = bottom;
position = "{531, -336}";
},
{
name = top;
position = "{476, 508}";
}
);
layerId = "DCD2D043-4E01-4B5D-9248-443A06E88532";
paths = (
{
closed = 1;
nodes = (
"893 0 LINE",
"893 502 LINE",
"701 502 LINE",
"701 148 LINE",
"347 148 LINE SMOOTH",
"291 148 OFFCURVE",
"253 184 OFFCURVE",
"253 238 CURVE SMOOTH",
"253 279 OFFCURVE",
"258 321 OFFCURVE",
"268 361 CURVE",
"102 361 LINE",
"80 321 OFFCURVE",
"65 261 OFFCURVE",
"65 206 CURVE SMOOTH",
"65 77 OFFCURVE",
"144 0 OFFCURVE",
"272 0 CURVE SMOOTH"
);
},
{
closed = 1;
nodes = (
"394 -283 OFFCURVE",
"424 -255 OFFCURVE",
"424 -203 CURVE SMOOTH",
"424 -152 OFFCURVE",
"396 -123 OFFCURVE",
"352 -123 CURVE SMOOTH",
"306 -123 OFFCURVE",
"277 -150 OFFCURVE",
"277 -203 CURVE SMOOTH",
"277 -255 OFFCURVE",
"308 -283 OFFCURVE",
"352 -283 CURVE SMOOTH"
);
},
{
closed = 1;
nodes = (
"569 -283 OFFCURVE",
"599 -255 OFFCURVE",
"599 -203 CURVE SMOOTH",
"599 -152 OFFCURVE",
"571 -123 OFFCURVE",
"526 -123 CURVE SMOOTH",
"481 -123 OFFCURVE",
"452 -151 OFFCURVE",
"452 -203 CURVE SMOOTH",
"452 -255 OFFCURVE",
"483 -283 OFFCURVE",
"526 -283 CURVE SMOOTH"
);
},
{
closed = 1;
nodes = (
"745 -283 OFFCURVE",
"775 -255 OFFCURVE",
"775 -203 CURVE SMOOTH",
"775 -152 OFFCURVE",
"747 -123 OFFCURVE",
"703 -123 CURVE SMOOTH",
"657 -123 OFFCURVE",
"628 -150 OFFCURVE",
"628 -203 CURVE SMOOTH",
"628 -255 OFFCURVE",
"659 -283 OFFCURVE",
"703 -283 CURVE SMOOTH"
);
}
);
width = 978;
}
);
note = uni0750;
unicode = 0750;
},
{
glyphname = "behThreedotshorizontalbelow-ar.fina";
lastChange = "2021-05-30 08:31:30 +0000";
layers = (
{
anchors = (
{
name = bottom;
position = "{527, -283}";
},
{
name = top;
position = "{459, 488}";
}
);
layerId = "307C4A58-79B8-4138-817C-FBEE21722E1A";
paths = (
{
closed = 1;
nodes = (
"1026 0 LINE SMOOTH",
"1029 0 OFFCURVE",
"1031 2 OFFCURVE",
"1031 5 CURVE SMOOTH",
"1031 116 LINE SMOOTH",
"1031 119 OFFCURVE",
"1029 120 OFFCURVE",
"1026 120 CURVE SMOOTH",
"893 120 LINE",
"893 495 LINE",
"744 495 LINE",
"744 120 LINE",
"308 120 LINE SMOOTH",
"252 120 OFFCURVE",
"214 162 OFFCURVE",
"214 223 CURVE SMOOTH",
"214 267 OFFCURVE",
"219 311 OFFCURVE",
"229 354 CURVE",
"97 354 LINE",
"78 314 OFFCURVE",
"65 252 OFFCURVE",
"65 201 CURVE SMOOTH",
"65 76 OFFCURVE",
"141 0 OFFCURVE",
"264 0 CURVE SMOOTH"
);
},
{
closed = 1;
nodes = (
"396 -250 OFFCURVE",
"422 -223 OFFCURVE",
"422 -178 CURVE SMOOTH",
"422 -133 OFFCURVE",
"397 -106 OFFCURVE",
"356 -106 CURVE SMOOTH",
"315 -106 OFFCURVE",
"289 -131 OFFCURVE",
"289 -178 CURVE SMOOTH",
"289 -225 OFFCURVE",
"316 -250 OFFCURVE",
"356 -250 CURVE SMOOTH"
);
},
{
closed = 1;
nodes = (
"566 -250 OFFCURVE",
"592 -223 OFFCURVE",
"592 -178 CURVE SMOOTH",
"592 -133 OFFCURVE",
"567 -106 OFFCURVE",
"526 -106 CURVE SMOOTH",
"485 -106 OFFCURVE",
"459 -131 OFFCURVE",
"459 -178 CURVE SMOOTH",
"459 -225 OFFCURVE",
"486 -250 OFFCURVE",
"526 -250 CURVE SMOOTH"
);
},
{
closed = 1;
nodes = (
"735 -250 OFFCURVE",
"761 -223 OFFCURVE",
"761 -178 CURVE SMOOTH",
"761 -133 OFFCURVE",
"736 -106 OFFCURVE",
"695 -106 CURVE SMOOTH",
"654 -106 OFFCURVE",
"628 -131 OFFCURVE",
"628 -178 CURVE SMOOTH",
"628 -225 OFFCURVE",
"655 -250 OFFCURVE",
"695 -250 CURVE SMOOTH"
);
}
);
userData = {
assembly = "NPUSHB[ ]	/* 43 values pushed */\0129 3 32 26 44 38 56 50 13 16 16 50 38 26 3 5 59 19 60 7 7 0 14 15 47 53 53 29 35 41 41 23 29 0 64 16 12 0 12 70 89 0 18 \012SVTCA[0]	/* SetFreedomAndProjectionVectorToAxis */\012MIAP[1]	/* MoveIndirectAbsPt */\012CALL[ ]	/* CallFunction */\012SRP1[ ]	/* SetRefPoint1 */\012SVTCA[0]	/* SetFreedomAndProjectionVectorToAxis */\012SHP[1]	/* ShiftPointByLastPoint */\012SMD[ ]	/* SetMinimumDistance */\012RTG[ ]	/* RoundToGrid */\012SRP0[ ]	/* SetRefPoint0 */\012MDRP[11110]	/* MoveDirectRelPt */\012MDRP[01101]	/* MoveDirectRelPt */\012SHP[1]	/* ShiftPointByLastPoint */\012MDAP[1]	/* MoveDirectAbsPt */\012MDRP[01101]	/* MoveDirectRelPt */\012SRP1[ ]	/* SetRefPoint1 */\012SHP[1]	/* ShiftPointByLastPoint */\012MDAP[1]	/* MoveDirectAbsPt */\012MDRP[01101]	/* MoveDirectRelPt */\012MIAP[1]	/* MoveIndirectAbsPt */\012SRP2[ ]	/* SetRefPoint2 */\012IP[ ]	/* InterpolatePts */\012MDAP[1]	/* MoveDirectAbsPt */\012SRP1[ ]	/* SetRefPoint1 */\012SVTCA[1]	/* SetFreedomAndProjectionVectorToAxis */\012SHP[1]	/* ShiftPointByLastPoint */\012SRP2[ ]	/* SetRefPoint2 */\012SLOOP[ ]	/* SetLoopVariable */\012IP[ ]	/* InterpolatePts */\012SRP1[ ]	/* SetRefPoint1 */\012SHP[1]	/* ShiftPointByLastPoint */\012SRP1[ ]	/* SetRefPoint1 */\012SHP[1]	/* ShiftPointByLastPoint */\012SRP1[ ]	/* SetRefPoint1 */\012SHP[1]	/* ShiftPointByLastPoint */\012SRP1[ ]	/* SetRefPoint1 */\012SHP[1]	/* ShiftPointByLastPoint */\012SRP1[ ]	/* SetRefPoint1 */\012SHP[1]	/* ShiftPointByLastPoint */\012IUP[1]	/* InterpolateUntPts */\012IUP[0]	/* InterpolateUntPts */";
};
width = 1021;
},
{
anchors = (
{
name = bottom;
position = "{498, -264}";
},
{
name = top;
position = "{459, 488}";
}
);
layerId = "15908E2C-AB74-4DC1-B0E7-8741EE8F4DA5";
paths = (
{
closed = 1;
nodes = (
"1026 0 LINE SMOOTH",
"1029 0 OFFCURVE",
"1031 2 OFFCURVE",
"1031 5 CURVE SMOOTH",
"1031 74 LINE SMOOTH",
"1031 77 OFFCURVE",
"1029 78 OFFCURVE",
"1026 78 CURVE SMOOTH",
"893 78 LINE",
"893 485 LINE",
"808 485 LINE",
"808 78 LINE",
"249 78 LINE SMOOTH",
"193 78 OFFCURVE",
"155 128 OFFCURVE",
"155 201 CURVE SMOOTH",
"155 248 OFFCURVE",
"160 296 OFFCURVE",
"170 344 CURVE",
"90 344 LINE",
"75 304 OFFCURVE",
"65 238 OFFCURVE",
"65 194 CURVE SMOOTH",
"65 74 OFFCURVE",
"137 0 OFFCURVE",
"252 0 CURVE SMOOTH"
);
},
{
closed = 1;
nodes = (
"351 -200 OFFCURVE",
"371 -176 OFFCURVE",
"371 -140 CURVE SMOOTH",
"371 -104 OFFCURVE",
"351 -80 OFFCURVE",
"315 -80 CURVE SMOOTH",
"280 -80 OFFCURVE",
"259 -103 OFFCURVE",
"259 -140 CURVE SMOOTH",
"259 -179 OFFCURVE",
"280 -200 OFFCURVE",
"315 -200 CURVE SMOOTH"
);
},
{
closed = 1;
nodes = (
"529 -200 OFFCURVE",
"549 -176 OFFCURVE",
"549 -140 CURVE SMOOTH",
"549 -104 OFFCURVE",
"529 -80 OFFCURVE",
"493 -80 CURVE SMOOTH",
"458 -80 OFFCURVE",
"437 -101 OFFCURVE",
"437 -140 CURVE SMOOTH",
"437 -179 OFFCURVE",
"458 -200 OFFCURVE",
"493 -200 CURVE SMOOTH"
);
},
{
closed = 1;
nodes = (
"702 -200 OFFCURVE",
"722 -176 OFFCURVE",
"722 -140 CURVE SMOOTH",
"722 -104 OFFCURVE",
"702 -80 OFFCURVE",
"666 -80 CURVE SMOOTH",
"631 -80 OFFCURVE",
"610 -103 OFFCURVE",
"610 -140 CURVE SMOOTH",
"610 -179 OFFCURVE",
"631 -200 OFFCURVE",
"666 -200 CURVE SMOOTH"
);
}
);
userData = {
assembly = "NPUSHB[ ]	/* 43 values pushed */\0129 3 32 26 44 38 56 50 16 13 13 50 38 26 3 5 59 19 60 7 7 0 14 15 47 53 53 29 35 41 41 23 29 0 64 16 13 0 13 70 89 0 18 \012SVTCA[0]	/* SetFreedomAndProjectionVectorToAxis */\012MIAP[1]	/* MoveIndirectAbsPt */\012CALL[ ]	/* CallFunction */\012SRP1[ ]	/* SetRefPoint1 */\012SVTCA[0]	/* SetFreedomAndProjectionVectorToAxis */\012SHP[1]	/* ShiftPointByLastPoint */\012SMD[ ]	/* SetMinimumDistance */\012RTG[ ]	/* RoundToGrid */\012SRP0[ ]	/* SetRefPoint0 */\012MDRP[11110]	/* MoveDirectRelPt */\012MDRP[01101]	/* MoveDirectRelPt */\012SHP[1]	/* ShiftPointByLastPoint */\012MDAP[1]	/* MoveDirectAbsPt */\012MDRP[01101]	/* MoveDirectRelPt */\012SRP1[ ]	/* SetRefPoint1 */\012SHP[1]	/* ShiftPointByLastPoint */\012MDAP[1]	/* MoveDirectAbsPt */\012MDRP[01101]	/* MoveDirectRelPt */\012MIAP[1]	/* MoveIndirectAbsPt */\012SRP2[ ]	/* SetRefPoint2 */\012IP[ ]	/* InterpolatePts */\012MDAP[1]	/* MoveDirectAbsPt */\012SRP1[ ]	/* SetRefPoint1 */\012SVTCA[1]	/* SetFreedomAndProjectionVectorToAxis */\012SHP[1]	/* ShiftPointByLastPoint */\012SRP2[ ]	/* SetRefPoint2 */\012SLOOP[ ]	/* SetLoopVariable */\012IP[ ]	/* InterpolatePts */\012SRP1[ ]	/* SetRefPoint1 */\012SHP[1]	/* ShiftPointByLastPoint */\012SRP1[ ]	/* SetRefPoint1 */\012SHP[1]	/* ShiftPointByLastPoint */\012SRP1[ ]	/* SetRefPoint1 */\012SHP[1]	/* ShiftPointByLastPoint */\012SRP1[ ]	/* SetRefPoint1 */\012SHP[1]	/* ShiftPointByLastPoint */\012SRP1[ ]	/* SetRefPoint1 */\012SHP[1]	/* ShiftPointByLastPoint */\012IUP[1]	/* InterpolateUntPts */\012IUP[0]	/* InterpolateUntPts */";
};
width = 1021;
},
{
anchors = (
{
name = bottom;
position = "{530, -190}";
},
{
name = top;
position = "{496, 426}";
}
);
layerId = "410295A1-92BC-4707-ABFC-13885E60878B";
paths = (
{
closed = 1;
nodes = (
"1026 0 LINE SMOOTH",
"1029 0 OFFCURVE",
"1031 2 OFFCURVE",
"1031 5 CURVE SMOOTH",
"1031 20 LINE SMOOTH",
"1031 23 OFFCURVE",
"1029 24 OFFCURVE",
"1026 24 CURVE SMOOTH",
"893 24 LINE",
"893 475 LINE",
"869 475 LINE",
"869 24 LINE",
"243 24 LINE SMOOTH",
"136 24 OFFCURVE",
"90 95 OFFCURVE",
"90 190 CURVE SMOOTH",
"90 245 OFFCURVE",
"96 288 OFFCURVE",
"110 334 CURVE",
"89 334 LINE",
"73 294 OFFCURVE",
"65 224 OFFCURVE",
"65 187 CURVE SMOOTH",
"65 74 OFFCURVE",
"133 0 OFFCURVE",
"244 0 CURVE SMOOTH"
);
},
{
closed = 1;
nodes = (
"440 -155 OFFCURVE",
"448 -142 OFFCURVE",
"448 -127 CURVE SMOOTH",
"448 -111 OFFCURVE",
"439 -99 OFFCURVE",
"422 -99 CURVE SMOOTH",
"405 -99 OFFCURVE",
"395 -111 OFFCURVE",
"395 -127 CURVE SMOOTH",
"395 -145 OFFCURVE",
"404 -155 OFFCURVE",
"422 -155 CURVE SMOOTH"
);
},
{
closed = 1;
nodes = (
"548 -155 OFFCURVE",
"557 -142 OFFCURVE",
"557 -127 CURVE SMOOTH",
"557 -111 OFFCURVE",
"548 -99 OFFCURVE",
"530 -99 CURVE SMOOTH",
"513 -99 OFFCURVE",
"504 -109 OFFCURVE",
"504 -127 CURVE SMOOTH",
"504 -145 OFFCURVE",
"513 -155 OFFCURVE",
"530 -155 CURVE SMOOTH"
);
},
{
closed = 1;
nodes = (
"652 -155 OFFCURVE",
"660 -142 OFFCURVE",
"660 -127 CURVE SMOOTH",
"660 -111 OFFCURVE",
"651 -99 OFFCURVE",
"633 -99 CURVE SMOOTH",
"617 -99 OFFCURVE",
"607 -111 OFFCURVE",
"607 -127 CURVE SMOOTH",
"607 -145 OFFCURVE",
"616 -155 OFFCURVE",
"633 -155 CURVE SMOOTH"
);
}
);
width = 1021;
},
{
anchors = (
{
name = bottom;
position = "{546, -326}";
},
{
name = top;
position = "{489, 488}";
}
);
layerId = "DCD2D043-4E01-4B5D-9248-443A06E88532";
paths = (
{
closed = 1;
nodes = (
"1026 0 LINE SMOOTH",
"1029 0 OFFCURVE",
"1031 2 OFFCURVE",
"1031 5 CURVE SMOOTH",
"1031 144 LINE SMOOTH",
"1031 147 OFFCURVE",
"1029 148 OFFCURVE",
"1026 148 CURVE SMOOTH",
"893 148 LINE",
"893 502 LINE",
"701 502 LINE",
"701 148 LINE",
"347 148 LINE SMOOTH",
"291 148 OFFCURVE",
"253 184 OFFCURVE",
"253 238 CURVE SMOOTH",
"253 279 OFFCURVE",
"258 321 OFFCURVE",
"268 361 CURVE",
"102 361 LINE",
"80 321 OFFCURVE",
"65 261 OFFCURVE",
"65 206 CURVE SMOOTH",
"65 77 OFFCURVE",
"144 0 OFFCURVE",
"272 0 CURVE SMOOTH"
);
},
{
closed = 1;
nodes = (
"416 -283 OFFCURVE",
"446 -255 OFFCURVE",
"446 -203 CURVE SMOOTH",
"446 -152 OFFCURVE",
"418 -123 OFFCURVE",
"373 -123 CURVE SMOOTH",
"328 -123 OFFCURVE",
"299 -150 OFFCURVE",
"299 -203 CURVE SMOOTH",
"299 -255 OFFCURVE",
"330 -283 OFFCURVE",
"373 -283 CURVE SMOOTH"
);
},
{
closed = 1;
nodes = (
"591 -283 OFFCURVE",
"621 -255 OFFCURVE",
"621 -203 CURVE SMOOTH",
"621 -152 OFFCURVE",
"593 -123 OFFCURVE",
"548 -123 CURVE SMOOTH",
"502 -123 OFFCURVE",
"474 -151 OFFCURVE",
"474 -203 CURVE SMOOTH",
"474 -255 OFFCURVE",
"504 -283 OFFCURVE",
"548 -283 CURVE SMOOTH"
);
},
{
closed = 1;
nodes = (
"767 -283 OFFCURVE",
"797 -255 OFFCURVE",
"797 -203 CURVE SMOOTH",
"797 -152 OFFCURVE",
"769 -123 OFFCURVE",
"724 -123 CURVE SMOOTH",
"679 -123 OFFCURVE",
"650 -150 OFFCURVE",
"650 -203 CURVE SMOOTH",
"650 -255 OFFCURVE",
"681 -283 OFFCURVE",
"724 -283 CURVE SMOOTH"
);
}
);
width = 1021;
}
);
note = uni0750.fina;
},
{
glyphname = "behThreedotshorizontalbelow-ar.medi";
lastChange = "2021-05-30 08:31:36 +0000";
layers = (
{
anchors = (
{
name = bottom;
position = "{322, -293}";
},
{
name = top;
position = "{322, 586}";
}
);
layerId = "307C4A58-79B8-4138-817C-FBEE21722E1A";
paths = (
{
closed = 1;
nodes = (
"606 0 LINE SMOOTH",
"609 0 OFFCURVE",
"611 2 OFFCURVE",
"611 5 CURVE SMOOTH",
"611 116 LINE SMOOTH",
"611 119 OFFCURVE",
"609 120 OFFCURVE",
"606 120 CURVE SMOOTH",
"486 120 LINE",
"486 485 LINE",
"337 485 LINE",
"337 120 LINE",
"-5 120 LINE SMOOTH",
"-8 120 OFFCURVE",
"-10 119 OFFCURVE",
"-10 116 CURVE SMOOTH",
"-10 5 LINE SMOOTH",
"-10 2 OFFCURVE",
"-8 0 OFFCURVE",
"-5 0 CURVE SMOOTH"
);
},
{
closed = 1;
nodes = (
"186 -250 OFFCURVE",
"212 -223 OFFCURVE",
"212 -178 CURVE SMOOTH",
"212 -133 OFFCURVE",
"187 -106 OFFCURVE",
"146 -106 CURVE SMOOTH",
"105 -106 OFFCURVE",
"79 -131 OFFCURVE",
"79 -178 CURVE SMOOTH",
"79 -225 OFFCURVE",
"106 -250 OFFCURVE",
"146 -250 CURVE SMOOTH"
);
},
{
closed = 1;
nodes = (
"356 -250 OFFCURVE",
"382 -223 OFFCURVE",
"382 -178 CURVE SMOOTH",
"382 -133 OFFCURVE",
"357 -106 OFFCURVE",
"316 -106 CURVE SMOOTH",
"275 -106 OFFCURVE",
"249 -131 OFFCURVE",
"249 -178 CURVE SMOOTH",
"249 -225 OFFCURVE",
"276 -250 OFFCURVE",
"316 -250 CURVE SMOOTH"
);
},
{
closed = 1;
nodes = (
"525 -250 OFFCURVE",
"551 -223 OFFCURVE",
"551 -178 CURVE SMOOTH",
"551 -133 OFFCURVE",
"526 -106 OFFCURVE",
"485 -106 CURVE SMOOTH",
"444 -106 OFFCURVE",
"418 -131 OFFCURVE",
"418 -178 CURVE SMOOTH",
"418 -225 OFFCURVE",
"445 -250 OFFCURVE",
"485 -250 CURVE SMOOTH"
);
}
);
userData = {
assembly = "NPUSHB[ ]	/* 39 values pushed */\01249 43 9 6 37 31 25 19 19 31 6 43 4 52 12 53 3 52 28 34 34 46 16 22 22 40 46 15 64 6 9 15 9 70 89 15 18 8 15 \012SVTCA[0]	/* SetFreedomAndProjectionVectorToAxis */\012MIAP[1]	/* MoveIndirectAbsPt */\012MIAP[1]	/* MoveIndirectAbsPt */\012CALL[ ]	/* CallFunction */\012SRP1[ ]	/* SetRefPoint1 */\012SVTCA[0]	/* SetFreedomAndProjectionVectorToAxis */\012SHP[1]	/* ShiftPointByLastPoint */\012SMD[ ]	/* SetMinimumDistance */\012RTG[ ]	/* RoundToGrid */\012SRP0[ ]	/* SetRefPoint0 */\012MDRP[11110]	/* MoveDirectRelPt */\012MDRP[01101]	/* MoveDirectRelPt */\012SHP[1]	/* ShiftPointByLastPoint */\012MDAP[1]	/* MoveDirectAbsPt */\012MDRP[01101]	/* MoveDirectRelPt */\012SRP1[ ]	/* SetRefPoint1 */\012SHP[1]	/* ShiftPointByLastPoint */\012MDAP[1]	/* MoveDirectAbsPt */\012MDRP[01101]	/* MoveDirectRelPt */\012SRP1[ ]	/* SetRefPoint1 */\012SVTCA[1]	/* SetFreedomAndProjectionVectorToAxis */\012SHP[1]	/* ShiftPointByLastPoint */\012SRP1[ ]	/* SetRefPoint1 */\012SHP[1]	/* ShiftPointByLastPoint */\012SRP2[ ]	/* SetRefPoint2 */\012SLOOP[ ]	/* SetLoopVariable */\012IP[ ]	/* InterpolatePts */\012SRP1[ ]	/* SetRefPoint1 */\012SHP[1]	/* ShiftPointByLastPoint */\012SRP1[ ]	/* SetRefPoint1 */\012SHP[1]	/* ShiftPointByLastPoint */\012SRP1[ ]	/* SetRefPoint1 */\012SHP[1]	/* ShiftPointByLastPoint */\012SRP1[ ]	/* SetRefPoint1 */\012SHP[1]	/* ShiftPointByLastPoint */\012IUP[1]	/* InterpolateUntPts */\012IUP[0]	/* InterpolateUntPts */";
};
width = 601;
},
{
anchors = (
{
name = bottom;
position = "{322, -264}";
},
{
name = top;
position = "{404, 557}";
}
);
layerId = "15908E2C-AB74-4DC1-B0E7-8741EE8F4DA5";
paths = (
{
closed = 1;
nodes = (
"606 0 LINE SMOOTH",
"609 0 OFFCURVE",
"611 2 OFFCURVE",
"611 5 CURVE SMOOTH",
"611 74 LINE SMOOTH",
"611 77 OFFCURVE",
"609 78 OFFCURVE",
"606 78 CURVE SMOOTH",
"456 78 LINE",
"456 485 LINE",
"367 485 LINE",
"367 78 LINE",
"-5 78 LINE SMOOTH",
"-8 78 OFFCURVE",
"-10 77 OFFCURVE",
"-10 74 CURVE SMOOTH",
"-10 5 LINE SMOOTH",
"-10 2 OFFCURVE",
"-8 0 OFFCURVE",
"-5 0 CURVE SMOOTH"
);
},
{
closed = 1;
nodes = (
"174 -200 OFFCURVE",
"194 -176 OFFCURVE",
"194 -140 CURVE SMOOTH",
"194 -104 OFFCURVE",
"174 -80 OFFCURVE",
"138 -80 CURVE SMOOTH",
"102 -80 OFFCURVE",
"82 -103 OFFCURVE",
"82 -140 CURVE SMOOTH",
"82 -179 OFFCURVE",
"103 -200 OFFCURVE",
"138 -200 CURVE SMOOTH"
);
},
{
closed = 1;
nodes = (
"352 -200 OFFCURVE",
"372 -176 OFFCURVE",
"372 -140 CURVE SMOOTH",
"372 -104 OFFCURVE",
"352 -80 OFFCURVE",
"316 -80 CURVE SMOOTH",
"281 -80 OFFCURVE",
"260 -101 OFFCURVE",
"260 -140 CURVE SMOOTH",
"260 -179 OFFCURVE",
"281 -200 OFFCURVE",
"316 -200 CURVE SMOOTH"
);
},
{
closed = 1;
nodes = (
"525 -200 OFFCURVE",
"545 -176 OFFCURVE",
"545 -140 CURVE SMOOTH",
"545 -104 OFFCURVE",
"525 -80 OFFCURVE",
"489 -80 CURVE SMOOTH",
"453 -80 OFFCURVE",
"433 -103 OFFCURVE",
"433 -140 CURVE SMOOTH",
"433 -179 OFFCURVE",
"454 -200 OFFCURVE",
"489 -200 CURVE SMOOTH"
);
}
);
userData = {
assembly = "NPUSHB[ ]	/* 39 values pushed */\01249 43 9 6 37 31 25 19 19 31 6 43 4 52 12 53 3 52 8 15 40 46 46 22 28 34 34 16 22 0 64 9 5 0 5 70 89 0 18 \012SVTCA[0]	/* SetFreedomAndProjectionVectorToAxis */\012MIAP[1]	/* MoveIndirectAbsPt */\012CALL[ ]	/* CallFunction */\012SRP1[ ]	/* SetRefPoint1 */\012SVTCA[0]	/* SetFreedomAndProjectionVectorToAxis */\012SHP[1]	/* ShiftPointByLastPoint */\012SMD[ ]	/* SetMinimumDistance */\012RTG[ ]	/* RoundToGrid */\012SRP0[ ]	/* SetRefPoint0 */\012MDRP[11110]	/* MoveDirectRelPt */\012MDRP[01101]	/* MoveDirectRelPt */\012SHP[1]	/* ShiftPointByLastPoint */\012MDAP[1]	/* MoveDirectAbsPt */\012MDRP[01101]	/* MoveDirectRelPt */\012SRP1[ ]	/* SetRefPoint1 */\012SHP[1]	/* ShiftPointByLastPoint */\012MDAP[1]	/* MoveDirectAbsPt */\012MDRP[01101]	/* MoveDirectRelPt */\012MIAP[1]	/* MoveIndirectAbsPt */\012SRP1[ ]	/* SetRefPoint1 */\012SVTCA[1]	/* SetFreedomAndProjectionVectorToAxis */\012SHP[1]	/* ShiftPointByLastPoint */\012SRP1[ ]	/* SetRefPoint1 */\012SHP[1]	/* ShiftPointByLastPoint */\012SRP2[ ]	/* SetRefPoint2 */\012SLOOP[ ]	/* SetLoopVariable */\012IP[ ]	/* InterpolatePts */\012SRP1[ ]	/* SetRefPoint1 */\012SHP[1]	/* ShiftPointByLastPoint */\012SRP1[ ]	/* SetRefPoint1 */\012SHP[1]	/* ShiftPointByLastPoint */\012SRP1[ ]	/* SetRefPoint1 */\012SHP[1]	/* ShiftPointByLastPoint */\012SRP1[ ]	/* SetRefPoint1 */\012SHP[1]	/* ShiftPointByLastPoint */\012IUP[1]	/* InterpolateUntPts */\012IUP[0]	/* InterpolateUntPts */";
};
width = 601;
},
{
anchors = (
{
name = bottom;
position = "{386, -212}";
},
{
name = top;
position = "{412, 554}";
}
);
layerId = "410295A1-92BC-4707-ABFC-13885E60878B";
paths = (
{
closed = 1;
nodes = (
"606 0 LINE SMOOTH",
"609 0 OFFCURVE",
"611 2 OFFCURVE",
"611 5 CURVE SMOOTH",
"611 20 LINE SMOOTH",
"611 23 OFFCURVE",
"609 24 OFFCURVE",
"606 24 CURVE SMOOTH",
"426 24 LINE",
"426 485 LINE",
"402 485 LINE",
"402 24 LINE",
"-5 24 LINE SMOOTH",
"-8 24 OFFCURVE",
"-10 23 OFFCURVE",
"-10 20 CURVE SMOOTH",
"-10 5 LINE SMOOTH",
"-10 2 OFFCURVE",
"-8 0 OFFCURVE",
"-5 0 CURVE SMOOTH"
);
},
{
closed = 1;
nodes = (
"300 -155 OFFCURVE",
"308 -142 OFFCURVE",
"308 -127 CURVE SMOOTH",
"308 -111 OFFCURVE",
"299 -99 OFFCURVE",
"282 -99 CURVE SMOOTH",
"265 -99 OFFCURVE",
"255 -111 OFFCURVE",
"255 -127 CURVE SMOOTH",
"255 -145 OFFCURVE",
"264 -155 OFFCURVE",
"282 -155 CURVE SMOOTH"
);
},
{
closed = 1;
nodes = (
"408 -155 OFFCURVE",
"417 -142 OFFCURVE",
"417 -127 CURVE SMOOTH",
"417 -111 OFFCURVE",
"408 -99 OFFCURVE",
"390 -99 CURVE SMOOTH",
"373 -99 OFFCURVE",
"364 -109 OFFCURVE",
"364 -127 CURVE SMOOTH",
"364 -145 OFFCURVE",
"373 -155 OFFCURVE",
"390 -155 CURVE SMOOTH"
);
},
{
closed = 1;
nodes = (
"512 -155 OFFCURVE",
"520 -142 OFFCURVE",
"520 -127 CURVE SMOOTH",
"520 -111 OFFCURVE",
"511 -99 OFFCURVE",
"493 -99 CURVE SMOOTH",
"477 -99 OFFCURVE",
"467 -111 OFFCURVE",
"467 -127 CURVE SMOOTH",
"467 -145 OFFCURVE",
"476 -155 OFFCURVE",
"493 -155 CURVE SMOOTH"
);
}
);
width = 601;
},
{
anchors = (
{
name = bottom;
position = "{322, -312}";
},
{
name = top;
position = "{377, 605}";
}
);
layerId = "DCD2D043-4E01-4B5D-9248-443A06E88532";
paths = (
{
closed = 1;
nodes = (
"606 0 LINE SMOOTH",
"609 0 OFFCURVE",
"611 2 OFFCURVE",
"611 5 CURVE SMOOTH",
"611 144 LINE SMOOTH",
"611 147 OFFCURVE",
"609 148 OFFCURVE",
"606 148 CURVE SMOOTH",
"506 148 LINE",
"506 485 LINE",
"317 485 LINE",
"317 148 LINE",
"-5 148 LINE SMOOTH",
"-8 148 OFFCURVE",
"-10 147 OFFCURVE",
"-10 144 CURVE SMOOTH",
"-10 5 LINE SMOOTH",
"-10 2 OFFCURVE",
"-8 0 OFFCURVE",
"-5 0 CURVE SMOOTH"
);
},
{
closed = 1;
nodes = (
"184 -283 OFFCURVE",
"214 -255 OFFCURVE",
"214 -203 CURVE SMOOTH",
"214 -152 OFFCURVE",
"186 -123 OFFCURVE",
"141 -123 CURVE SMOOTH",
"97 -123 OFFCURVE",
"67 -150 OFFCURVE",
"67 -203 CURVE SMOOTH",
"67 -255 OFFCURVE",
"98 -283 OFFCURVE",
"141 -283 CURVE SMOOTH"
);
},
{
closed = 1;
nodes = (
"359 -283 OFFCURVE",
"389 -255 OFFCURVE",
"389 -203 CURVE SMOOTH",
"389 -152 OFFCURVE",
"361 -123 OFFCURVE",
"316 -123 CURVE SMOOTH",
"270 -123 OFFCURVE",
"242 -151 OFFCURVE",
"242 -203 CURVE SMOOTH",
"242 -255 OFFCURVE",
"272 -283 OFFCURVE",
"316 -283 CURVE SMOOTH"
);
},
{
closed = 1;
nodes = (
"535 -283 OFFCURVE",
"565 -255 OFFCURVE",
"565 -203 CURVE SMOOTH",
"565 -152 OFFCURVE",
"537 -123 OFFCURVE",
"492 -123 CURVE SMOOTH",
"448 -123 OFFCURVE",
"418 -150 OFFCURVE",
"418 -203 CURVE SMOOTH",
"418 -255 OFFCURVE",
"449 -283 OFFCURVE",
"492 -283 CURVE SMOOTH"
);
}
);
width = 601;
}
);
note = uni0750.medi;
},
{
glyphname = "behThreedotshorizontalbelow-ar.init";
lastChange = "2021-05-30 08:31:43 +0000";
layers = (
{
anchors = (
{
name = bottom;
position = "{264, -293}";
},
{
name = top;
position = "{342, 586}";
}
);
layerId = "307C4A58-79B8-4138-817C-FBEE21722E1A";
paths = (
{
closed = 1;
nodes = (
"516 0 LINE",
"516 485 LINE",
"367 485 LINE",
"367 120 LINE",
"-5 120 LINE SMOOTH",
"-8 120 OFFCURVE",
"-10 119 OFFCURVE",
"-10 116 CURVE SMOOTH",
"-10 5 LINE SMOOTH",
"-10 2 OFFCURVE",
"-8 0 OFFCURVE",
"-5 0 CURVE SMOOTH"
);
},
{
closed = 1;
nodes = (
"132 -250 OFFCURVE",
"158 -223 OFFCURVE",
"158 -178 CURVE SMOOTH",
"158 -133 OFFCURVE",
"133 -106 OFFCURVE",
"92 -106 CURVE SMOOTH",
"51 -106 OFFCURVE",
"25 -131 OFFCURVE",
"25 -178 CURVE SMOOTH",
"25 -225 OFFCURVE",
"52 -250 OFFCURVE",
"92 -250 CURVE SMOOTH"
);
},
{
closed = 1;
nodes = (
"302 -250 OFFCURVE",
"328 -223 OFFCURVE",
"328 -178 CURVE SMOOTH",
"328 -133 OFFCURVE",
"303 -106 OFFCURVE",
"262 -106 CURVE SMOOTH",
"221 -106 OFFCURVE",
"195 -131 OFFCURVE",
"195 -178 CURVE SMOOTH",
"195 -225 OFFCURVE",
"222 -250 OFFCURVE",
"262 -250 CURVE SMOOTH"
);
},
{
closed = 1;
nodes = (
"471 -250 OFFCURVE",
"497 -223 OFFCURVE",
"497 -178 CURVE SMOOTH",
"497 -133 OFFCURVE",
"472 -106 OFFCURVE",
"431 -106 CURVE SMOOTH",
"390 -106 OFFCURVE",
"364 -131 OFFCURVE",
"364 -178 CURVE SMOOTH",
"364 -225 OFFCURVE",
"391 -250 OFFCURVE",
"431 -250 CURVE SMOOTH"
);
}
);
userData = {
assembly = "NPUSHB[ ]	/* 35 values pushed */\0126 9 43 37 31 25 19 13 13 25 37 9 4 47 3 46 22 28 28 40 10 16 16 34 40 9 64 9 6 70 89 9 18 8 15 \012SVTCA[0]	/* SetFreedomAndProjectionVectorToAxis */\012MIAP[1]	/* MoveIndirectAbsPt */\012MIAP[1]	/* MoveIndirectAbsPt */\012CALL[ ]	/* CallFunction */\012SVTCA[0]	/* SetFreedomAndProjectionVectorToAxis */\012SMD[ ]	/* SetMinimumDistance */\012RTG[ ]	/* RoundToGrid */\012SRP0[ ]	/* SetRefPoint0 */\012MDRP[11110]	/* MoveDirectRelPt */\012MDRP[01101]	/* MoveDirectRelPt */\012SHP[1]	/* ShiftPointByLastPoint */\012MDAP[1]	/* MoveDirectAbsPt */\012MDRP[01101]	/* MoveDirectRelPt */\012SRP1[ ]	/* SetRefPoint1 */\012SHP[1]	/* ShiftPointByLastPoint */\012MDAP[1]	/* MoveDirectAbsPt */\012MDRP[01101]	/* MoveDirectRelPt */\012SRP1[ ]	/* SetRefPoint1 */\012SVTCA[1]	/* SetFreedomAndProjectionVectorToAxis */\012SHP[1]	/* ShiftPointByLastPoint */\012SRP2[ ]	/* SetRefPoint2 */\012SLOOP[ ]	/* SetLoopVariable */\012IP[ ]	/* InterpolatePts */\012SRP1[ ]	/* SetRefPoint1 */\012SHP[1]	/* ShiftPointByLastPoint */\012SRP1[ ]	/* SetRefPoint1 */\012SHP[1]	/* ShiftPointByLastPoint */\012SRP1[ ]	/* SetRefPoint1 */\012SHP[1]	/* ShiftPointByLastPoint */\012SRP1[ ]	/* SetRefPoint1 */\012SHP[1]	/* ShiftPointByLastPoint */\012IUP[1]	/* InterpolateUntPts */\012IUP[0]	/* InterpolateUntPts */";
};
width = 601;
},
{
anchors = (
{
name = bottom;
position = "{264, -244}";
},
{
name = top;
position = "{391, 537}";
}
);
layerId = "15908E2C-AB74-4DC1-B0E7-8741EE8F4DA5";
paths = (
{
closed = 1;
nodes = (
"516 0 LINE",
"516 485 LINE",
"427 485 LINE",
"427 78 LINE",
"-5 78 LINE SMOOTH",
"-8 78 OFFCURVE",
"-10 77 OFFCURVE",
"-10 74 CURVE SMOOTH",
"-10 5 LINE SMOOTH",
"-10 2 OFFCURVE",
"-8 0 OFFCURVE",
"-5 0 CURVE SMOOTH"
);
},
{
closed = 1;
nodes = (
"120 -200 OFFCURVE",
"140 -176 OFFCURVE",
"140 -140 CURVE SMOOTH",
"140 -104 OFFCURVE",
"120 -80 OFFCURVE",
"84 -80 CURVE SMOOTH",
"49 -80 OFFCURVE",
"28 -103 OFFCURVE",
"28 -140 CURVE SMOOTH",
"28 -179 OFFCURVE",
"49 -200 OFFCURVE",
"84 -200 CURVE SMOOTH"
);
},
{
closed = 1;
nodes = (
"298 -200 OFFCURVE",
"318 -176 OFFCURVE",
"318 -140 CURVE SMOOTH",
"318 -104 OFFCURVE",
"298 -80 OFFCURVE",
"262 -80 CURVE SMOOTH",
"227 -80 OFFCURVE",
"206 -101 OFFCURVE",
"206 -140 CURVE SMOOTH",
"206 -179 OFFCURVE",
"227 -200 OFFCURVE",
"262 -200 CURVE SMOOTH"
);
},
{
closed = 1;
nodes = (
"471 -200 OFFCURVE",
"491 -176 OFFCURVE",
"491 -140 CURVE SMOOTH",
"491 -104 OFFCURVE",
"471 -80 OFFCURVE",
"435 -80 CURVE SMOOTH",
"400 -80 OFFCURVE",
"379 -103 OFFCURVE",
"379 -140 CURVE SMOOTH",
"379 -179 OFFCURVE",
"400 -200 OFFCURVE",
"435 -200 CURVE SMOOTH"
);
}
);
userData = {
assembly = "NPUSHB[ ]	/* 35 values pushed */\01219 13 31 25 43 37 6 9 9 37 25 13 4 47 3 46 7 15 34 40 40 16 22 28 28 10 16 0 64 0 5 70 89 0 18 \012SVTCA[0]	/* SetFreedomAndProjectionVectorToAxis */\012MIAP[1]	/* MoveIndirectAbsPt */\012CALL[ ]	/* CallFunction */\012SVTCA[0]	/* SetFreedomAndProjectionVectorToAxis */\012SMD[ ]	/* SetMinimumDistance */\012RTG[ ]	/* RoundToGrid */\012SRP0[ ]	/* SetRefPoint0 */\012MDRP[11110]	/* MoveDirectRelPt */\012MDRP[01101]	/* MoveDirectRelPt */\012SHP[1]	/* ShiftPointByLastPoint */\012MDAP[1]	/* MoveDirectAbsPt */\012MDRP[01101]	/* MoveDirectRelPt */\012SRP1[ ]	/* SetRefPoint1 */\012SHP[1]	/* ShiftPointByLastPoint */\012MDAP[1]	/* MoveDirectAbsPt */\012MDRP[01101]	/* MoveDirectRelPt */\012MIAP[1]	/* MoveIndirectAbsPt */\012SRP1[ ]	/* SetRefPoint1 */\012SVTCA[1]	/* SetFreedomAndProjectionVectorToAxis */\012SHP[1]	/* ShiftPointByLastPoint */\012SRP2[ ]	/* SetRefPoint2 */\012SLOOP[ ]	/* SetLoopVariable */\012IP[ ]	/* InterpolatePts */\012SRP1[ ]	/* SetRefPoint1 */\012SHP[1]	/* ShiftPointByLastPoint */\012SRP1[ ]	/* SetRefPoint1 */\012SHP[1]	/* ShiftPointByLastPoint */\012SRP1[ ]	/* SetRefPoint1 */\012SHP[1]	/* ShiftPointByLastPoint */\012SRP1[ ]	/* SetRefPoint1 */\012SHP[1]	/* ShiftPointByLastPoint */\012IUP[1]	/* InterpolateUntPts */\012IUP[0]	/* InterpolateUntPts */";
};
width = 601;
},
{
anchors = (
{
name = bottom;
position = "{376, -202}";
},
{
name = top;
position = "{469, 554}";
}
);
layerId = "410295A1-92BC-4707-ABFC-13885E60878B";
paths = (
{
closed = 1;
nodes = (
"516 0 LINE",
"516 485 LINE",
"492 485 LINE",
"492 24 LINE",
"-5 24 LINE SMOOTH",
"-8 24 OFFCURVE",
"-10 23 OFFCURVE",
"-10 20 CURVE SMOOTH",
"-10 5 LINE SMOOTH",
"-10 2 OFFCURVE",
"-8 0 OFFCURVE",
"-5 0 CURVE SMOOTH"
);
},
{
closed = 1;
nodes = (
"290 -155 OFFCURVE",
"298 -142 OFFCURVE",
"298 -127 CURVE SMOOTH",
"298 -111 OFFCURVE",
"289 -99 OFFCURVE",
"272 -99 CURVE SMOOTH",
"255 -99 OFFCURVE",
"245 -111 OFFCURVE",
"245 -127 CURVE SMOOTH",
"245 -145 OFFCURVE",
"254 -155 OFFCURVE",
"272 -155 CURVE SMOOTH"
);
},
{
closed = 1;
nodes = (
"398 -155 OFFCURVE",
"407 -142 OFFCURVE",
"407 -127 CURVE SMOOTH",
"407 -111 OFFCURVE",
"398 -99 OFFCURVE",
"380 -99 CURVE SMOOTH",
"363 -99 OFFCURVE",
"354 -109 OFFCURVE",
"354 -127 CURVE SMOOTH",
"354 -145 OFFCURVE",
"363 -155 OFFCURVE",
"380 -155 CURVE SMOOTH"
);
},
{
closed = 1;
nodes = (
"502 -155 OFFCURVE",
"510 -142 OFFCURVE",
"510 -127 CURVE SMOOTH",
"510 -111 OFFCURVE",
"501 -99 OFFCURVE",
"483 -99 CURVE SMOOTH",
"467 -99 OFFCURVE",
"457 -111 OFFCURVE",
"457 -127 CURVE SMOOTH",
"457 -145 OFFCURVE",
"466 -155 OFFCURVE",
"483 -155 CURVE SMOOTH"
);
}
);
width = 601;
},
{
anchors = (
{
name = bottom;
position = "{264, -326}";
},
{
name = top;
position = "{379, 619}";
}
);
layerId = "DCD2D043-4E01-4B5D-9248-443A06E88532";
paths = (
{
closed = 1;
nodes = (
"516 0 LINE",
"516 485 LINE",
"327 485 LINE",
"327 148 LINE",
"-5 148 LINE SMOOTH",
"-8 148 OFFCURVE",
"-10 147 OFFCURVE",
"-10 144 CURVE SMOOTH",
"-10 5 LINE SMOOTH",
"-10 2 OFFCURVE",
"-8 0 OFFCURVE",
"-5 0 CURVE SMOOTH"
);
},
{
closed = 1;
nodes = (
"140 -283 OFFCURVE",
"170 -255 OFFCURVE",
"170 -203 CURVE SMOOTH",
"170 -152 OFFCURVE",
"142 -123 OFFCURVE",
"97 -123 CURVE SMOOTH",
"52 -123 OFFCURVE",
"23 -150 OFFCURVE",
"23 -203 CURVE SMOOTH",
"23 -255 OFFCURVE",
"54 -283 OFFCURVE",
"97 -283 CURVE SMOOTH"
);
},
{
closed = 1;
nodes = (
"315 -283 OFFCURVE",
"345 -255 OFFCURVE",
"345 -203 CURVE SMOOTH",
"345 -152 OFFCURVE",
"317 -123 OFFCURVE",
"272 -123 CURVE SMOOTH",
"226 -123 OFFCURVE",
"198 -151 OFFCURVE",
"198 -203 CURVE SMOOTH",
"198 -255 OFFCURVE",
"228 -283 OFFCURVE",
"272 -283 CURVE SMOOTH"
);
},
{
closed = 1;
nodes = (
"491 -283 OFFCURVE",
"521 -255 OFFCURVE",
"521 -203 CURVE SMOOTH",
"521 -152 OFFCURVE",
"493 -123 OFFCURVE",
"448 -123 CURVE SMOOTH",
"403 -123 OFFCURVE",
"374 -150 OFFCURVE",
"374 -203 CURVE SMOOTH",
"374 -255 OFFCURVE",
"405 -283 OFFCURVE",
"448 -283 CURVE SMOOTH"
);
}
);
width = 601;
}
);
note = uni0750.init;
},
{
glyphname = "hah-ar";
lastChange = "2021-05-30 08:33:32 +0000";
layers = (
{
anchors = (
{
name = bottom;
position = "{195, -366}";
},
{
name = center;
position = "{342, 445}";
},
{
name = top;
position = "{244, 586}";
}
);
layerId = "307C4A58-79B8-4138-817C-FBEE21722E1A";
paths = (
{
closed = 1;
nodes = (
"338 -326 OFFCURVE",
"402 -315 OFFCURVE",
"467 -292 CURVE",
"450 -183 LINE",
"397 -197 OFFCURVE",
"348 -204 OFFCURVE",
"303 -204 CURVE SMOOTH",
"238 -204 OFFCURVE",
"191 -166 OFFCURVE",
"191 -110 CURVE SMOOTH",
"191 -49 OFFCURVE",
"226 -5 OFFCURVE",
"292 29 CURVE SMOOTH",
"324 45 OFFCURVE",
"380 63 OFFCURVE",
"461 84 CURVE",
"482 54 OFFCURVE",
"509 26 OFFCURVE",
"542 0 CURVE",
"618 98 LINE",
"563 139 OFFCURVE",
"535 187 OFFCURVE",
"514 312 CURVE SMOOTH",
"492 442 OFFCURVE",
"415 505 OFFCURVE",
"282 505 CURVE SMOOTH",
"203 505 OFFCURVE",
"113 484 OFFCURVE",
"49 449 CURVE",
"102 339 LINE",
"158 370 OFFCURVE",
"208 385 OFFCURVE",
"251 385 CURVE SMOOTH",
"323 385 OFFCURVE",
"365 347 OFFCURVE",
"385 268 CURVE SMOOTH",
"391 245 OFFCURVE",
"399 218 OFFCURVE",
"409 187 CURVE",
"264 147 OFFCURVE",
"183 107 OFFCURVE",
"128 59 CURVE SMOOTH",
"73 11 OFFCURVE",
"45 -47 OFFCURVE",
"45 -118 CURVE SMOOTH",
"45 -243 OFFCURVE",
"136 -326 OFFCURVE",
"273 -326 CURVE SMOOTH"
);
}
);
userData = {
assembly = "NPUSHB[ ]	/* 34 values pushed */\01227 8 31 3 3 16 8 37 24 5 40 39 27 8 8 19 25 18 15 19 19 13 70 89 19 16 36 0 0 34 70 89 0 28 \012SVTCA[0]	/* SetFreedomAndProjectionVectorToAxis */\012MIAP[1]	/* MoveIndirectAbsPt */\012CALL[ ]	/* CallFunction */\012SRP1[ ]	/* SetRefPoint1 */\012SVTCA[0]	/* SetFreedomAndProjectionVectorToAxis */\012SHP[1]	/* ShiftPointByLastPoint */\012RTG[ ]	/* RoundToGrid */\012MIAP[1]	/* MoveIndirectAbsPt */\012CALL[ ]	/* CallFunction */\012SRP1[ ]	/* SetRefPoint1 */\012SVTCA[0]	/* SetFreedomAndProjectionVectorToAxis */\012SHP[1]	/* ShiftPointByLastPoint */\012RTG[ ]	/* RoundToGrid */\012MIAP[1]	/* MoveIndirectAbsPt */\012SRP2[ ]	/* SetRefPoint2 */\012IP[ ]	/* InterpolatePts */\012MDAP[1]	/* MoveDirectAbsPt */\012SHP[1]	/* ShiftPointByLastPoint */\012SRP1[ ]	/* SetRefPoint1 */\012SRP2[ ]	/* SetRefPoint2 */\012SVTCA[1]	/* SetFreedomAndProjectionVectorToAxis */\012SLOOP[ ]	/* SetLoopVariable */\012IP[ ]	/* InterpolatePts */\012SRP1[ ]	/* SetRefPoint1 */\012SHP[1]	/* ShiftPointByLastPoint */\012SRP1[ ]	/* SetRefPoint1 */\012SHP[1]	/* ShiftPointByLastPoint */\012IUP[1]	/* InterpolateUntPts */\012IUP[0]	/* InterpolateUntPts */";
};
width = 683;
},
{
anchors = (
{
name = bottom;
position = "{195, -366}";
},
{
name = center;
position = "{322, 445}";
},
{
name = top;
position = "{195, 566}";
}
);
layerId = "15908E2C-AB74-4DC1-B0E7-8741EE8F4DA5";
paths = (
{
closed = 1;
nodes = (
"306 -321 OFFCURVE",
"352 -317 OFFCURVE",
"447 -297 CURVE",
"436 -228 LINE",
"371 -239 OFFCURVE",
"322 -244 OFFCURVE",
"289 -244 CURVE SMOOTH",
"184 -244 OFFCURVE",
"136 -205 OFFCURVE",
"136 -120 CURVE SMOOTH",
"136 -74 OFFCURVE",
"160 -33 OFFCURVE",
"208 2 CURVE SMOOTH",
"255 37 OFFCURVE",
"335 70 OFFCURVE",
"447 100 CURVE",
"466 65 OFFCURVE",
"490 41 OFFCURVE",
"526 12 CURVE",
"579 81 LINE",
"526 117 OFFCURVE",
"496 180 OFFCURVE",
"480 284 CURVE SMOOTH",
"458 425 OFFCURVE",
"383 495 OFFCURVE",
"256 495 CURVE SMOOTH",
"181 495 OFFCURVE",
"96 469 OFFCURVE",
"45 436 CURVE",
"80 367 LINE",
"132 395 OFFCURVE",
"207 417 OFFCURVE",
"255 417 CURVE SMOOTH",
"336 417 OFFCURVE",
"384 366 OFFCURVE",
"401 261 CURVE SMOOTH",
"408 218 OFFCURVE",
"415 188 OFFCURVE",
"420 171 CURVE",
"227 114 OFFCURVE",
"131 59 OFFCURVE",
"82 -12 CURVE SMOOTH",
"58 -47 OFFCURVE",
"45 -86 OFFCURVE",
"45 -128 CURVE SMOOTH",
"45 -251 OFFCURVE",
"124 -321 OFFCURVE",
"253 -321 CURVE SMOOTH"
);
}
);
userData = {
assembly = "NPUSHB[ ]	/* 37 values pushed */\0126 18 3 22 12 22 18 31 39 5 40 41 22 3 70 89 0 22 0 22 15 30 34 34 27 70 89 34 16 11 15 15 9 70 89 15 28 \012SVTCA[0]	/* SetFreedomAndProjectionVectorToAxis */\012MIAP[1]	/* MoveIndirectAbsPt */\012CALL[ ]	/* CallFunction */\012SRP1[ ]	/* SetRefPoint1 */\012SVTCA[0]	/* SetFreedomAndProjectionVectorToAxis */\012SHP[1]	/* ShiftPointByLastPoint */\012RTG[ ]	/* RoundToGrid */\012MIAP[1]	/* MoveIndirectAbsPt */\012CALL[ ]	/* CallFunction */\012SRP1[ ]	/* SetRefPoint1 */\012SVTCA[0]	/* SetFreedomAndProjectionVectorToAxis */\012SHP[1]	/* ShiftPointByLastPoint */\012SRP2[ ]	/* SetRefPoint2 */\012IP[ ]	/* InterpolatePts */\012IP[ ]	/* InterpolatePts */\012RTG[ ]	/* RoundToGrid */\012MDAP[1]	/* MoveDirectAbsPt */\012MDAP[1]	/* MoveDirectAbsPt */\012CALL[ ]	/* CallFunction */\012SRP1[ ]	/* SetRefPoint1 */\012SRP2[ ]	/* SetRefPoint2 */\012SVTCA[1]	/* SetFreedomAndProjectionVectorToAxis */\012SLOOP[ ]	/* SetLoopVariable */\012IP[ ]	/* InterpolatePts */\012SRP1[ ]	/* SetRefPoint1 */\012SHP[1]	/* ShiftPointByLastPoint */\012SRP1[ ]	/* SetRefPoint1 */\012SHP[1]	/* ShiftPointByLastPoint */\012IUP[1]	/* InterpolateUntPts */\012IUP[0]	/* InterpolateUntPts */";
};
width = 644;
},
{
anchors = (
{
name = bottom;
position = "{195, -366}";
},
{
name = center;
position = "{302, 445}";
},
{
name = top;
position = "{166, 546}";
}
);
layerId = "410295A1-92BC-4707-ABFC-13885E60878B";
paths = (
{
closed = 1;
nodes = (
"290 -329 OFFCURVE",
"359 -322 OFFCURVE",
"427 -304 CURVE",
"422 -280 LINE",
"354 -296 OFFCURVE",
"311 -305 OFFCURVE",
"262 -305 CURVE SMOOTH",
"133 -305 OFFCURVE",
"69 -248 OFFCURVE",
"69 -150 CURVE SMOOTH",
"69 -112 OFFCURVE",
"77 -82 OFFCURVE",
"94 -54 CURVE SMOOTH",
"149 37 OFFCURVE",
"292 89 OFFCURVE",
"451 137 CURVE",
"463 108 OFFCURVE",
"491 66 OFFCURVE",
"526 43 CURVE",
"540 64 LINE",
"490 92 OFFCURVE",
"456 172 OFFCURVE",
"445 257 CURVE SMOOTH",
"426 410 OFFCURVE",
"346 485 OFFCURVE",
"234 485 CURVE SMOOTH",
"160 485 OFFCURVE",
"82 458 OFFCURVE",
"43 427 CURVE",
"58 407 LINE",
"107 439 OFFCURVE",
"161 461 OFFCURVE",
"230 461 CURVE SMOOTH",
"345 461 OFFCURVE",
"403 383 OFFCURVE",
"421 254 CURVE SMOOTH",
"429 197 OFFCURVE",
"441 164 OFFCURVE",
"443 159 CURVE",
"284 111 OFFCURVE",
"140 60 OFFCURVE",
"78 -35 CURVE SMOOTH",
"57 -67 OFFCURVE",
"45 -104 OFFCURVE",
"45 -150 CURVE SMOOTH",
"45 -260 OFFCURVE",
"120 -329 OFFCURVE",
"253 -329 CURVE SMOOTH"
);
}
);
width = 605;
},
{
anchors = (
{
name = bottom;
position = "{188, -436}";
},
{
name = center;
position = "{358, 445}";
},
{
name = top;
position = "{280, 599}";
}
);
layerId = "DCD2D043-4E01-4B5D-9248-443A06E88532";
paths = (
{
closed = 1;
nodes = (
"404 -388 OFFCURVE",
"464 -378 OFFCURVE",
"513 -368 CURVE",
"493 -223 LINE",
"451 -232 OFFCURVE",
"408 -236 OFFCURVE",
"377 -236 CURVE SMOOTH",
"286 -236 OFFCURVE",
"219 -181 OFFCURVE",
"219 -101 CURVE SMOOTH",
"219 -49 OFFCURVE",
"248 -5 OFFCURVE",
"303 27 CURVE SMOOTH",
"348 53 OFFCURVE",
"409 75 OFFCURVE",
"459 85 CURVE",
"492 46 OFFCURVE",
"523 16 OFFCURVE",
"556 -8 CURVE",
"653 123 LINE",
"595 168 OFFCURVE",
"566 231 OFFCURVE",
"544 322 CURVE SMOOTH",
"510 460 OFFCURVE",
"424 518 OFFCURVE",
"287 518 CURVE SMOOTH",
"206 518 OFFCURVE",
"128 496 OFFCURVE",
"35 458 CURVE",
"100 313 LINE",
"177 350 OFFCURVE",
"219 364 OFFCURVE",
"259 364 CURVE SMOOTH",
"317 364 OFFCURVE",
"353 332 OFFCURVE",
"377 272 CURVE SMOOTH",
"381 263 OFFCURVE",
"392 238 OFFCURVE",
"400 216 CURVE",
"291 191 OFFCURVE",
"202 149 OFFCURVE",
"137 97 CURVE SMOOTH",
"66 41 OFFCURVE",
"32 -38 OFFCURVE",
"32 -122 CURVE SMOOTH",
"32 -282 OFFCURVE",
"168 -388 OFFCURVE",
"348 -388 CURVE SMOOTH"
);
}
);
width = 712;
}
);
note = uni062D;
unicode = 062D;
},
{
glyphname = "hah-ar.fina";
lastChange = "2021-05-30 08:33:51 +0000";
layers = (
{
anchors = (
{
name = bottom;
position = "{195, -366}";
},
{
name = center;
position = "{323, 445}";
},
{
name = top;
position = "{244, 586}";
}
);
layerId = "307C4A58-79B8-4138-817C-FBEE21722E1A";
paths = (
{
closed = 1;
nodes = (
"650 0 LINE SMOOTH",
"653 0 OFFCURVE",
"655 2 OFFCURVE",
"655 5 CURVE SMOOTH",
"655 116 LINE SMOOTH",
"655 119 OFFCURVE",
"653 120 OFFCURVE",
"650 120 CURVE SMOOTH",
"644 120 LINE SMOOTH",
"608 120 OFFCURVE",
"576 147 OFFCURVE",
"551 195 CURVE SMOOTH",
"535 226 OFFCURVE",
"524 265 OFFCURVE",
"517 300 CURVE SMOOTH",
"490 441 OFFCURVE",
"415 505 OFFCURVE",
"282 505 CURVE SMOOTH",
"203 505 OFFCURVE",
"113 484 OFFCURVE",
"49 449 CURVE",
"102 339 LINE",
"158 370 OFFCURVE",
"208 385 OFFCURVE",
"251 385 CURVE SMOOTH",
"323 385 OFFCURVE",
"364 348 OFFCURVE",
"385 268 CURVE SMOOTH",
"392 241 OFFCURVE",
"401 214 OFFCURVE",
"410 187 CURVE",
"262 147 OFFCURVE",
"184 108 OFFCURVE",
"129 60 CURVE SMOOTH",
"74 12 OFFCURVE",
"45 -47 OFFCURVE",
"45 -118 CURVE SMOOTH",
"45 -243 OFFCURVE",
"136 -326 OFFCURVE",
"273 -326 CURVE SMOOTH",
"338 -326 OFFCURVE",
"402 -315 OFFCURVE",
"467 -292 CURVE",
"450 -183 LINE",
"397 -197 OFFCURVE",
"348 -204 OFFCURVE",
"303 -204 CURVE SMOOTH",
"238 -204 OFFCURVE",
"191 -166 OFFCURVE",
"191 -110 CURVE SMOOTH",
"191 -49 OFFCURVE",
"226 -5 OFFCURVE",
"292 29 CURVE SMOOTH",
"324 45 OFFCURVE",
"380 63 OFFCURVE",
"461 84 CURVE",
"500 27 OFFCURVE",
"552 0 OFFCURVE",
"644 0 CURVE SMOOTH"
);
}
);
userData = {
assembly = "NPUSHB[ ]	/* 38 values pushed */\0127 18 3 23 13 23 31 18 4 46 42 47 3 23 23 0 30 34 34 28 70 89 34 16 12 15 15 10 70 89 15 28 0 41 70 89 0 18 \012SVTCA[0]	/* SetFreedomAndProjectionVectorToAxis */\012MIAP[1]	/* MoveIndirectAbsPt */\012CALL[ ]	/* CallFunction */\012SVTCA[0]	/* SetFreedomAndProjectionVectorToAxis */\012RTG[ ]	/* RoundToGrid */\012MIAP[1]	/* MoveIndirectAbsPt */\012CALL[ ]	/* CallFunction */\012SRP1[ ]	/* SetRefPoint1 */\012SVTCA[0]	/* SetFreedomAndProjectionVectorToAxis */\012SHP[1]	/* ShiftPointByLastPoint */\012RTG[ ]	/* RoundToGrid */\012MIAP[1]	/* MoveIndirectAbsPt */\012CALL[ ]	/* CallFunction */\012SRP1[ ]	/* SetRefPoint1 */\012SVTCA[0]	/* SetFreedomAndProjectionVectorToAxis */\012SHP[1]	/* ShiftPointByLastPoint */\012SRP2[ ]	/* SetRefPoint2 */\012IP[ ]	/* InterpolatePts */\012RTG[ ]	/* RoundToGrid */\012MDAP[1]	/* MoveDirectAbsPt */\012SHP[1]	/* ShiftPointByLastPoint */\012SRP1[ ]	/* SetRefPoint1 */\012SVTCA[1]	/* SetFreedomAndProjectionVectorToAxis */\012SHP[1]	/* ShiftPointByLastPoint */\012SRP2[ ]	/* SetRefPoint2 */\012SLOOP[ ]	/* SetLoopVariable */\012IP[ ]	/* InterpolatePts */\012SRP1[ ]	/* SetRefPoint1 */\012SHP[1]	/* ShiftPointByLastPoint */\012SRP1[ ]	/* SetRefPoint1 */\012SHP[1]	/* ShiftPointByLastPoint */\012IUP[1]	/* InterpolateUntPts */\012IUP[0]	/* InterpolateUntPts */";
};
width = 645;
},
{
anchors = (
{
name = bottom;
position = "{195, -366}";
},
{
name = center;
position = "{307, 445}";
},
{
name = top;
position = "{195, 566}";
}
);
layerId = "15908E2C-AB74-4DC1-B0E7-8741EE8F4DA5";
paths = (
{
closed = 1;
nodes = (
"619 0 LINE SMOOTH",
"622 0 OFFCURVE",
"624 2 OFFCURVE",
"624 5 CURVE SMOOTH",
"624 74 LINE SMOOTH",
"624 77 OFFCURVE",
"622 78 OFFCURVE",
"619 78 CURVE SMOOTH",
"614 78 LINE SMOOTH",
"562 78 OFFCURVE",
"531 103 OFFCURVE",
"511 152 CURVE SMOOTH",
"501 176 OFFCURVE",
"490 220 OFFCURVE",
"480 284 CURVE SMOOTH",
"458 426 OFFCURVE",
"383 495 OFFCURVE",
"256 495 CURVE SMOOTH",
"181 495 OFFCURVE",
"96 469 OFFCURVE",
"45 436 CURVE",
"80 367 LINE",
"132 395 OFFCURVE",
"207 417 OFFCURVE",
"255 417 CURVE SMOOTH",
"336 417 OFFCURVE",
"384 366 OFFCURVE",
"401 261 CURVE SMOOTH",
"407 224 OFFCURVE",
"414 194 OFFCURVE",
"421 171 CURVE",
"233 116 OFFCURVE",
"133 60 OFFCURVE",
"83 -11 CURVE SMOOTH",
"58 -46 OFFCURVE",
"45 -85 OFFCURVE",
"45 -128 CURVE SMOOTH",
"45 -251 OFFCURVE",
"124 -321 OFFCURVE",
"253 -321 CURVE SMOOTH",
"306 -321 OFFCURVE",
"379 -312 OFFCURVE",
"447 -297 CURVE",
"436 -228 LINE",
"371 -239 OFFCURVE",
"322 -244 OFFCURVE",
"289 -244 CURVE SMOOTH",
"184 -244 OFFCURVE",
"136 -205 OFFCURVE",
"136 -120 CURVE SMOOTH",
"136 -60 OFFCURVE",
"176 -10 OFFCURVE",
"264 35 CURVE SMOOTH",
"307 57 OFFCURVE",
"370 78 OFFCURVE",
"449 100 CURVE",
"488 29 OFFCURVE",
"541 0 OFFCURVE",
"614 0 CURVE SMOOTH"
);
}
);
userData = {
assembly = "NPUSHB[ ]	/* 42 values pushed */\01239 3 35 7 45 7 16 3 4 48 28 49 7 35 70 89 7 7 32 19 32 25 70 89 32 18 15 19 19 12 70 89 19 16 44 0 0 42 70 89 0 28 \012SVTCA[0]	/* SetFreedomAndProjectionVectorToAxis */\012MIAP[1]	/* MoveIndirectAbsPt */\012CALL[ ]	/* CallFunction */\012SRP1[ ]	/* SetRefPoint1 */\012SVTCA[0]	/* SetFreedomAndProjectionVectorToAxis */\012SHP[1]	/* ShiftPointByLastPoint */\012RTG[ ]	/* RoundToGrid */\012MIAP[1]	/* MoveIndirectAbsPt */\012CALL[ ]	/* CallFunction */\012SRP1[ ]	/* SetRefPoint1 */\012SVTCA[0]	/* SetFreedomAndProjectionVectorToAxis */\012SHP[1]	/* ShiftPointByLastPoint */\012RTG[ ]	/* RoundToGrid */\012MIAP[1]	/* MoveIndirectAbsPt */\012CALL[ ]	/* CallFunction */\012SRP1[ ]	/* SetRefPoint1 */\012SRP2[ ]	/* SetRefPoint2 */\012SVTCA[0]	/* SetFreedomAndProjectionVectorToAxis */\012IP[ ]	/* InterpolatePts */\012RTG[ ]	/* RoundToGrid */\012MDAP[1]	/* MoveDirectAbsPt */\012CALL[ ]	/* CallFunction */\012SRP1[ ]	/* SetRefPoint1 */\012SVTCA[1]	/* SetFreedomAndProjectionVectorToAxis */\012SHP[1]	/* ShiftPointByLastPoint */\012SRP2[ ]	/* SetRefPoint2 */\012SLOOP[ ]	/* SetLoopVariable */\012IP[ ]	/* InterpolatePts */\012SRP1[ ]	/* SetRefPoint1 */\012SHP[1]	/* ShiftPointByLastPoint */\012SRP1[ ]	/* SetRefPoint1 */\012SHP[1]	/* ShiftPointByLastPoint */\012IUP[1]	/* InterpolateUntPts */\012IUP[0]	/* InterpolateUntPts */";
};
width = 614;
},
{
anchors = (
{
name = bottom;
position = "{195, -366}";
},
{
name = center;
position = "{301, 445}";
},
{
name = top;
position = "{146, 546}";
}
);
layerId = "410295A1-92BC-4707-ABFC-13885E60878B";
paths = (
{
closed = 1;
nodes = (
"588 0 LINE SMOOTH",
"591 0 OFFCURVE",
"593 2 OFFCURVE",
"593 5 CURVE SMOOTH",
"593 20 LINE SMOOTH",
"593 23 OFFCURVE",
"591 24 OFFCURVE",
"588 24 CURVE SMOOTH",
"584 24 LINE SMOOTH",
"542 24 OFFCURVE",
"512 57 OFFCURVE",
"491 99 CURVE SMOOTH",
"470 140 OFFCURVE",
"457 190 OFFCURVE",
"451 229 CURVE SMOOTH",
"420 420 OFFCURVE",
"348 485 OFFCURVE",
"231 485 CURVE SMOOTH",
"160 485 OFFCURVE",
"82 457 OFFCURVE",
"43 425 CURVE",
"54 405 LINE",
"106 439 OFFCURVE",
"171 461 OFFCURVE",
"237 461 CURVE SMOOTH",
"363 461 OFFCURVE",
"407 355 OFFCURVE",
"428 222 CURVE SMOOTH",
"432 195 OFFCURVE",
"439 173 OFFCURVE",
"443 159 CURVE",
"284 111 OFFCURVE",
"140 60 OFFCURVE",
"78 -35 CURVE SMOOTH",
"57 -67 OFFCURVE",
"45 -104 OFFCURVE",
"45 -150 CURVE SMOOTH",
"45 -260 OFFCURVE",
"120 -329 OFFCURVE",
"253 -329 CURVE SMOOTH",
"290 -329 OFFCURVE",
"359 -322 OFFCURVE",
"427 -304 CURVE",
"422 -280 LINE",
"354 -296 OFFCURVE",
"311 -305 OFFCURVE",
"262 -305 CURVE SMOOTH",
"133 -305 OFFCURVE",
"69 -248 OFFCURVE",
"69 -150 CURVE SMOOTH",
"69 -112 OFFCURVE",
"77 -82 OFFCURVE",
"94 -54 CURVE SMOOTH",
"149 37 OFFCURVE",
"292 89 OFFCURVE",
"449 137 CURVE",
"474 71 OFFCURVE",
"509 0 OFFCURVE",
"584 0 CURVE SMOOTH"
);
}
);
width = 583;
},
{
anchors = (
{
name = bottom;
position = "{198, -444}";
},
{
name = center;
position = "{337, 445}";
},
{
name = top;
position = "{280, 599}";
}
);
layerId = "DCD2D043-4E01-4B5D-9248-443A06E88532";
paths = (
{
closed = 1;
nodes = (
"674 0 LINE SMOOTH",
"677 0 OFFCURVE",
"679 2 OFFCURVE",
"679 5 CURVE SMOOTH",
"679 144 LINE SMOOTH",
"679 147 OFFCURVE",
"677 148 OFFCURVE",
"674 148 CURVE SMOOTH",
"667 148 LINE SMOOTH",
"616 148 OFFCURVE",
"596 184 OFFCURVE",
"582 214 CURVE SMOOTH",
"563 255 OFFCURVE",
"551 296 OFFCURVE",
"545 319 CURVE SMOOTH",
"507 468 OFFCURVE",
"419 513 OFFCURVE",
"283 513 CURVE SMOOTH",
"202 513 OFFCURVE",
"128 493 OFFCURVE",
"38 458 CURVE",
"106 320 LINE",
"173 350 OFFCURVE",
"221 364 OFFCURVE",
"258 364 CURVE SMOOTH",
"317 364 OFFCURVE",
"352 336 OFFCURVE",
"378 271 CURVE SMOOTH",
"384 257 OFFCURVE",
"392 238 OFFCURVE",
"400 216 CURVE",
"291 191 OFFCURVE",
"202 149 OFFCURVE",
"137 97 CURVE SMOOTH",
"66 41 OFFCURVE",
"32 -38 OFFCURVE",
"32 -122 CURVE SMOOTH",
"32 -287 OFFCURVE",
"172 -388 OFFCURVE",
"348 -388 CURVE SMOOTH",
"404 -388 OFFCURVE",
"464 -378 OFFCURVE",
"513 -368 CURVE",
"492 -223 LINE",
"451 -232 OFFCURVE",
"420 -236 OFFCURVE",
"377 -236 CURVE SMOOTH",
"286 -236 OFFCURVE",
"219 -178 OFFCURVE",
"219 -101 CURVE SMOOTH",
"219 -49 OFFCURVE",
"248 -5 OFFCURVE",
"303 26 CURVE SMOOTH",
"358 57 OFFCURVE",
"409 75 OFFCURVE",
"459 85 CURVE",
"507 25 OFFCURVE",
"549 0 OFFCURVE",
"637 0 CURVE SMOOTH"
);
}
);
width = 669;
}
);
note = uni062D.fina;
},
{
glyphname = "hah-ar.medi";
lastChange = "2021-05-30 08:34:04 +0000";
layers = (
{
anchors = (
{
name = bottom;
position = "{244, -78}";
},
{
name = top;
position = "{205, 586}";
}
);
layerId = "307C4A58-79B8-4138-817C-FBEE21722E1A";
paths = (
{
closed = 1;
nodes = (
"613 0 LINE SMOOTH",
"616 0 OFFCURVE",
"618 2 OFFCURVE",
"618 5 CURVE SMOOTH",
"618 116 LINE SMOOTH",
"618 119 OFFCURVE",
"616 120 OFFCURVE",
"613 120 CURVE SMOOTH",
"548 120 LINE",
"519 149 OFFCURVE",
"495 213 OFFCURVE",
"478 312 CURVE SMOOTH",
"461 411 OFFCURVE",
"419 466 OFFCURVE",
"347 491 CURVE SMOOTH",
"319 501 OFFCURVE",
"286 505 OFFCURVE",
"243 505 CURVE SMOOTH",
"169 505 OFFCURVE",
"99 489 OFFCURVE",
"40 457 CURVE",
"85 347 LINE",
"133 374 OFFCURVE",
"171 385 OFFCURVE",
"218 385 CURVE SMOOTH",
"289 385 OFFCURVE",
"319 355 OFFCURVE",
"338 263 CURVE SMOOTH",
"353 192 OFFCURVE",
"372 145 OFFCURVE",
"399 120 CURVE",
"-5 120 LINE SMOOTH",
"-8 120 OFFCURVE",
"-10 119 OFFCURVE",
"-10 116 CURVE SMOOTH",
"-10 5 LINE SMOOTH",
"-10 2 OFFCURVE",
"-8 0 OFFCURVE",
"-5 0 CURVE SMOOTH"
);
}
);
userData = {
assembly = "NPUSHB[ ]	/* 25 values pushed */\0126 22 22 15 29 25 30 3 29 14 17 17 11 70 89 17 16 22 5 0 5 70 89 0 18 \012SVTCA[0]	/* SetFreedomAndProjectionVectorToAxis */\012MIAP[1]	/* MoveIndirectAbsPt */\012CALL[ ]	/* CallFunction */\012SRP1[ ]	/* SetRefPoint1 */\012SVTCA[0]	/* SetFreedomAndProjectionVectorToAxis */\012SHP[1]	/* ShiftPointByLastPoint */\012RTG[ ]	/* RoundToGrid */\012MIAP[1]	/* MoveIndirectAbsPt */\012CALL[ ]	/* CallFunction */\012SRP1[ ]	/* SetRefPoint1 */\012SVTCA[0]	/* SetFreedomAndProjectionVectorToAxis */\012SHP[1]	/* ShiftPointByLastPoint */\012SRP1[ ]	/* SetRefPoint1 */\012SVTCA[1]	/* SetFreedomAndProjectionVectorToAxis */\012SHP[1]	/* ShiftPointByLastPoint */\012SRP1[ ]	/* SetRefPoint1 */\012SHP[1]	/* ShiftPointByLastPoint */\012SRP2[ ]	/* SetRefPoint2 */\012IP[ ]	/* InterpolatePts */\012IP[ ]	/* InterpolatePts */\012SRP1[ ]	/* SetRefPoint1 */\012SHP[1]	/* ShiftPointByLastPoint */\012IUP[1]	/* InterpolateUntPts */\012IUP[0]	/* InterpolateUntPts */";
};
width = 608;
},
{
anchors = (
{
name = bottom;
position = "{244, -78}";
},
{
name = top;
position = "{205, 576}";
}
);
layerId = "15908E2C-AB74-4DC1-B0E7-8741EE8F4DA5";
paths = (
{
closed = 1;
nodes = (
"579 0 LINE SMOOTH",
"582.333 0 OFFCURVE",
"584 1.667 OFFCURVE",
"584 5 CURVE SMOOTH",
"584 74 LINE SMOOTH",
"584 76.667 OFFCURVE",
"582.333 78 OFFCURVE",
"579 78 CURVE SMOOTH",
"512 78 LINE",
"479.333 110.667 OFFCURVE",
"455.333 179.333 OFFCURVE",
"440 284 CURVE SMOOTH",
"422.667 392 OFFCURVE",
"392.667 443.667 OFFCURVE",
"338 473 CURVE SMOOTH",
"310.667 487.667 OFFCURVE",
"276.667 495 OFFCURVE",
"236 495 CURVE SMOOTH",
"169.333 495 OFFCURVE",
"112.333 483.333 OFFCURVE",
"55 446 CURVE",
"90 377 LINE",
"141 404 OFFCURVE",
"189 417 OFFCURVE",
"235 417 CURVE SMOOTH",
"308.333 417 OFFCURVE",
"342.333 374.333 OFFCURVE",
"361 261 CURVE SMOOTH",
"377 165 OFFCURVE",
"398 104 OFFCURVE",
"424 78 CURVE",
"-5 78 LINE SMOOTH",
"-8.333 78 OFFCURVE",
"-10 76.667 OFFCURVE",
"-10 74 CURVE SMOOTH",
"-10 5 LINE SMOOTH",
"-10 1.667 OFFCURVE",
"-8.333 0 OFFCURVE",
"-5 0 CURVE SMOOTH"
);
}
);
userData = {
assembly = "NPUSHB[ ]	/* 25 values pushed */\0126 23 23 14 30 26 31 4 30 13 17 17 11 70 89 17 16 23 5 0 5 70 89 0 18 \012SVTCA[0]	/* SetFreedomAndProjectionVectorToAxis */\012MIAP[1]	/* MoveIndirectAbsPt */\012CALL[ ]	/* CallFunction */\012SRP1[ ]	/* SetRefPoint1 */\012SVTCA[0]	/* SetFreedomAndProjectionVectorToAxis */\012SHP[1]	/* ShiftPointByLastPoint */\012RTG[ ]	/* RoundToGrid */\012MIAP[1]	/* MoveIndirectAbsPt */\012CALL[ ]	/* CallFunction */\012SRP1[ ]	/* SetRefPoint1 */\012SVTCA[0]	/* SetFreedomAndProjectionVectorToAxis */\012SHP[1]	/* ShiftPointByLastPoint */\012SRP1[ ]	/* SetRefPoint1 */\012SVTCA[1]	/* SetFreedomAndProjectionVectorToAxis */\012SHP[1]	/* ShiftPointByLastPoint */\012SRP1[ ]	/* SetRefPoint1 */\012SHP[1]	/* ShiftPointByLastPoint */\012SRP2[ ]	/* SetRefPoint2 */\012IP[ ]	/* InterpolatePts */\012IP[ ]	/* InterpolatePts */\012SRP1[ ]	/* SetRefPoint1 */\012SHP[1]	/* ShiftPointByLastPoint */\012IUP[1]	/* InterpolateUntPts */\012IUP[0]	/* InterpolateUntPts */";
};
width = 574;
},
{
anchors = (
{
name = bottom;
position = "{244, -78}";
},
{
name = top;
position = "{205, 566}";
}
);
layerId = "410295A1-92BC-4707-ABFC-13885E60878B";
paths = (
{
closed = 1;
nodes = (
"545 0 LINE SMOOTH",
"548 0 OFFCURVE",
"550 2 OFFCURVE",
"550 5 CURVE SMOOTH",
"550 20 LINE SMOOTH",
"550 23 OFFCURVE",
"548 24 OFFCURVE",
"545 24 CURVE SMOOTH",
"478 24 LINE",
"444 58 OFFCURVE",
"428 101 OFFCURVE",
"402 256 CURVE SMOOTH",
"381 369 OFFCURVE",
"373 414 OFFCURVE",
"331 453 CURVE SMOOTH",
"304 478 OFFCURVE",
"270 489 OFFCURVE",
"228 489 CURVE SMOOTH",
"173 489 OFFCURVE",
"125 470 OFFCURVE",
"73 437 CURVE",
"87 419 LINE",
"144 451 OFFCURVE",
"182 465 OFFCURVE",
"225 465 CURVE SMOOTH",
"343 465 OFFCURVE",
"355 377 OFFCURVE",
"377 259 CURVE SMOOTH",
"398 137 OFFCURVE",
"409 76 OFFCURVE",
"446 24 CURVE",
"-5 24 LINE SMOOTH",
"-8 24 OFFCURVE",
"-10 23 OFFCURVE",
"-10 20 CURVE SMOOTH",
"-10 5 LINE SMOOTH",
"-10 2 OFFCURVE",
"-8 0 OFFCURVE",
"-5 0 CURVE SMOOTH"
);
}
);
width = 540;
},
{
anchors = (
{
name = bottom;
position = "{244, -78}";
},
{
name = top;
position = "{205, 593}";
}
);
layerId = "DCD2D043-4E01-4B5D-9248-443A06E88532";
paths = (
{
closed = 1;
nodes = (
"636 0 LINE SMOOTH",
"639 0 OFFCURVE",
"641 2 OFFCURVE",
"641 5 CURVE SMOOTH",
"641 144 LINE SMOOTH",
"641 147 OFFCURVE",
"639 148 OFFCURVE",
"636 148 CURVE SMOOTH",
"572 148 LINE",
"545 174 OFFCURVE",
"519 240 OFFCURVE",
"504 325 CURVE SMOOTH",
"487 424 OFFCURVE",
"437 491 OFFCURVE",
"346 516 CURVE SMOOTH",
"325 522 OFFCURVE",
"292 526 OFFCURVE",
"271 526 CURVE SMOOTH",
"169 526 OFFCURVE",
"90 495 OFFCURVE",
"30 468 CURVE",
"82 327 LINE",
"122 350 OFFCURVE",
"168 364 OFFCURVE",
"207 364 CURVE SMOOTH",
"263 364 OFFCURVE",
"307 341 OFFCURVE",
"326 258 CURVE SMOOTH",
"336 214 OFFCURVE",
"351 172 OFFCURVE",
"374 148 CURVE",
"-5 148 LINE SMOOTH",
"-8 148 OFFCURVE",
"-10 147 OFFCURVE",
"-10 144 CURVE SMOOTH",
"-10 5 LINE SMOOTH",
"-10 2 OFFCURVE",
"-8 0 OFFCURVE",
"-5 0 CURVE SMOOTH"
);
}
);
width = 631;
}
);
note = uni062D.medi;
},
{
glyphname = "hah-ar.init";
lastChange = "2021-05-30 08:34:45 +0000";
layers = (
{
anchors = (
{
name = bottom;
position = "{244, -78}";
},
{
name = top;
position = "{205, 586}";
}
);
layerId = "307C4A58-79B8-4138-817C-FBEE21722E1A";
paths = (
{
closed = 1;
nodes = (
"548 0 LINE",
"548 120 LINE",
"519 149 OFFCURVE",
"495 213 OFFCURVE",
"478 312 CURVE SMOOTH",
"460 414 OFFCURVE",
"418 469 OFFCURVE",
"343 493 CURVE SMOOTH",
"316 502 OFFCURVE",
"285 505 OFFCURVE",
"249 505 CURVE SMOOTH",
"169 505 OFFCURVE",
"99 489 OFFCURVE",
"40 457 CURVE",
"85 347 LINE",
"133 374 OFFCURVE",
"171 385 OFFCURVE",
"218 385 CURVE SMOOTH",
"289 385 OFFCURVE",
"319 355 OFFCURVE",
"338 263 CURVE SMOOTH",
"353 192 OFFCURVE",
"372 144 OFFCURVE",
"398 121 CURVE",
"-5 121 LINE SMOOTH",
"-8 121 OFFCURVE",
"-10 119 OFFCURVE",
"-10 116 CURVE SMOOTH",
"-10 5 LINE SMOOTH",
"-10 2 OFFCURVE",
"-8 0 OFFCURVE",
"-5 0 CURVE SMOOTH"
);
}
);
userData = {
assembly = "NPUSHB[ ]	/* 23 values pushed */\0126 24 24 16 26 3 25 15 18 18 12 70 89 18 16 23 5 0 5 70 89 0 18 \012SVTCA[0]	/* SetFreedomAndProjectionVectorToAxis */\012MIAP[1]	/* MoveIndirectAbsPt */\012CALL[ ]	/* CallFunction */\012SRP1[ ]	/* SetRefPoint1 */\012SVTCA[0]	/* SetFreedomAndProjectionVectorToAxis */\012SHP[1]	/* ShiftPointByLastPoint */\012RTG[ ]	/* RoundToGrid */\012MIAP[1]	/* MoveIndirectAbsPt */\012CALL[ ]	/* CallFunction */\012SRP1[ ]	/* SetRefPoint1 */\012SVTCA[0]	/* SetFreedomAndProjectionVectorToAxis */\012SHP[1]	/* ShiftPointByLastPoint */\012SRP1[ ]	/* SetRefPoint1 */\012SVTCA[1]	/* SetFreedomAndProjectionVectorToAxis */\012SHP[1]	/* ShiftPointByLastPoint */\012SRP2[ ]	/* SetRefPoint2 */\012IP[ ]	/* InterpolatePts */\012IP[ ]	/* InterpolatePts */\012SRP1[ ]	/* SetRefPoint1 */\012SHP[1]	/* ShiftPointByLastPoint */\012IUP[1]	/* InterpolateUntPts */\012IUP[0]	/* InterpolateUntPts */";
};
width = 613;
},
{
anchors = (
{
name = bottom;
position = "{244, -78}";
},
{
name = top;
position = "{205, 576}";
}
);
layerId = "15908E2C-AB74-4DC1-B0E7-8741EE8F4DA5";
paths = (
{
closed = 1;
nodes = (
"515 0 LINE",
"515 76 LINE",
"483 105 OFFCURVE",
"459 165 OFFCURVE",
"440 284 CURVE SMOOTH",
"423 393 OFFCURVE",
"394 444 OFFCURVE",
"338 473 CURVE SMOOTH",
"311 487 OFFCURVE",
"277 495 OFFCURVE",
"236 495 CURVE SMOOTH",
"169 495 OFFCURVE",
"112 483 OFFCURVE",
"55 446 CURVE",
"90 377 LINE",
"141 404 OFFCURVE",
"189 417 OFFCURVE",
"235 417 CURVE SMOOTH",
"310 417 OFFCURVE",
"341 377 OFFCURVE",
"361 261 CURVE SMOOTH",
"378 164 OFFCURVE",
"399 103 OFFCURVE",
"424 78 CURVE",
"-5 78 LINE SMOOTH",
"-8 78 OFFCURVE",
"-10 77 OFFCURVE",
"-10 74 CURVE SMOOTH",
"-10 5 LINE SMOOTH",
"-10 2 OFFCURVE",
"-8 0 OFFCURVE",
"-5 0 CURVE SMOOTH"
);
}
);
userData = {
assembly = "NPUSHB[ ]	/* 23 values pushed */\0126 25 25 14 27 0 26 13 17 17 11 70 89 17 16 24 5 0 5 70 89 0 18 \012SVTCA[0]	/* SetFreedomAndProjectionVectorToAxis */\012MIAP[1]	/* MoveIndirectAbsPt */\012CALL[ ]	/* CallFunction */\012SRP1[ ]	/* SetRefPoint1 */\012SVTCA[0]	/* SetFreedomAndProjectionVectorToAxis */\012SHP[1]	/* ShiftPointByLastPoint */\012RTG[ ]	/* RoundToGrid */\012MIAP[1]	/* MoveIndirectAbsPt */\012CALL[ ]	/* CallFunction */\012SRP1[ ]	/* SetRefPoint1 */\012SVTCA[0]	/* SetFreedomAndProjectionVectorToAxis */\012SHP[1]	/* ShiftPointByLastPoint */\012SRP1[ ]	/* SetRefPoint1 */\012SVTCA[1]	/* SetFreedomAndProjectionVectorToAxis */\012SHP[1]	/* ShiftPointByLastPoint */\012SRP2[ ]	/* SetRefPoint2 */\012IP[ ]	/* InterpolatePts */\012IP[ ]	/* InterpolatePts */\012SRP1[ ]	/* SetRefPoint1 */\012SHP[1]	/* ShiftPointByLastPoint */\012IUP[1]	/* InterpolateUntPts */\012IUP[0]	/* InterpolateUntPts */";
};
width = 580;
},
{
anchors = (
{
name = bottom;
position = "{244, -78}";
},
{
name = top;
position = "{215, 556}";
}
);
layerId = "410295A1-92BC-4707-ABFC-13885E60878B";
paths = (
{
closed = 1;
nodes = (
"482 0 LINE",
"482 20 LINE",
"445 57 OFFCURVE",
"431 95 OFFCURVE",
"402 256 CURVE SMOOTH",
"383 363 OFFCURVE",
"369 417 OFFCURVE",
"331 451 CURVE SMOOTH",
"303 476 OFFCURVE",
"270 489 OFFCURVE",
"228 489 CURVE SMOOTH",
"173 489 OFFCURVE",
"125 470 OFFCURVE",
"73 437 CURVE",
"85 416 LINE",
"142 450 OFFCURVE",
"181 465 OFFCURVE",
"225 465 CURVE SMOOTH",
"338 465 OFFCURVE",
"356 377 OFFCURVE",
"377 259 CURVE SMOOTH",
"394 162 OFFCURVE",
"409 78 OFFCURVE",
"447 24 CURVE",
"-5 24 LINE SMOOTH",
"-8 24 OFFCURVE",
"-10 23 OFFCURVE",
"-10 20 CURVE SMOOTH",
"-10 5 LINE SMOOTH",
"-10 2 OFFCURVE",
"-8 0 OFFCURVE",
"-5 0 CURVE SMOOTH"
);
}
);
width = 547;
},
{
anchors = (
{
name = bottom;
position = "{244, -78}";
},
{
name = top;
position = "{205, 593}";
}
);
layerId = "DCD2D043-4E01-4B5D-9248-443A06E88532";
paths = (
{
closed = 1;
nodes = (
"570 0 LINE",
"570 149 LINE",
"543 178 OFFCURVE",
"520 244 OFFCURVE",
"505 317 CURVE SMOOTH",
"482 427 OFFCURVE",
"428 496 OFFCURVE",
"341 517 CURVE SMOOTH",
"311 524 OFFCURVE",
"288 526 OFFCURVE",
"263 526 CURVE SMOOTH",
"169 526 OFFCURVE",
"91 495 OFFCURVE",
"30 467 CURVE",
"82 327 LINE",
"123 351 OFFCURVE",
"167 364 OFFCURVE",
"207 364 CURVE SMOOTH",
"263 364 OFFCURVE",
"307 341 OFFCURVE",
"326 258 CURVE SMOOTH",
"336 214 OFFCURVE",
"351 172 OFFCURVE",
"374 148 CURVE",
"-5 148 LINE SMOOTH",
"-8 148 OFFCURVE",
"-10 147 OFFCURVE",
"-10 144 CURVE SMOOTH",
"-10 5 LINE SMOOTH",
"-10 2 OFFCURVE",
"-8 0 OFFCURVE",
"-5 0 CURVE SMOOTH"
);
}
);
width = 635;
}
);
note = uni062D.init;
},
{
glyphname = "dal-ar";
lastChange = "2021-05-30 08:35:42 +0000";
layers = (
{
anchors = (
{
name = bottom;
position = "{220, -78}";
},
{
name = top;
position = "{146, 635}";
}
);
layerId = "307C4A58-79B8-4138-817C-FBEE21722E1A";
paths = (
{
closed = 1;
nodes = (
"45 0 LINE",
"530 0 LINE",
"530 116 LINE",
"482 359 OFFCURVE",
"377 504 OFFCURVE",
"198 576 CURVE",
"142 436 LINE",
"230 400 OFFCURVE",
"289 345 OFFCURVE",
"329 269 CURVE SMOOTH",
"349 231 OFFCURVE",
"365 181 OFFCURVE",
"379 120 CURVE",
"45 120 LINE"
);
}
);
userData = {
assembly = "NPUSHB[ ]	/* 17 values pushed */\0121 10 10 5 0 3 12 13 9 0 11 0 70 89 6 11 18 \012SVTCA[0]	/* SetFreedomAndProjectionVectorToAxis */\012MIAP[1]	/* MoveIndirectAbsPt */\012MDRP[00100]	/* MoveDirectRelPt */\012CALL[ ]	/* CallFunction */\012SRP1[ ]	/* SetRefPoint1 */\012SVTCA[0]	/* SetFreedomAndProjectionVectorToAxis */\012SHP[1]	/* ShiftPointByLastPoint */\012SRP1[ ]	/* SetRefPoint1 */\012SRP2[ ]	/* SetRefPoint2 */\012SVTCA[1]	/* SetFreedomAndProjectionVectorToAxis */\012SLOOP[ ]	/* SetLoopVariable */\012IP[ ]	/* InterpolatePts */\012SRP1[ ]	/* SetRefPoint1 */\012SHP[1]	/* ShiftPointByLastPoint */\012IUP[1]	/* InterpolateUntPts */\012IUP[0]	/* InterpolateUntPts */";
};
width = 595;
},
{
anchors = (
{
name = bottom;
position = "{220, -78}";
},
{
name = top;
position = "{171, 586}";
}
);
layerId = "15908E2C-AB74-4DC1-B0E7-8741EE8F4DA5";
paths = (
{
closed = 1;
nodes = (
"45 0 LINE",
"464 0 LINE",
"464 76 LINE",
"429 308 OFFCURVE",
"331 466 OFFCURVE",
"178 546 CURVE",
"146 470 LINE",
"244 404 OFFCURVE",
"307 322 OFFCURVE",
"345 215 CURVE SMOOTH",
"360 173 OFFCURVE",
"371 128 OFFCURVE",
"378 78 CURVE",
"45 78 LINE"
);
}
);
userData = {
assembly = "NPUSHB[ ]	/* 20 values pushed */\0121 9 9 4 0 3 11 12 10 0 70 89 10 18 5 4 70 89 5 16 \012SVTCA[0]	/* SetFreedomAndProjectionVectorToAxis */\012MIAP[1]	/* MoveIndirectAbsPt */\012CALL[ ]	/* CallFunction */\012SVTCA[0]	/* SetFreedomAndProjectionVectorToAxis */\012RTG[ ]	/* RoundToGrid */\012MIAP[1]	/* MoveIndirectAbsPt */\012CALL[ ]	/* CallFunction */\012SRP1[ ]	/* SetRefPoint1 */\012SRP2[ ]	/* SetRefPoint2 */\012SVTCA[1]	/* SetFreedomAndProjectionVectorToAxis */\012SLOOP[ ]	/* SetLoopVariable */\012IP[ ]	/* InterpolatePts */\012SRP1[ ]	/* SetRefPoint1 */\012SHP[1]	/* ShiftPointByLastPoint */\012IUP[1]	/* InterpolateUntPts */\012IUP[0]	/* InterpolateUntPts */";
};
width = 509;
},
{
anchors = (
{
name = bottom;
position = "{220, -78}";
},
{
name = top;
position = "{188, 592}";
}
);
layerId = "410295A1-92BC-4707-ABFC-13885E60878B";
paths = (
{
closed = 1;
nodes = (
"45 0 LINE",
"398 0 LINE",
"398 24 LINE",
"383 238 OFFCURVE",
"292 426 OFFCURVE",
"158 515 CURVE",
"148 494 LINE",
"248 422 OFFCURVE",
"309 314 OFFCURVE",
"348 179 CURVE SMOOTH",
"364 125 OFFCURVE",
"372 72 OFFCURVE",
"374 24 CURVE",
"45 24 LINE"
);
}
);
width = 443;
},
{
anchors = (
{
name = bottom;
position = "{275, -78}";
},
{
name = top;
position = "{206, 668}";
}
);
layerId = "DCD2D043-4E01-4B5D-9248-443A06E88532";
paths = (
{
closed = 1;
nodes = (
"45 0 LINE",
"574 0 LINE",
"574 143 LINE",
"521 373 OFFCURVE",
"428 521 OFFCURVE",
"234 596 CURVE",
"139 437 LINE",
"221 397 OFFCURVE",
"279 350 OFFCURVE",
"311 305 CURVE SMOOTH",
"336 269 OFFCURVE",
"361 217 OFFCURVE",
"380 148 CURVE",
"45 148 LINE"
);
}
);
width = 652;
}
);
note = uni062F;
unicode = 062F;
},
{
glyphname = "dal-ar.fina";
lastChange = "2021-05-30 08:35:58 +0000";
layers = (
{
anchors = (
{
name = bottom;
position = "{220, -78}";
},
{
name = top;
position = "{146, 635}";
}
);
layerId = "307C4A58-79B8-4138-817C-FBEE21722E1A";
paths = (
{
closed = 1;
nodes = (
"45 0 LINE",
"660 0 LINE SMOOTH",
"663 0 OFFCURVE",
"665 2 OFFCURVE",
"665 5 CURVE SMOOTH",
"665 116 LINE SMOOTH",
"665 119 OFFCURVE",
"663 120 OFFCURVE",
"660 120 CURVE SMOOTH",
"529 120 LINE",
"478 364 OFFCURVE",
"374 505 OFFCURVE",
"198 576 CURVE",
"142 436 LINE",
"230 400 OFFCURVE",
"289 345 OFFCURVE",
"329 269 CURVE SMOOTH",
"349 231 OFFCURVE",
"365 181 OFFCURVE",
"379 120 CURVE",
"45 120 LINE"
);
}
);
userData = {
assembly = "NPUSHB[ ]	/* 19 values pushed */\0121 9 9 5 0 3 17 12 18 9 0 16 0 70 89 16 18 5 6 \012SVTCA[0]	/* SetFreedomAndProjectionVectorToAxis */\012MDAP[1]	/* MoveDirectAbsPt */\012SHP[1]	/* ShiftPointByLastPoint */\012MIAP[1]	/* MoveIndirectAbsPt */\012CALL[ ]	/* CallFunction */\012SRP1[ ]	/* SetRefPoint1 */\012SVTCA[0]	/* SetFreedomAndProjectionVectorToAxis */\012SHP[1]	/* ShiftPointByLastPoint */\012SRP1[ ]	/* SetRefPoint1 */\012SVTCA[1]	/* SetFreedomAndProjectionVectorToAxis */\012SHP[1]	/* ShiftPointByLastPoint */\012SRP2[ ]	/* SetRefPoint2 */\012SLOOP[ ]	/* SetLoopVariable */\012IP[ ]	/* InterpolatePts */\012SRP1[ ]	/* SetRefPoint1 */\012SHP[1]	/* ShiftPointByLastPoint */\012IUP[1]	/* InterpolateUntPts */\012IUP[0]	/* InterpolateUntPts */";
};
width = 655;
},
{
anchors = (
{
name = bottom;
position = "{220, -78}";
},
{
name = top;
position = "{171, 586}";
}
);
layerId = "15908E2C-AB74-4DC1-B0E7-8741EE8F4DA5";
paths = (
{
closed = 1;
nodes = (
"45 0 LINE",
"574 0 LINE SMOOTH",
"577 0 OFFCURVE",
"579 2 OFFCURVE",
"579 5 CURVE SMOOTH",
"579 74 LINE SMOOTH",
"579 77 OFFCURVE",
"577 78 OFFCURVE",
"574 78 CURVE SMOOTH",
"463 78 LINE",
"430 306 OFFCURVE",
"331 465 OFFCURVE",
"178 546 CURVE",
"146 470 LINE",
"234 410 OFFCURVE",
"294 338 OFFCURVE",
"333 246 CURVE SMOOTH",
"354 197 OFFCURVE",
"369 141 OFFCURVE",
"378 78 CURVE",
"45 78 LINE"
);
}
);
userData = {
assembly = "NPUSHB[ ]	/* 19 values pushed */\0121 8 8 4 0 3 16 12 17 8 0 15 0 70 89 15 18 4 5 \012SVTCA[0]	/* SetFreedomAndProjectionVectorToAxis */\012MDAP[1]	/* MoveDirectAbsPt */\012SHP[1]	/* ShiftPointByLastPoint */\012MIAP[1]	/* MoveIndirectAbsPt */\012CALL[ ]	/* CallFunction */\012SRP1[ ]	/* SetRefPoint1 */\012SVTCA[0]	/* SetFreedomAndProjectionVectorToAxis */\012SHP[1]	/* ShiftPointByLastPoint */\012SRP1[ ]	/* SetRefPoint1 */\012SVTCA[1]	/* SetFreedomAndProjectionVectorToAxis */\012SHP[1]	/* ShiftPointByLastPoint */\012SRP2[ ]	/* SetRefPoint2 */\012SLOOP[ ]	/* SetLoopVariable */\012IP[ ]	/* InterpolatePts */\012SRP1[ ]	/* SetRefPoint1 */\012SHP[1]	/* ShiftPointByLastPoint */\012IUP[1]	/* InterpolateUntPts */\012IUP[0]	/* InterpolateUntPts */";
};
width = 569;
},
{
anchors = (
{
name = bottom;
position = "{220, -78}";
},
{
name = top;
position = "{198, 572}";
}
);
layerId = "410295A1-92BC-4707-ABFC-13885E60878B";
paths = (
{
closed = 1;
nodes = (
"45 0 LINE",
"488 0 LINE SMOOTH",
"491 0 OFFCURVE",
"493 2 OFFCURVE",
"493 5 CURVE SMOOTH",
"493 20 LINE SMOOTH",
"493 23 OFFCURVE",
"491 24 OFFCURVE",
"488 24 CURVE SMOOTH",
"398 24 LINE",
"383 234 OFFCURVE",
"294 425 OFFCURVE",
"158 515 CURVE",
"147 495 LINE",
"247 420 OFFCURVE",
"309 313 OFFCURVE",
"348 179 CURVE SMOOTH",
"364 125 OFFCURVE",
"371 72 OFFCURVE",
"374 24 CURVE",
"45 24 LINE"
);
}
);
width = 483;
},
{
anchors = (
{
name = bottom;
position = "{275, -78}";
},
{
name = top;
position = "{203, 668}";
}
);
layerId = "DCD2D043-4E01-4B5D-9248-443A06E88532";
paths = (
{
closed = 1;
nodes = (
"45 0 LINE",
"717 0 LINE SMOOTH",
"721 0 OFFCURVE",
"722 2 OFFCURVE",
"722 5 CURVE SMOOTH",
"722 144 LINE SMOOTH",
"722 147 OFFCURVE",
"721 148 OFFCURVE",
"717 148 CURVE SMOOTH",
"573 148 LINE",
"526 355 OFFCURVE",
"430 521 OFFCURVE",
"233 596 CURVE",
"139 437 LINE",
"221 397 OFFCURVE",
"279 350 OFFCURVE",
"311 305 CURVE SMOOTH",
"336 269 OFFCURVE",
"361 217 OFFCURVE",
"380 148 CURVE",
"45 148 LINE"
);
}
);
width = 712;
}
);
note = uni062F.fina;
},
{
glyphname = "reh-ar";
lastChange = "2021-05-30 08:37:30 +0000";
layers = (
{
anchors = (
{
name = bottom;
position = "{98, -293}";
},
{
name = top;
position = "{261, 564}";
}
);
layerId = "307C4A58-79B8-4138-817C-FBEE21722E1A";
paths = (
{
closed = 1;
nodes = (
"271 -240 OFFCURVE",
"353 -153 OFFCURVE",
"353 -16 CURVE SMOOTH",
"353 495 LINE",
"204 495 LINE",
"204 -9 LINE SMOOTH",
"204 -70 OFFCURVE",
"168 -116 OFFCURVE",
"115 -116 CURVE SMOOTH",
"78 -116 OFFCURVE",
"55 -110 OFFCURVE",
"20 -87 CURVE",
"-40 -184 LINE",
"23 -227 OFFCURVE",
"76 -240 OFFCURVE",
"144 -240 CURVE SMOOTH"
);
}
);
userData = {
assembly = "NPUSHB[ ]	/* 14 values pushed */\01213 10 10 17 3 16 11 15 0 7 71 89 0 27 \012SVTCA[0]	/* SetFreedomAndProjectionVectorToAxis */\012MIAP[1]	/* MoveIndirectAbsPt */\012CALL[ ]	/* CallFunction */\012SVTCA[0]	/* SetFreedomAndProjectionVectorToAxis */\012RTG[ ]	/* RoundToGrid */\012MIAP[1]	/* MoveIndirectAbsPt */\012SRP1[ ]	/* SetRefPoint1 */\012SVTCA[1]	/* SetFreedomAndProjectionVectorToAxis */\012SHP[1]	/* ShiftPointByLastPoint */\012SRP2[ ]	/* SetRefPoint2 */\012IP[ ]	/* InterpolatePts */\012SRP1[ ]	/* SetRefPoint1 */\012SHP[1]	/* ShiftPointByLastPoint */\012IUP[1]	/* InterpolateUntPts */\012IUP[0]	/* InterpolateUntPts */";
};
width = 438;
},
{
anchors = (
{
name = bottom;
position = "{98, -293}";
},
{
name = top;
position = "{173, 540}";
}
);
layerId = "15908E2C-AB74-4DC1-B0E7-8741EE8F4DA5";
paths = (
{
closed = 1;
nodes = (
"177 -240 OFFCURVE",
"240 -159 OFFCURVE",
"240 -24 CURVE SMOOTH",
"240 485 LINE",
"156 485 LINE",
"156 -29 LINE SMOOTH",
"156 -109 OFFCURVE",
"120 -162 OFFCURVE",
"60 -162 CURVE SMOOTH",
"36 -162 OFFCURVE",
"18 -160 OFFCURVE",
"-14 -145 CURVE",
"-40 -212 LINE",
"-4 -231 OFFCURVE",
"30 -240 OFFCURVE",
"62 -240 CURVE SMOOTH"
);
}
);
userData = {
assembly = "NPUSHB[ ]	/* 14 values pushed */\0129 12 12 16 2 15 10 15 0 6 70 89 0 27 \012SVTCA[0]	/* SetFreedomAndProjectionVectorToAxis */\012MIAP[1]	/* MoveIndirectAbsPt */\012CALL[ ]	/* CallFunction */\012SVTCA[0]	/* SetFreedomAndProjectionVectorToAxis */\012RTG[ ]	/* RoundToGrid */\012MIAP[1]	/* MoveIndirectAbsPt */\012SRP1[ ]	/* SetRefPoint1 */\012SVTCA[1]	/* SetFreedomAndProjectionVectorToAxis */\012SHP[1]	/* ShiftPointByLastPoint */\012SRP2[ ]	/* SetRefPoint2 */\012IP[ ]	/* InterpolatePts */\012SRP1[ ]	/* SetRefPoint1 */\012SHP[1]	/* ShiftPointByLastPoint */\012IUP[1]	/* InterpolateUntPts */\012IUP[0]	/* InterpolateUntPts */";
};
width = 325;
},
{
anchors = (
{
name = bottom;
position = "{83, -293}";
},
{
name = top;
position = "{159, 551}";
}
);
layerId = "410295A1-92BC-4707-ABFC-13885E60878B";
paths = (
{
closed = 1;
nodes = (
"132 -241 OFFCURVE",
"176 -180 OFFCURVE",
"176 -53 CURVE SMOOTH",
"176 475 LINE",
"152 475 LINE",
"152 -58 LINE SMOOTH",
"152 -161 OFFCURVE",
"121 -217 OFFCURVE",
"44 -217 CURVE SMOOTH",
"14 -217 OFFCURVE",
"-8 -207 OFFCURVE",
"-20 -200 CURVE",
"-34 -220 LINE",
"-12 -232 OFFCURVE",
"11 -241 OFFCURVE",
"44 -241 CURVE SMOOTH"
);
}
);
width = 276;
},
{
anchors = (
{
name = bottom;
position = "{171, -323}";
},
{
name = top;
position = "{320, 580}";
}
);
layerId = "DCD2D043-4E01-4B5D-9248-443A06E88532";
paths = (
{
closed = 1;
nodes = (
"323 -261 OFFCURVE",
"428 -155 OFFCURVE",
"428 -11 CURVE SMOOTH",
"428 502 LINE",
"236 502 LINE",
"236 4 LINE SMOOTH",
"236 -45 OFFCURVE",
"196 -87 OFFCURVE",
"139 -87 CURVE SMOOTH",
"110 -87 OFFCURVE",
"73 -75 OFFCURVE",
"35 -53 CURVE",
"-32 -195 LINE",
"44 -246 OFFCURVE",
"106 -261 OFFCURVE",
"170 -261 CURVE SMOOTH"
);
}
);
width = 513;
}
);
note = uni0631;
unicode = 0631;
},
{
glyphname = "reh-ar.fina";
lastChange = "2021-05-30 08:37:35 +0000";
layers = (
{
anchors = (
{
name = bottom;
position = "{98, -293}";
},
{
name = top;
position = "{259, 561}";
}
);
layerId = "307C4A58-79B8-4138-817C-FBEE21722E1A";
paths = (
{
closed = 1;
nodes = (
"483 0 LINE SMOOTH",
"486 0 OFFCURVE",
"488 2 OFFCURVE",
"488 5 CURVE SMOOTH",
"488 116 LINE SMOOTH",
"488 119 OFFCURVE",
"486 120 OFFCURVE",
"483 120 CURVE SMOOTH",
"353 120 LINE",
"353 495 LINE",
"204 495 LINE",
"204 -9 LINE SMOOTH",
"204 -70 OFFCURVE",
"168 -116 OFFCURVE",
"115 -116 CURVE SMOOTH",
"78 -116 OFFCURVE",
"55 -110 OFFCURVE",
"20 -87 CURVE",
"-40 -184 LINE",
"23 -227 OFFCURVE",
"76 -240 OFFCURVE",
"144 -240 CURVE SMOOTH",
"271 -240 OFFCURVE",
"353 -153 OFFCURVE",
"353 -16 CURVE SMOOTH",
"353 0 LINE"
);
}
);
userData = {
assembly = "NPUSHB[ ]	/* 24 values pushed */\01223 7 7 20 20 24 0 25 13 24 21 15 10 17 71 89 10 27 6 23 70 89 6 18 \012SVTCA[0]	/* SetFreedomAndProjectionVectorToAxis */\012MIAP[1]	/* MoveIndirectAbsPt */\012CALL[ ]	/* CallFunction */\012SVTCA[0]	/* SetFreedomAndProjectionVectorToAxis */\012RTG[ ]	/* RoundToGrid */\012MIAP[1]	/* MoveIndirectAbsPt */\012CALL[ ]	/* CallFunction */\012SVTCA[0]	/* SetFreedomAndProjectionVectorToAxis */\012RTG[ ]	/* RoundToGrid */\012MIAP[1]	/* MoveIndirectAbsPt */\012SRP1[ ]	/* SetRefPoint1 */\012SVTCA[1]	/* SetFreedomAndProjectionVectorToAxis */\012SHP[1]	/* ShiftPointByLastPoint */\012SRP1[ ]	/* SetRefPoint1 */\012SHP[1]	/* ShiftPointByLastPoint */\012SRP2[ ]	/* SetRefPoint2 */\012IP[ ]	/* InterpolatePts */\012SRP1[ ]	/* SetRefPoint1 */\012SHP[1]	/* ShiftPointByLastPoint */\012SRP1[ ]	/* SetRefPoint1 */\012SHP[1]	/* ShiftPointByLastPoint */\012IUP[1]	/* InterpolateUntPts */\012IUP[0]	/* InterpolateUntPts */";
};
width = 478;
},
{
anchors = (
{
name = bottom;
position = "{98, -293}";
},
{
name = top;
position = "{183, 548}";
}
);
layerId = "15908E2C-AB74-4DC1-B0E7-8741EE8F4DA5";
paths = (
{
closed = 1;
nodes = (
"364 0 LINE SMOOTH",
"367 0 OFFCURVE",
"369 2 OFFCURVE",
"369 5 CURVE SMOOTH",
"369 74 LINE SMOOTH",
"369 77 OFFCURVE",
"367 78 OFFCURVE",
"364 78 CURVE SMOOTH",
"240 78 LINE",
"240 485 LINE",
"156 485 LINE",
"156 -29 LINE SMOOTH",
"156 -109 OFFCURVE",
"120 -162 OFFCURVE",
"60 -162 CURVE SMOOTH",
"36 -162 OFFCURVE",
"18 -160 OFFCURVE",
"-14 -145 CURVE",
"-40 -212 LINE",
"-4 -231 OFFCURVE",
"30 -240 OFFCURVE",
"62 -240 CURVE SMOOTH",
"177 -240 OFFCURVE",
"240 -159 OFFCURVE",
"240 -24 CURVE SMOOTH",
"240 0 LINE"
);
}
);
userData = {
assembly = "NPUSHB[ ]	/* 24 values pushed */\01216 1 1 13 13 23 19 24 6 23 14 15 4 10 70 89 4 27 0 16 70 89 0 18 \012SVTCA[0]	/* SetFreedomAndProjectionVectorToAxis */\012MIAP[1]	/* MoveIndirectAbsPt */\012CALL[ ]	/* CallFunction */\012SVTCA[0]	/* SetFreedomAndProjectionVectorToAxis */\012RTG[ ]	/* RoundToGrid */\012MIAP[1]	/* MoveIndirectAbsPt */\012CALL[ ]	/* CallFunction */\012SVTCA[0]	/* SetFreedomAndProjectionVectorToAxis */\012RTG[ ]	/* RoundToGrid */\012MIAP[1]	/* MoveIndirectAbsPt */\012SRP1[ ]	/* SetRefPoint1 */\012SVTCA[1]	/* SetFreedomAndProjectionVectorToAxis */\012SHP[1]	/* ShiftPointByLastPoint */\012SRP1[ ]	/* SetRefPoint1 */\012SHP[1]	/* ShiftPointByLastPoint */\012SRP2[ ]	/* SetRefPoint2 */\012IP[ ]	/* InterpolatePts */\012SRP1[ ]	/* SetRefPoint1 */\012SHP[1]	/* ShiftPointByLastPoint */\012SRP1[ ]	/* SetRefPoint1 */\012SHP[1]	/* ShiftPointByLastPoint */\012IUP[1]	/* InterpolateUntPts */\012IUP[0]	/* InterpolateUntPts */";
};
width = 359;
},
{
anchors = (
{
name = bottom;
position = "{64, -293}";
},
{
name = top;
position = "{159, 551}";
}
);
layerId = "410295A1-92BC-4707-ABFC-13885E60878B";
paths = (
{
closed = 1;
nodes = (
"293 0 LINE SMOOTH",
"296 0 OFFCURVE",
"298 2 OFFCURVE",
"298 5 CURVE SMOOTH",
"298 20 LINE SMOOTH",
"298 23 OFFCURVE",
"296 24 OFFCURVE",
"293 24 CURVE SMOOTH",
"177 24 LINE",
"177 475 LINE",
"153 475 LINE",
"153 -58 LINE SMOOTH",
"153 -161 OFFCURVE",
"122 -217 OFFCURVE",
"45 -217 CURVE SMOOTH",
"15 -217 OFFCURVE",
"-7 -207 OFFCURVE",
"-19 -200 CURVE",
"-33 -220 LINE",
"-11 -232 OFFCURVE",
"12 -241 OFFCURVE",
"45 -241 CURVE SMOOTH",
"133 -241 OFFCURVE",
"177 -180 OFFCURVE",
"177 -53 CURVE SMOOTH",
"177 0 LINE"
);
}
);
width = 288;
},
{
anchors = (
{
name = bottom;
position = "{171, -323}";
},
{
name = top;
position = "{310, 570}";
}
);
layerId = "DCD2D043-4E01-4B5D-9248-443A06E88532";
paths = (
{
closed = 1;
nodes = (
"562 0 LINE SMOOTH",
"566 0 OFFCURVE",
"567 2 OFFCURVE",
"567 5 CURVE SMOOTH",
"567 144 LINE SMOOTH",
"567 147 OFFCURVE",
"566 148 OFFCURVE",
"562 148 CURVE SMOOTH",
"428 148 LINE",
"428 502 LINE",
"236 502 LINE",
"236 4 LINE SMOOTH",
"236 -45 OFFCURVE",
"196 -87 OFFCURVE",
"140 -87 CURVE SMOOTH",
"110 -87 OFFCURVE",
"73 -75 OFFCURVE",
"35 -53 CURVE",
"-32 -195 LINE",
"44 -246 OFFCURVE",
"106 -261 OFFCURVE",
"168 -261 CURVE SMOOTH",
"323 -261 OFFCURVE",
"428 -155 OFFCURVE",
"428 -11 CURVE SMOOTH",
"428 0 LINE"
);
}
);
width = 557;
}
);
note = uni0631.fina;
},
{
glyphname = "rehStroke-ar";
lastChange = "2021-05-28 09:19:31 +0000";
layers = (
{
anchors = (
{
name = bottom;
position = "{98, -391}";
},
{
name = top;
position = "{205, 566}";
}
);
layerId = "307C4A58-79B8-4138-817C-FBEE21722E1A";
paths = (
{
closed = 1;
nodes = (
"34 -148 LINE",
"139 -148 LINE",
"116 -185 OFFCURVE",
"84 -222 OFFCURVE",
"43 -257 CURVE",
"133 -360 LINE",
"224 -281 OFFCURVE",
"271 -216 OFFCURVE",
"299 -148 CURVE",
"386 -148 LINE",
"386 -61 LINE",
"323 -61 LINE",
"324 -49 OFFCURVE",
"325 -28 OFFCURVE",
"325 -16 CURVE SMOOTH",
"325 495 LINE",
"176 495 LINE",
"176 -18 LINE SMOOTH",
"176 -29 OFFCURVE",
"175 -50 OFFCURVE",
"173 -61 CURVE",
"34 -61 LINE"
);
}
);
userData = {
assembly = "NPUSHB[ ]	/* 25 values pushed */\01210 6 6 16 3 0 14 3 9 4 19 18 10 7 7 16 0 1 1 1 1 5 13 5 15 \012SVTCA[0]	/* SetFreedomAndProjectionVectorToAxis */\012MIAP[1]	/* MoveIndirectAbsPt */\012MDAP[1]	/* MoveDirectAbsPt */\012SRP2[ ]	/* SetRefPoint2 */\012IP[ ]	/* InterpolatePts */\012MDAP[1]	/* MoveDirectAbsPt */\012DELTAP1[ ]	/* DeltaExceptionP1 */\012MDRP[01101]	/* MoveDirectRelPt */\012SHP[1]	/* ShiftPointByLastPoint */\012MDAP[1]	/* MoveDirectAbsPt */\012MDRP[01101]	/* MoveDirectRelPt */\012SRP1[ ]	/* SetRefPoint1 */\012SRP2[ ]	/* SetRefPoint2 */\012SVTCA[1]	/* SetFreedomAndProjectionVectorToAxis */\012SLOOP[ ]	/* SetLoopVariable */\012IP[ ]	/* InterpolatePts */\012SRP1[ ]	/* SetRefPoint1 */\012SHP[1]	/* ShiftPointByLastPoint */\012SHP[1]	/* ShiftPointByLastPoint */\012SRP1[ ]	/* SetRefPoint1 */\012SHP[1]	/* ShiftPointByLastPoint */\012IUP[1]	/* InterpolateUntPts */\012IUP[0]	/* InterpolateUntPts */";
};
width = 438;
},
{
anchors = (
{
name = bottom;
position = "{98, -361}";
},
{
name = top;
position = "{176, 547}";
}
);
layerId = "15908E2C-AB74-4DC1-B0E7-8741EE8F4DA5";
paths = (
{
closed = 1;
nodes = (
"34 -148 LINE",
"147 -148 LINE",
"128 -179 OFFCURVE",
"93 -216 OFFCURVE",
"43 -257 CURVE",
"98 -320 LINE",
"166 -259 OFFCURVE",
"213 -207 OFFCURVE",
"238 -148 CURVE",
"316 -148 LINE",
"316 -91 LINE",
"256 -91 LINE",
"259 -79 OFFCURVE",
"260 -63 OFFCURVE",
"260 -44 CURVE SMOOTH",
"260 485 LINE",
"176 485 LINE",
"176 -49 LINE SMOOTH",
"176 -63 OFFCURVE",
"174 -77 OFFCURVE",
"171 -91 CURVE",
"34 -91 LINE"
);
}
);
userData = {
assembly = "NPUSHB[ ]	/* 28 values pushed */\0126 3 9 3 17 15 0 5 19 20 8 11 72 89 8 8 1 1 17 72 89 1 1 5 14 28 5 15 \012SVTCA[0]	/* SetFreedomAndProjectionVectorToAxis */\012MIAP[1]	/* MoveIndirectAbsPt */\012MIAP[1]	/* MoveIndirectAbsPt */\012SRP2[ ]	/* SetRefPoint2 */\012IP[ ]	/* InterpolatePts */\012MDAP[1]	/* MoveDirectAbsPt */\012CALL[ ]	/* CallFunction */\012SRP1[ ]	/* SetRefPoint1 */\012SVTCA[0]	/* SetFreedomAndProjectionVectorToAxis */\012SHP[1]	/* ShiftPointByLastPoint */\012RTG[ ]	/* RoundToGrid */\012MDAP[1]	/* MoveDirectAbsPt */\012CALL[ ]	/* CallFunction */\012SRP1[ ]	/* SetRefPoint1 */\012SRP2[ ]	/* SetRefPoint2 */\012SVTCA[1]	/* SetFreedomAndProjectionVectorToAxis */\012SLOOP[ ]	/* SetLoopVariable */\012IP[ ]	/* InterpolatePts */\012SRP1[ ]	/* SetRefPoint1 */\012SHP[1]	/* ShiftPointByLastPoint */\012IUP[1]	/* InterpolateUntPts */\012IUP[0]	/* InterpolateUntPts */";
};
width = 325;
},
{
anchors = (
{
name = bottom;
position = "{106, -321}";
},
{
name = top;
position = "{126, 548}";
}
);
layerId = "410295A1-92BC-4707-ABFC-13885E60878B";
paths = (
{
closed = 1;
nodes = (
"42 -142 LINE",
"163 -142 LINE",
"150 -170 OFFCURVE",
"113 -205 OFFCURVE",
"74 -237 CURVE",
"87 -254 LINE",
"130 -223 OFFCURVE",
"169 -182 OFFCURVE",
"189 -142 CURVE",
"240 -142 LINE",
"240 -120 LINE",
"198 -120 LINE",
"200 -113 OFFCURVE",
"202 -100 OFFCURVE",
"202 -79 CURVE SMOOTH",
"202 475 LINE",
"178 475 LINE",
"178 -79 LINE SMOOTH",
"178 -100 OFFCURVE",
"176 -109 OFFCURVE",
"173 -120 CURVE",
"42 -120 LINE"
);
}
);
width = 250;
},
{
anchors = (
{
name = bottom;
position = "{153, -430}";
},
{
name = top;
position = "{224, 579}";
}
);
layerId = "DCD2D043-4E01-4B5D-9248-443A06E88532";
paths = (
{
closed = 1;
nodes = (
"34 -148 LINE",
"134 -148 LINE",
"110 -189 OFFCURVE",
"78 -224 OFFCURVE",
"43 -257 CURVE",
"156 -387 LINE",
"262 -296 OFFCURVE",
"310 -222 OFFCURVE",
"340 -148 CURVE",
"433 -148 LINE",
"433 -44 LINE",
"368 -44 LINE",
"368 -32 OFFCURVE",
"368 -4 OFFCURVE",
"368 3 CURVE SMOOTH",
"368 502 LINE",
"177 502 LINE",
"177 3 LINE SMOOTH",
"177 -7 OFFCURVE",
"175 -36 OFFCURVE",
"174 -44 CURVE",
"34 -44 LINE"
);
}
);
width = 493;
}
);
note = uni075B;
unicode = 075B;
},
{
glyphname = "rehStroke-ar.fina";
lastChange = "2021-05-30 08:40:23 +0000";
layers = (
{
anchors = (
{
name = bottom;
position = "{127, -391}";
},
{
name = top;
position = "{265, 566}";
}
);
layerId = "307C4A58-79B8-4138-817C-FBEE21722E1A";
paths = (
{
closed = 1;
nodes = (
"353 495 LINE",
"204 495 LINE",
"204 -18 LINE SMOOTH",
"204 -29 OFFCURVE",
"203 -50 OFFCURVE",
"201 -61 CURVE",
"62 -61 LINE",
"62 -148 LINE",
"167 -148 LINE",
"146 -185 OFFCURVE",
"114 -221 OFFCURVE",
"71 -257 CURVE",
"161 -360 LINE",
"246 -287 OFFCURVE",
"298 -220 OFFCURVE",
"327 -148 CURVE",
"414 -148 LINE",
"414 -61 LINE",
"351 -61 LINE",
"352 -49 OFFCURVE",
"353 -28 OFFCURVE",
"353 -16 CURVE SMOOTH",
"353 0 LINE",
"483 0 LINE SMOOTH",
"486 0 OFFCURVE",
"488 2 OFFCURVE",
"488 5 CURVE SMOOTH",
"488 116 LINE SMOOTH",
"488 119 OFFCURVE",
"486 120 OFFCURVE",
"483 120 CURVE SMOOTH",
"353 120 LINE"
);
}
);
userData = {
assembly = "NPUSHB[ ]	/* 36 values pushed */\01212 0 7 7 18 23 11 23 16 20 4 26 3 27 25 15 12 9 9 18 64 0 21 1 9 3 21 21 7 15 7 0 70 89 7 18 \012SVTCA[0]	/* SetFreedomAndProjectionVectorToAxis */\012MIAP[1]	/* MoveIndirectAbsPt */\012CALL[ ]	/* CallFunction */\012SVTCA[0]	/* SetFreedomAndProjectionVectorToAxis */\012RTG[ ]	/* RoundToGrid */\012MDAP[1]	/* MoveDirectAbsPt */\012SRP2[ ]	/* SetRefPoint2 */\012IP[ ]	/* InterpolatePts */\012MDAP[1]	/* MoveDirectAbsPt */\012SDS[ ]	/* SetDeltaShiftInGState */\012SDB[ ]	/* SetDeltaBaseInGState */\012DELTAP1[ ]	/* DeltaExceptionP1 */\012SMD[ ]	/* SetMinimumDistance */\012MDRP[01101]	/* MoveDirectRelPt */\012SHP[1]	/* ShiftPointByLastPoint */\012MDAP[1]	/* MoveDirectAbsPt */\012MDRP[01101]	/* MoveDirectRelPt */\012MIAP[1]	/* MoveIndirectAbsPt */\012SRP1[ ]	/* SetRefPoint1 */\012SVTCA[1]	/* SetFreedomAndProjectionVectorToAxis */\012SHP[1]	/* ShiftPointByLastPoint */\012SRP2[ ]	/* SetRefPoint2 */\012SLOOP[ ]	/* SetLoopVariable */\012IP[ ]	/* InterpolatePts */\012SRP1[ ]	/* SetRefPoint1 */\012SHP[1]	/* ShiftPointByLastPoint */\012SHP[1]	/* ShiftPointByLastPoint */\012SRP1[ ]	/* SetRefPoint1 */\012SHP[1]	/* ShiftPointByLastPoint */\012SHP[1]	/* ShiftPointByLastPoint */\012IUP[1]	/* InterpolateUntPts */\012IUP[0]	/* InterpolateUntPts */";
};
width = 478;
},
{
anchors = (
{
name = bottom;
position = "{98, -361}";
},
{
name = top;
position = "{176, 547}";
}
);
layerId = "15908E2C-AB74-4DC1-B0E7-8741EE8F4DA5";
paths = (
{
closed = 1;
nodes = (
"240 485 LINE",
"156 485 LINE",
"156 -49 LINE SMOOTH",
"156 -63 OFFCURVE",
"154 -77 OFFCURVE",
"151 -91 CURVE",
"14 -91 LINE",
"14 -148 LINE",
"127 -148 LINE",
"108 -179 OFFCURVE",
"73 -216 OFFCURVE",
"23 -257 CURVE",
"78 -320 LINE",
"146 -259 OFFCURVE",
"193 -207 OFFCURVE",
"218 -148 CURVE",
"296 -148 LINE",
"296 -91 LINE",
"236 -91 LINE",
"239 -77 OFFCURVE",
"240 -61 OFFCURVE",
"240 -44 CURVE SMOOTH",
"240 0 LINE",
"364 0 LINE SMOOTH",
"367 0 OFFCURVE",
"369 2 OFFCURVE",
"369 5 CURVE SMOOTH",
"369 74 LINE SMOOTH",
"369 77 OFFCURVE",
"367 78 OFFCURVE",
"364 78 CURVE SMOOTH",
"240 78 LINE"
);
}
);
userData = {
assembly = "NPUSHB[ ]	/* 37 values pushed */\0122 9 9 26 13 26 21 19 23 5 27 5 28 23 22 72 89 23 23 13 13 14 72 89 13 13 9 18 28 9 2 70 89 9 18 1 15 \012SVTCA[0]	/* SetFreedomAndProjectionVectorToAxis */\012MIAP[1]	/* MoveIndirectAbsPt */\012MIAP[1]	/* MoveIndirectAbsPt */\012CALL[ ]	/* CallFunction */\012SVTCA[0]	/* SetFreedomAndProjectionVectorToAxis */\012RTG[ ]	/* RoundToGrid */\012MIAP[1]	/* MoveIndirectAbsPt */\012SRP2[ ]	/* SetRefPoint2 */\012IP[ ]	/* InterpolatePts */\012MDAP[1]	/* MoveDirectAbsPt */\012CALL[ ]	/* CallFunction */\012SRP1[ ]	/* SetRefPoint1 */\012SVTCA[0]	/* SetFreedomAndProjectionVectorToAxis */\012SHP[1]	/* ShiftPointByLastPoint */\012RTG[ ]	/* RoundToGrid */\012MDAP[1]	/* MoveDirectAbsPt */\012CALL[ ]	/* CallFunction */\012SRP1[ ]	/* SetRefPoint1 */\012SVTCA[1]	/* SetFreedomAndProjectionVectorToAxis */\012SHP[1]	/* ShiftPointByLastPoint */\012SRP2[ ]	/* SetRefPoint2 */\012SLOOP[ ]	/* SetLoopVariable */\012IP[ ]	/* InterpolatePts */\012SRP1[ ]	/* SetRefPoint1 */\012SHP[1]	/* ShiftPointByLastPoint */\012SRP1[ ]	/* SetRefPoint1 */\012SHP[1]	/* ShiftPointByLastPoint */\012IUP[1]	/* InterpolateUntPts */\012IUP[0]	/* InterpolateUntPts */";
};
width = 359;
},
{
anchors = (
{
name = bottom;
position = "{64, -331}";
},
{
name = top;
position = "{146, 558}";
}
);
layerId = "410295A1-92BC-4707-ABFC-13885E60878B";
paths = (
{
closed = 1;
nodes = (
"160 475 LINE",
"136 475 LINE",
"136 -79 LINE SMOOTH",
"136 -100 OFFCURVE",
"134 -109 OFFCURVE",
"131 -120 CURVE",
"11 -120 LINE",
"11 -142 LINE",
"121 -142 LINE",
"108 -170 OFFCURVE",
"71 -205 OFFCURVE",
"32 -237 CURVE",
"45 -254 LINE",
"88 -223 OFFCURVE",
"127 -182 OFFCURVE",
"147 -142 CURVE",
"198 -142 LINE",
"198 -120 LINE",
"156 -120 LINE",
"158 -113 OFFCURVE",
"160 -99 OFFCURVE",
"160 -79 CURVE SMOOTH",
"160 0 LINE",
"297 0 LINE SMOOTH",
"300 0 OFFCURVE",
"302 2 OFFCURVE",
"302 5 CURVE SMOOTH",
"302 20 LINE SMOOTH",
"302 23 OFFCURVE",
"300 24 OFFCURVE",
"297 24 CURVE SMOOTH",
"160 24 LINE"
);
}
);
width = 292;
},
{
anchors = (
{
name = bottom;
position = "{216, -431}";
},
{
name = top;
position = "{323, 579}";
}
);
layerId = "DCD2D043-4E01-4B5D-9248-443A06E88532";
paths = (
{
closed = 1;
nodes = (
"428 502 LINE",
"237 502 LINE",
"237 3 LINE SMOOTH",
"237 -7 OFFCURVE",
"235 -36 OFFCURVE",
"234 -44 CURVE",
"94 -44 LINE",
"94 -148 LINE",
"194 -148 LINE",
"171 -188 OFFCURVE",
"141 -225 OFFCURVE",
"103 -257 CURVE",
"216 -387 LINE",
"313 -305 OFFCURVE",
"368 -229 OFFCURVE",
"400 -148 CURVE",
"493 -148 LINE",
"493 -44 LINE",
"428 -44 LINE",
"428 -34 OFFCURVE",
"428 -18 OFFCURVE",
"428 -11 CURVE SMOOTH",
"428 0 LINE",
"562 0 LINE SMOOTH",
"566 0 OFFCURVE",
"567 2 OFFCURVE",
"567 5 CURVE SMOOTH",
"567 144 LINE SMOOTH",
"567 147 OFFCURVE",
"566 148 OFFCURVE",
"562 148 CURVE SMOOTH",
"428 148 LINE"
);
}
);
width = 557;
}
);
note = uni075B.fina;
},
{
glyphname = "seen-ar";
lastChange = "2021-05-28 09:21:13 +0000";
layers = (
{
anchors = (
{
name = bottom;
position = "{879, -78}";
},
{
name = top;
position = "{920, 467}";
}
);
layerId = "307C4A58-79B8-4138-817C-FBEE21722E1A";
paths = (
{
closed = 1;
nodes = (
"1326 0 LINE",
"1326 495 LINE",
"1177 495 LINE",
"1177 120 LINE",
"1115 120 LINE SMOOTH",
"1064 120 OFFCURVE",
"1036 135 OFFCURVE",
"1003 179 CURVE",
"1005 193 OFFCURVE",
"1006 208 OFFCURVE",
"1006 224 CURVE SMOOTH",
"1006 417 LINE",
"857 417 LINE",
"857 236 LINE SMOOTH",
"857 156 OFFCURVE",
"828 120 OFFCURVE",
"761 120 CURVE SMOOTH",
"676 120 LINE",
"676 417 LINE",
"527 417 LINE",
"527 39 LINE SMOOTH",
"527 -62 OFFCURVE",
"480 -120 OFFCURVE",
"377 -120 CURVE SMOOTH",
"347 -120 LINE SMOOTH",
"267 -120 OFFCURVE",
"214 -58 OFFCURVE",
"214 39 CURVE SMOOTH",
"214 107 OFFCURVE",
"227 190 OFFCURVE",
"248 261 CURVE",
"116 261 LINE",
"84 198 OFFCURVE",
"65 116 OFFCURVE",
"65 40 CURVE SMOOTH",
"65 -126 OFFCURVE",
"166 -240 OFFCURVE",
"337 -240 CURVE SMOOTH",
"381 -240 LINE SMOOTH",
"565 -240 OFFCURVE",
"663 -160 OFFCURVE",
"675 0 CURVE",
"794 0 LINE SMOOTH",
"868 0 OFFCURVE",
"924 25 OFFCURVE",
"961 75 CURVE",
"1009 25 OFFCURVE",
"1061 0 OFFCURVE",
"1118 0 CURVE SMOOTH"
);
}
);
userData = {
assembly = "NPUSHB[ ]	/* 43 values pushed */\01212 15 18 6 3 45 21 42 35 28 28 42 3 15 4 47 46 24 38 70 89 24 27 11 45 21 45 70 89 4 43 18 21 31 43 31 43 13 16 21 18 13 15 \012SVTCA[0]	/* SetFreedomAndProjectionVectorToAxis */\012MIAP[1]	/* MoveIndirectAbsPt */\012MIAP[1]	/* MoveIndirectAbsPt */\012SHP[1]	/* ShiftPointByLastPoint */\012SRP2[ ]	/* SetRefPoint2 */\012IP[ ]	/* InterpolatePts */\012IP[ ]	/* InterpolatePts */\012MDAP[1]	/* MoveDirectAbsPt */\012MDAP[1]	/* MoveDirectAbsPt */\012SRP2[ ]	/* SetRefPoint2 */\012IP[ ]	/* InterpolatePts */\012SRP1[ ]	/* SetRefPoint1 */\012SHP[1]	/* ShiftPointByLastPoint */\012CALL[ ]	/* CallFunction */\012SRP1[ ]	/* SetRefPoint1 */\012SVTCA[0]	/* SetFreedomAndProjectionVectorToAxis */\012SHP[1]	/* ShiftPointByLastPoint */\012RTG[ ]	/* RoundToGrid */\012MIAP[1]	/* MoveIndirectAbsPt */\012CALL[ ]	/* CallFunction */\012SRP1[ ]	/* SetRefPoint1 */\012SRP2[ ]	/* SetRefPoint2 */\012SVTCA[1]	/* SetFreedomAndProjectionVectorToAxis */\012SLOOP[ ]	/* SetLoopVariable */\012IP[ ]	/* InterpolatePts */\012SRP1[ ]	/* SetRefPoint1 */\012SHP[1]	/* ShiftPointByLastPoint */\012SRP1[ ]	/* SetRefPoint1 */\012SHP[1]	/* ShiftPointByLastPoint */\012SHP[1]	/* ShiftPointByLastPoint */\012SRP1[ ]	/* SetRefPoint1 */\012SHP[1]	/* ShiftPointByLastPoint */\012SHP[1]	/* ShiftPointByLastPoint */\012SRP1[ ]	/* SetRefPoint1 */\012SHP[1]	/* ShiftPointByLastPoint */\012IUP[1]	/* InterpolateUntPts */\012IUP[0]	/* InterpolateUntPts */";
};
width = 1411;
},
{
anchors = (
{
name = bottom;
position = "{820, -78}";
},
{
name = top;
position = "{832, 475}";
}
);
layerId = "15908E2C-AB74-4DC1-B0E7-8741EE8F4DA5";
paths = (
{
closed = 1;
nodes = (
"1157 0 LINE",
"1157 485 LINE",
"1072 485 LINE",
"1072 78 LINE",
"1011 78 LINE SMOOTH",
"951 78 OFFCURVE",
"914 97 OFFCURVE",
"881 156 CURVE",
"882 161 OFFCURVE",
"882 167 OFFCURVE",
"882 172 CURVE",
"882 407 LINE",
"797 407 LINE",
"797 194 LINE SMOOTH",
"797 125 OFFCURVE",
"759 78 OFFCURVE",
"695 78 CURVE SMOOTH",
"587 78 LINE",
"587 407 LINE",
"502 407 LINE",
"502 -3 LINE SMOOTH",
"502 -110 OFFCURVE",
"450 -162 OFFCURVE",
"334 -162 CURVE SMOOTH",
"285 -162 LINE SMOOTH",
"202 -162 OFFCURVE",
"155 -97 OFFCURVE",
"155 16 CURVE SMOOTH",
"155 116 OFFCURVE",
"166 195 OFFCURVE",
"189 252 CURVE",
"106 252 LINE",
"79 188 OFFCURVE",
"65 99 OFFCURVE",
"65 16 CURVE SMOOTH",
"65 -144 OFFCURVE",
"142 -240 OFFCURVE",
"266 -240 CURVE SMOOTH",
"338 -240 LINE SMOOTH",
"510 -240 OFFCURVE",
"587 -157 OFFCURVE",
"587 0 CURVE",
"704 0 LINE SMOOTH",
"771 0 OFFCURVE",
"819 28 OFFCURVE",
"850 69 CURVE",
"905 17 OFFCURVE",
"951 0 OFFCURVE",
"1011 0 CURVE SMOOTH"
);
}
);
userData = {
assembly = "NPUSHB[ ]	/* 43 values pushed */\01242 45 37 3 34 30 7 7 27 20 14 14 27 34 45 4 47 46 35 28 3 17 28 17 28 7 43 15 11 23 70 89 11 27 41 30 7 30 70 89 0 7 18 \012SVTCA[0]	/* SetFreedomAndProjectionVectorToAxis */\012MIAP[1]	/* MoveIndirectAbsPt */\012SHP[1]	/* ShiftPointByLastPoint */\012CALL[ ]	/* CallFunction */\012SRP1[ ]	/* SetRefPoint1 */\012SVTCA[0]	/* SetFreedomAndProjectionVectorToAxis */\012SHP[1]	/* ShiftPointByLastPoint */\012RTG[ ]	/* RoundToGrid */\012MIAP[1]	/* MoveIndirectAbsPt */\012CALL[ ]	/* CallFunction */\012SVTCA[0]	/* SetFreedomAndProjectionVectorToAxis */\012RTG[ ]	/* RoundToGrid */\012MIAP[1]	/* MoveIndirectAbsPt */\012SRP2[ ]	/* SetRefPoint2 */\012IP[ ]	/* InterpolatePts */\012IP[ ]	/* InterpolatePts */\012MDAP[1]	/* MoveDirectAbsPt */\012MDAP[1]	/* MoveDirectAbsPt */\012IP[ ]	/* InterpolatePts */\012SRP1[ ]	/* SetRefPoint1 */\012SHP[1]	/* ShiftPointByLastPoint */\012SRP1[ ]	/* SetRefPoint1 */\012SRP2[ ]	/* SetRefPoint2 */\012SVTCA[1]	/* SetFreedomAndProjectionVectorToAxis */\012SLOOP[ ]	/* SetLoopVariable */\012IP[ ]	/* InterpolatePts */\012SRP1[ ]	/* SetRefPoint1 */\012SHP[1]	/* ShiftPointByLastPoint */\012SRP1[ ]	/* SetRefPoint1 */\012SHP[1]	/* ShiftPointByLastPoint */\012SRP1[ ]	/* SetRefPoint1 */\012SHP[1]	/* ShiftPointByLastPoint */\012SRP1[ ]	/* SetRefPoint1 */\012SHP[1]	/* ShiftPointByLastPoint */\012SHP[1]	/* ShiftPointByLastPoint */\012SRP1[ ]	/* SetRefPoint1 */\012SHP[1]	/* ShiftPointByLastPoint */\012IUP[1]	/* InterpolateUntPts */\012IUP[0]	/* InterpolateUntPts */";
};
width = 1242;
},
{
anchors = (
{
name = bottom;
position = "{741, -68}";
},
{
name = top;
position = "{744, 483}";
}
);
layerId = "410295A1-92BC-4707-ABFC-13885E60878B";
paths = (
{
closed = 1;
nodes = (
"988 0 LINE",
"988 475 LINE",
"964 475 LINE",
"964 24 LINE",
"907 24 LINE SMOOTH",
"840 24 OFFCURVE",
"794 37 OFFCURVE",
"758 87 CURVE",
"761 96 OFFCURVE",
"763 109 OFFCURVE",
"763 117 CURVE",
"763 397 LINE",
"739 397 LINE",
"739 132 LINE SMOOTH",
"739 66 OFFCURVE",
"691 24 OFFCURVE",
"625 24 CURVE SMOOTH",
"501 24 LINE",
"501 397 LINE",
"477 397 LINE",
"477 -10 LINE SMOOTH",
"477 -158 OFFCURVE",
"422 -216 OFFCURVE",
"298 -216 CURVE SMOOTH",
"257 -216 LINE SMOOTH",
"141 -216 OFFCURVE",
"85 -144 OFFCURVE",
"85 -1 CURVE SMOOTH",
"85 83 OFFCURVE",
"96 166 OFFCURVE",
"123 228 CURVE",
"98 228 LINE",
"75 168 OFFCURVE",
"61 80 OFFCURVE",
"61 -2 CURVE SMOOTH",
"61 -153 OFFCURVE",
"122 -240 OFFCURVE",
"263 -240 CURVE SMOOTH",
"297 -240 LINE SMOOTH",
"449 -240 OFFCURVE",
"501 -160 OFFCURVE",
"501 0 CURVE",
"614 0 LINE SMOOTH",
"681 0 OFFCURVE",
"726 26 OFFCURVE",
"746 66 CURVE",
"781 13 OFFCURVE",
"845 0 OFFCURVE",
"904 0 CURVE SMOOTH"
);
}
);
width = 1073;
},
{
anchors = (
{
name = bottom;
position = "{988, -78}";
},
{
name = top;
position = "{989, 492}";
}
);
layerId = "DCD2D043-4E01-4B5D-9248-443A06E88532";
paths = (
{
closed = 1;
nodes = (
"1439 0 LINE",
"1439 502 LINE",
"1247 502 LINE",
"1247 148 LINE",
"1184 148 LINE SMOOTH",
"1140 148 OFFCURVE",
"1118 160 OFFCURVE",
"1084 194 CURVE",
"1087 214 OFFCURVE",
"1089 235 OFFCURVE",
"1089 259 CURVE",
"1089 424 LINE",
"897 424 LINE",
"897 264 LINE SMOOTH",
"897 177 OFFCURVE",
"874 148 OFFCURVE",
"805 148 CURVE SMOOTH",
"735 148 LINE",
"735 424 LINE",
"544 424 LINE",
"544 67 LINE SMOOTH",
"544 -31 OFFCURVE",
"500 -92 OFFCURVE",
"406 -92 CURVE SMOOTH",
"393 -92 LINE SMOOTH",
"299 -92 OFFCURVE",
"253 -31 OFFCURVE",
"253 58 CURVE SMOOTH",
"253 113 OFFCURVE",
"267 187 OFFCURVE",
"287 267 CURVE",
"123 267 LINE",
"87 205 OFFCURVE",
"65 128 OFFCURVE",
"65 56 CURVE SMOOTH",
"65 -126 OFFCURVE",
"177 -249 OFFCURVE",
"388 -249 CURVE SMOOTH",
"410 -249 LINE SMOOTH",
"602 -249 OFFCURVE",
"714 -168 OFFCURVE",
"734 0 CURVE",
"854 0 LINE SMOOTH",
"933 0 OFFCURVE",
"993 23 OFFCURVE",
"1035 79 CURVE",
"1079 30 OFFCURVE",
"1135 0 OFFCURVE",
"1189 0 CURVE SMOOTH"
);
}
);
width = 1524;
}
);
note = uni0633;
unicode = 0633;
},
{
glyphname = "seen-ar.fina";
lastChange = "2021-05-28 09:22:06 +0000";
layers = (
{
anchors = (
{
name = bottom;
position = "{879, -78}";
},
{
name = top;
position = "{920, 467}";
}
);
layerId = "307C4A58-79B8-4138-817C-FBEE21722E1A";
paths = (
{
closed = 1;
nodes = (
"1456 0 LINE SMOOTH",
"1459 0 OFFCURVE",
"1461 2 OFFCURVE",
"1461 5 CURVE SMOOTH",
"1461 116 LINE SMOOTH",
"1461 119 OFFCURVE",
"1459 120 OFFCURVE",
"1456 120 CURVE SMOOTH",
"1326 120 LINE",
"1326 495 LINE",
"1177 495 LINE",
"1177 120 LINE",
"1115 120 LINE SMOOTH",
"1064 120 OFFCURVE",
"1036 135 OFFCURVE",
"1003 179 CURVE",
"1005 193 OFFCURVE",
"1006 208 OFFCURVE",
"1006 224 CURVE SMOOTH",
"1006 417 LINE",
"857 417 LINE",
"857 236 LINE SMOOTH",
"857 156 OFFCURVE",
"828 120 OFFCURVE",
"761 120 CURVE SMOOTH",
"676 120 LINE",
"676 417 LINE",
"527 417 LINE",
"527 39 LINE SMOOTH",
"527 -62 OFFCURVE",
"480 -120 OFFCURVE",
"377 -120 CURVE SMOOTH",
"347 -120 LINE SMOOTH",
"267 -120 OFFCURVE",
"214 -58 OFFCURVE",
"214 39 CURVE SMOOTH",
"214 107 OFFCURVE",
"227 190 OFFCURVE",
"248 261 CURVE",
"116 261 LINE",
"84 198 OFFCURVE",
"65 116 OFFCURVE",
"65 40 CURVE SMOOTH",
"65 -69 OFFCURVE",
"110 -158 OFFCURVE",
"192 -205 CURVE SMOOTH",
"233 -228 OFFCURVE",
"281 -240 OFFCURVE",
"337 -240 CURVE SMOOTH",
"381 -240 LINE SMOOTH",
"565 -240 OFFCURVE",
"663 -160 OFFCURVE",
"675 0 CURVE",
"794 0 LINE SMOOTH",
"868 0 OFFCURVE",
"924 25 OFFCURVE",
"961 75 CURVE",
"1009 25 OFFCURVE",
"1061 0 OFFCURVE",
"1118 0 CURVE SMOOTH"
);
}
);
userData = {
assembly = "NPUSHB[ ]	/* 45 values pushed */\01248 51 42 8 39 35 11 11 32 25 18 18 32 39 51 4 52 0 53 40 33 8 21 33 21 33 11 49 15 14 28 70 89 14 27 51 47 35 11 35 70 89 6 11 18 \012SVTCA[0]	/* SetFreedomAndProjectionVectorToAxis */\012MIAP[1]	/* MoveIndirectAbsPt */\012SHP[1]	/* ShiftPointByLastPoint */\012CALL[ ]	/* CallFunction */\012SRP1[ ]	/* SetRefPoint1 */\012SVTCA[0]	/* SetFreedomAndProjectionVectorToAxis */\012SHP[1]	/* ShiftPointByLastPoint */\012SHP[1]	/* ShiftPointByLastPoint */\012RTG[ ]	/* RoundToGrid */\012MIAP[1]	/* MoveIndirectAbsPt */\012CALL[ ]	/* CallFunction */\012SVTCA[0]	/* SetFreedomAndProjectionVectorToAxis */\012RTG[ ]	/* RoundToGrid */\012MIAP[1]	/* MoveIndirectAbsPt */\012SRP2[ ]	/* SetRefPoint2 */\012IP[ ]	/* InterpolatePts */\012IP[ ]	/* InterpolatePts */\012MDAP[1]	/* MoveDirectAbsPt */\012MDAP[1]	/* MoveDirectAbsPt */\012IP[ ]	/* InterpolatePts */\012SRP1[ ]	/* SetRefPoint1 */\012SHP[1]	/* ShiftPointByLastPoint */\012SRP1[ ]	/* SetRefPoint1 */\012SVTCA[1]	/* SetFreedomAndProjectionVectorToAxis */\012SHP[1]	/* ShiftPointByLastPoint */\012SRP2[ ]	/* SetRefPoint2 */\012SLOOP[ ]	/* SetLoopVariable */\012IP[ ]	/* InterpolatePts */\012SRP1[ ]	/* SetRefPoint1 */\012SHP[1]	/* ShiftPointByLastPoint */\012SRP1[ ]	/* SetRefPoint1 */\012SHP[1]	/* ShiftPointByLastPoint */\012SRP1[ ]	/* SetRefPoint1 */\012SHP[1]	/* ShiftPointByLastPoint */\012SRP1[ ]	/* SetRefPoint1 */\012SHP[1]	/* ShiftPointByLastPoint */\012SHP[1]	/* ShiftPointByLastPoint */\012SRP1[ ]	/* SetRefPoint1 */\012SHP[1]	/* ShiftPointByLastPoint */\012IUP[1]	/* InterpolateUntPts */\012IUP[0]	/* InterpolateUntPts */";
};
width = 1451;
},
{
anchors = (
{
name = bottom;
position = "{820, -78}";
},
{
name = top;
position = "{832, 475}";
}
);
layerId = "15908E2C-AB74-4DC1-B0E7-8741EE8F4DA5";
paths = (
{
closed = 1;
nodes = (
"1291 0 LINE SMOOTH",
"1294 0 OFFCURVE",
"1296 2 OFFCURVE",
"1296 5 CURVE SMOOTH",
"1296 74 LINE SMOOTH",
"1296 77 OFFCURVE",
"1294 78 OFFCURVE",
"1291 78 CURVE SMOOTH",
"1157 78 LINE",
"1157 485 LINE",
"1072 485 LINE",
"1072 78 LINE",
"1011 78 LINE SMOOTH",
"951 78 OFFCURVE",
"914 97 OFFCURVE",
"881 156 CURVE",
"882 165 OFFCURVE",
"882 175 OFFCURVE",
"882 190 CURVE",
"882 407 LINE",
"797 407 LINE",
"797 194 LINE SMOOTH",
"797 125 OFFCURVE",
"759 78 OFFCURVE",
"695 78 CURVE SMOOTH",
"587 78 LINE",
"587 407 LINE",
"502 407 LINE",
"502 -3 LINE SMOOTH",
"502 -110 OFFCURVE",
"450 -162 OFFCURVE",
"334 -162 CURVE SMOOTH",
"285 -162 LINE SMOOTH",
"202 -162 OFFCURVE",
"155 -97 OFFCURVE",
"155 16 CURVE SMOOTH",
"155 116 OFFCURVE",
"166 195 OFFCURVE",
"189 252 CURVE",
"106 252 LINE",
"79 188 OFFCURVE",
"65 99 OFFCURVE",
"65 16 CURVE SMOOTH",
"65 -88 OFFCURVE",
"98 -165 OFFCURVE",
"155 -206 CURVE SMOOTH",
"185 -228 OFFCURVE",
"223 -240 OFFCURVE",
"266 -240 CURVE SMOOTH",
"338 -240 LINE SMOOTH",
"510 -240 OFFCURVE",
"587 -157 OFFCURVE",
"587 0 CURVE",
"704 0 LINE SMOOTH",
"771 0 OFFCURVE",
"819 28 OFFCURVE",
"850 69 CURVE",
"905 17 OFFCURVE",
"951 0 OFFCURVE",
"1011 0 CURVE SMOOTH"
);
}
);
userData = {
assembly = "NPUSHB[ ]	/* 45 values pushed */\01220 14 30 7 7 27 37 3 34 45 42 42 34 27 14 4 52 48 53 35 28 3 17 28 17 28 7 43 15 11 23 70 89 11 27 45 41 30 7 30 70 89 0 7 18 \012SVTCA[0]	/* SetFreedomAndProjectionVectorToAxis */\012MIAP[1]	/* MoveIndirectAbsPt */\012SHP[1]	/* ShiftPointByLastPoint */\012CALL[ ]	/* CallFunction */\012SRP1[ ]	/* SetRefPoint1 */\012SVTCA[0]	/* SetFreedomAndProjectionVectorToAxis */\012SHP[1]	/* ShiftPointByLastPoint */\012SHP[1]	/* ShiftPointByLastPoint */\012RTG[ ]	/* RoundToGrid */\012MIAP[1]	/* MoveIndirectAbsPt */\012CALL[ ]	/* CallFunction */\012SVTCA[0]	/* SetFreedomAndProjectionVectorToAxis */\012RTG[ ]	/* RoundToGrid */\012MIAP[1]	/* MoveIndirectAbsPt */\012SRP2[ ]	/* SetRefPoint2 */\012IP[ ]	/* InterpolatePts */\012IP[ ]	/* InterpolatePts */\012MDAP[1]	/* MoveDirectAbsPt */\012MDAP[1]	/* MoveDirectAbsPt */\012IP[ ]	/* InterpolatePts */\012SRP1[ ]	/* SetRefPoint1 */\012SHP[1]	/* ShiftPointByLastPoint */\012SRP1[ ]	/* SetRefPoint1 */\012SVTCA[1]	/* SetFreedomAndProjectionVectorToAxis */\012SHP[1]	/* ShiftPointByLastPoint */\012SRP2[ ]	/* SetRefPoint2 */\012SLOOP[ ]	/* SetLoopVariable */\012IP[ ]	/* InterpolatePts */\012SRP1[ ]	/* SetRefPoint1 */\012SHP[1]	/* ShiftPointByLastPoint */\012SRP1[ ]	/* SetRefPoint1 */\012SHP[1]	/* ShiftPointByLastPoint */\012SHP[1]	/* ShiftPointByLastPoint */\012SRP1[ ]	/* SetRefPoint1 */\012SHP[1]	/* ShiftPointByLastPoint */\012SRP1[ ]	/* SetRefPoint1 */\012SHP[1]	/* ShiftPointByLastPoint */\012SRP1[ ]	/* SetRefPoint1 */\012SHP[1]	/* ShiftPointByLastPoint */\012IUP[1]	/* InterpolateUntPts */\012IUP[0]	/* InterpolateUntPts */";
};
width = 1286;
},
{
anchors = (
{
name = bottom;
position = "{741, -68}";
},
{
name = top;
position = "{744, 483}";
}
);
layerId = "410295A1-92BC-4707-ABFC-13885E60878B";
paths = (
{
closed = 1;
nodes = (
"1126 0 LINE SMOOTH",
"1129 0 OFFCURVE",
"1131 2 OFFCURVE",
"1131 5 CURVE SMOOTH",
"1131 20 LINE SMOOTH",
"1131 23 OFFCURVE",
"1129 24 OFFCURVE",
"1126 24 CURVE SMOOTH",
"988 24 LINE",
"988 475 LINE",
"964 475 LINE",
"964 24 LINE",
"907 24 LINE SMOOTH",
"840 24 OFFCURVE",
"794 37 OFFCURVE",
"758 87 CURVE",
"761 96 OFFCURVE",
"763 109 OFFCURVE",
"763 117 CURVE SMOOTH",
"763 397 LINE",
"739 397 LINE",
"739 132 LINE SMOOTH",
"739 66 OFFCURVE",
"691 24 OFFCURVE",
"625 24 CURVE SMOOTH",
"501 24 LINE",
"501 397 LINE",
"477 397 LINE",
"477 -12 LINE SMOOTH",
"477 -158 OFFCURVE",
"422 -216 OFFCURVE",
"298 -216 CURVE SMOOTH",
"257 -216 LINE SMOOTH",
"141 -216 OFFCURVE",
"85 -144 OFFCURVE",
"85 -1 CURVE SMOOTH",
"85 83 OFFCURVE",
"96 166 OFFCURVE",
"123 228 CURVE",
"98 228 LINE",
"75 168 OFFCURVE",
"61 80 OFFCURVE",
"61 -2 CURVE SMOOTH",
"61 -104 OFFCURVE",
"89 -177 OFFCURVE",
"150 -213 CURVE SMOOTH",
"180 -231 OFFCURVE",
"217 -240 OFFCURVE",
"263 -240 CURVE SMOOTH",
"297 -240 LINE SMOOTH",
"449 -240 OFFCURVE",
"501 -164 OFFCURVE",
"501 0 CURVE",
"614 0 LINE SMOOTH",
"681 0 OFFCURVE",
"726 26 OFFCURVE",
"746 66 CURVE",
"781 13 OFFCURVE",
"845 0 OFFCURVE",
"904 0 CURVE SMOOTH"
);
}
);
width = 1121;
},
{
anchors = (
{
name = bottom;
position = "{988, -78}";
},
{
name = top;
position = "{989, 492}";
}
);
layerId = "DCD2D043-4E01-4B5D-9248-443A06E88532";
paths = (
{
closed = 1;
nodes = (
"1566 0 LINE SMOOTH",
"1569 0 OFFCURVE",
"1571 2 OFFCURVE",
"1571 5 CURVE SMOOTH",
"1571 144 LINE SMOOTH",
"1571 147 OFFCURVE",
"1569 148 OFFCURVE",
"1566 148 CURVE SMOOTH",
"1439 148 LINE",
"1439 502 LINE",
"1247 502 LINE",
"1247 148 LINE",
"1184 148 LINE SMOOTH",
"1140 148 OFFCURVE",
"1118 160 OFFCURVE",
"1084 194 CURVE",
"1088 212 OFFCURVE",
"1089 230 OFFCURVE",
"1089 247 CURVE SMOOTH",
"1089 424 LINE",
"897 424 LINE",
"897 264 LINE SMOOTH",
"897 177 OFFCURVE",
"874 148 OFFCURVE",
"805 148 CURVE SMOOTH",
"735 148 LINE",
"735 424 LINE",
"544 424 LINE",
"544 67 LINE SMOOTH",
"544 -31 OFFCURVE",
"500 -92 OFFCURVE",
"406 -92 CURVE SMOOTH",
"393 -92 LINE SMOOTH",
"299 -92 OFFCURVE",
"253 -27 OFFCURVE",
"253 59 CURVE SMOOTH",
"253 113 OFFCURVE",
"267 187 OFFCURVE",
"287 267 CURVE",
"123 267 LINE",
"87 205 OFFCURVE",
"65 128 OFFCURVE",
"65 56 CURVE SMOOTH",
"65 -68 OFFCURVE",
"117 -164 OFFCURVE",
"216 -213 CURVE SMOOTH",
"263 -236 OFFCURVE",
"320 -249 OFFCURVE",
"388 -249 CURVE SMOOTH",
"410 -249 LINE SMOOTH",
"602 -249 OFFCURVE",
"714 -168 OFFCURVE",
"734 0 CURVE",
"854 0 LINE SMOOTH",
"933 0 OFFCURVE",
"993 23 OFFCURVE",
"1035 79 CURVE",
"1079 30 OFFCURVE",
"1135 0 OFFCURVE",
"1189 0 CURVE SMOOTH"
);
}
);
width = 1561;
}
);
note = uni0633.fina;
},
{
glyphname = "seen-ar.medi";
lastChange = "2021-05-28 09:22:28 +0000";
layers = (
{
anchors = (
{
name = bottom;
position = "{449, -78}";
},
{
name = top;
position = "{522, 458}";
}
);
layerId = "307C4A58-79B8-4138-817C-FBEE21722E1A";
paths = (
{
closed = 1;
nodes = (
"1049 0 LINE SMOOTH",
"1052 0 OFFCURVE",
"1054 2 OFFCURVE",
"1054 5 CURVE SMOOTH",
"1054 116 LINE SMOOTH",
"1054 119 OFFCURVE",
"1052 120 OFFCURVE",
"1049 120 CURVE SMOOTH",
"919 120 LINE",
"919 495 LINE",
"770 495 LINE",
"770 120 LINE",
"708 120 LINE SMOOTH",
"656 120 OFFCURVE",
"629 135 OFFCURVE",
"596 179 CURVE",
"598 193 OFFCURVE",
"599 208 OFFCURVE",
"599 224 CURVE SMOOTH",
"599 417 LINE",
"450 417 LINE",
"450 236 LINE SMOOTH",
"450 155 OFFCURVE",
"421 120 OFFCURVE",
"354 120 CURVE SMOOTH",
"269 120 LINE",
"269 417 LINE",
"120 417 LINE",
"120 120 LINE",
"-5 120 LINE SMOOTH",
"-8 120 OFFCURVE",
"-10 119 OFFCURVE",
"-10 116 CURVE SMOOTH",
"-10 5 LINE SMOOTH",
"-10 2 OFFCURVE",
"-8 0 OFFCURVE",
"-5 0 CURVE SMOOTH",
"387 0 LINE SMOOTH",
"461 0 OFFCURVE",
"517 25 OFFCURVE",
"554 75 CURVE",
"602 25 OFFCURVE",
"654 0 OFFCURVE",
"711 0 CURVE SMOOTH"
);
}
);
userData = {
assembly = "NPUSHB[ ]	/* 34 values pushed */\0121 14 37 27 8 24 33 36 20 17 36 24 17 3 38 37 25 8 18 18 11 34 15 36 32 20 16 11 16 70 89 6 11 18 \012SVTCA[0]	/* SetFreedomAndProjectionVectorToAxis */\012MIAP[1]	/* MoveIndirectAbsPt */\012SHP[1]	/* ShiftPointByLastPoint */\012CALL[ ]	/* CallFunction */\012SRP1[ ]	/* SetRefPoint1 */\012SVTCA[0]	/* SetFreedomAndProjectionVectorToAxis */\012SHP[1]	/* ShiftPointByLastPoint */\012SHP[1]	/* ShiftPointByLastPoint */\012SHP[1]	/* ShiftPointByLastPoint */\012RTG[ ]	/* RoundToGrid */\012MIAP[1]	/* MoveIndirectAbsPt */\012SRP2[ ]	/* SetRefPoint2 */\012IP[ ]	/* InterpolatePts */\012MDAP[1]	/* MoveDirectAbsPt */\012IP[ ]	/* InterpolatePts */\012SHP[1]	/* ShiftPointByLastPoint */\012SRP1[ ]	/* SetRefPoint1 */\012SRP2[ ]	/* SetRefPoint2 */\012SVTCA[1]	/* SetFreedomAndProjectionVectorToAxis */\012SLOOP[ ]	/* SetLoopVariable */\012IP[ ]	/* InterpolatePts */\012SRP1[ ]	/* SetRefPoint1 */\012SHP[1]	/* ShiftPointByLastPoint */\012SRP1[ ]	/* SetRefPoint1 */\012SHP[1]	/* ShiftPointByLastPoint */\012SRP1[ ]	/* SetRefPoint1 */\012SHP[1]	/* ShiftPointByLastPoint */\012SHP[1]	/* ShiftPointByLastPoint */\012SRP1[ ]	/* SetRefPoint1 */\012SHP[1]	/* ShiftPointByLastPoint */\012SHP[0]	/* ShiftPointByLastPoint */\012IUP[1]	/* InterpolateUntPts */\012IUP[0]	/* InterpolateUntPts */";
};
width = 1044;
},
{
anchors = (
{
name = bottom;
position = "{449, -78}";
},
{
name = top;
position = "{461, 462}";
}
);
layerId = "15908E2C-AB74-4DC1-B0E7-8741EE8F4DA5";
paths = (
{
closed = 1;
nodes = (
"927 0 LINE SMOOTH",
"930 0 OFFCURVE",
"932 2 OFFCURVE",
"932 5 CURVE SMOOTH",
"932 74 LINE SMOOTH",
"932 77 OFFCURVE",
"930 78 OFFCURVE",
"927 78 CURVE SMOOTH",
"793 78 LINE",
"793 485 LINE",
"708 485 LINE",
"708 78 LINE",
"647 78 LINE SMOOTH",
"586 78 OFFCURVE",
"550 99 OFFCURVE",
"517 156 CURVE",
"518 167 OFFCURVE",
"518 178 OFFCURVE",
"518 189 CURVE SMOOTH",
"518 407 LINE",
"433 407 LINE",
"433 194 LINE SMOOTH",
"433 125 OFFCURVE",
"395 78 OFFCURVE",
"331 78 CURVE SMOOTH",
"223 78 LINE",
"223 407 LINE",
"138 407 LINE",
"138 78 LINE",
"-5 78 LINE SMOOTH",
"-8 78 OFFCURVE",
"-10 77 OFFCURVE",
"-10 74 CURVE SMOOTH",
"-10 5 LINE SMOOTH",
"-10 2 OFFCURVE",
"-8 0 OFFCURVE",
"-5 0 CURVE SMOOTH",
"340 0 LINE SMOOTH",
"408 0 OFFCURVE",
"457 29 OFFCURVE",
"486 70 CURVE",
"539 17 OFFCURVE",
"587 0 OFFCURVE",
"647 0 CURVE SMOOTH"
);
}
);
userData = {
assembly = "NPUSHB[ ]	/* 34 values pushed */\01231 28 23 3 20 16 13 13 20 28 3 38 34 39 9 38 21 3 14 14 7 29 15 31 27 16 12 7 12 70 89 0 7 18 \012SVTCA[0]	/* SetFreedomAndProjectionVectorToAxis */\012MIAP[1]	/* MoveIndirectAbsPt */\012SHP[1]	/* ShiftPointByLastPoint */\012CALL[ ]	/* CallFunction */\012SRP1[ ]	/* SetRefPoint1 */\012SVTCA[0]	/* SetFreedomAndProjectionVectorToAxis */\012SHP[1]	/* ShiftPointByLastPoint */\012SHP[1]	/* ShiftPointByLastPoint */\012SHP[1]	/* ShiftPointByLastPoint */\012RTG[ ]	/* RoundToGrid */\012MIAP[1]	/* MoveIndirectAbsPt */\012SRP2[ ]	/* SetRefPoint2 */\012IP[ ]	/* InterpolatePts */\012MDAP[1]	/* MoveDirectAbsPt */\012IP[ ]	/* InterpolatePts */\012SHP[1]	/* ShiftPointByLastPoint */\012SRP1[ ]	/* SetRefPoint1 */\012SVTCA[1]	/* SetFreedomAndProjectionVectorToAxis */\012SHP[1]	/* ShiftPointByLastPoint */\012SRP1[ ]	/* SetRefPoint1 */\012SHP[1]	/* ShiftPointByLastPoint */\012SRP2[ ]	/* SetRefPoint2 */\012SLOOP[ ]	/* SetLoopVariable */\012IP[ ]	/* InterpolatePts */\012SRP1[ ]	/* SetRefPoint1 */\012SHP[1]	/* ShiftPointByLastPoint */\012SRP1[ ]	/* SetRefPoint1 */\012SHP[1]	/* ShiftPointByLastPoint */\012SHP[1]	/* ShiftPointByLastPoint */\012SRP1[ ]	/* SetRefPoint1 */\012SHP[1]	/* ShiftPointByLastPoint */\012IUP[1]	/* InterpolateUntPts */\012IUP[0]	/* InterpolateUntPts */";
};
width = 922;
},
{
anchors = (
{
name = bottom;
position = "{427, -78}";
},
{
name = top;
position = "{430, 476}";
}
);
layerId = "410295A1-92BC-4707-ABFC-13885E60878B";
paths = (
{
closed = 1;
nodes = (
"805 0 LINE SMOOTH",
"808 0 OFFCURVE",
"810 2 OFFCURVE",
"810 5 CURVE SMOOTH",
"810 20 LINE SMOOTH",
"810 23 OFFCURVE",
"808 24 OFFCURVE",
"805 24 CURVE SMOOTH",
"668 24 LINE",
"668 475 LINE",
"644 475 LINE",
"644 24 LINE",
"587 24 LINE SMOOTH",
"520 24 OFFCURVE",
"474 37 OFFCURVE",
"438 87 CURVE",
"441 96 OFFCURVE",
"443 109 OFFCURVE",
"443 117 CURVE SMOOTH",
"443 397 LINE",
"419 397 LINE",
"419 132 LINE SMOOTH",
"419 66 OFFCURVE",
"371 24 OFFCURVE",
"305 24 CURVE SMOOTH",
"181 24 LINE",
"181 397 LINE",
"157 397 LINE",
"157 24 LINE",
"-5 24 LINE SMOOTH",
"-8 24 OFFCURVE",
"-10 23 OFFCURVE",
"-10 20 CURVE SMOOTH",
"-10 5 LINE SMOOTH",
"-10 2 OFFCURVE",
"-8 0 OFFCURVE",
"-5 0 CURVE SMOOTH",
"294 0 LINE SMOOTH",
"361 0 OFFCURVE",
"406 26 OFFCURVE",
"426 66 CURVE",
"461 13 OFFCURVE",
"525 0 OFFCURVE",
"584 0 CURVE SMOOTH"
);
}
);
width = 800;
},
{
anchors = (
{
name = bottom;
position = "{555, -78}";
},
{
name = top;
position = "{563, 485}";
}
);
layerId = "DCD2D043-4E01-4B5D-9248-443A06E88532";
paths = (
{
closed = 1;
nodes = (
"1130 0 LINE SMOOTH",
"1134 0 OFFCURVE",
"1135 2 OFFCURVE",
"1135 5 CURVE SMOOTH",
"1135 144 LINE SMOOTH",
"1135 147 OFFCURVE",
"1134 148 OFFCURVE",
"1130 148 CURVE SMOOTH",
"1003 148 LINE",
"1003 502 LINE",
"811 502 LINE",
"811 148 LINE",
"749 148 LINE SMOOTH",
"703 148 OFFCURVE",
"682 159 OFFCURVE",
"649 194 CURVE",
"652 210 OFFCURVE",
"653 228 OFFCURVE",
"653 247 CURVE",
"653 424 LINE",
"461 424 LINE",
"461 264 LINE SMOOTH",
"461 175 OFFCURVE",
"438 148 OFFCURVE",
"369 148 CURVE SMOOTH",
"300 148 LINE",
"300 424 LINE",
"108 424 LINE",
"108 148 LINE",
"-5 148 LINE SMOOTH",
"-8 148 OFFCURVE",
"-10 147 OFFCURVE",
"-10 144 CURVE SMOOTH",
"-10 5 LINE SMOOTH",
"-10 2 OFFCURVE",
"-8 0 OFFCURVE",
"-5 0 CURVE SMOOTH",
"418 0 LINE SMOOTH",
"496 0 OFFCURVE",
"557 23 OFFCURVE",
"599 78 CURVE",
"644 31 OFFCURVE",
"699 0 OFFCURVE",
"754 0 CURVE SMOOTH"
);
}
);
width = 1125;
}
);
note = uni0633.medi;
},
{
glyphname = "seen-ar.init";
lastChange = "2021-05-28 09:22:44 +0000";
layers = (
{
anchors = (
{
name = bottom;
position = "{449, -78}";
},
{
name = top;
position = "{522, 458}";
}
);
layerId = "307C4A58-79B8-4138-817C-FBEE21722E1A";
paths = (
{
closed = 1;
nodes = (
"919 0 LINE",
"919 495 LINE",
"770 495 LINE",
"770 120 LINE",
"708 120 LINE SMOOTH",
"656 120 OFFCURVE",
"629 135 OFFCURVE",
"596 179 CURVE",
"598 193 OFFCURVE",
"599 208 OFFCURVE",
"599 224 CURVE SMOOTH",
"599 417 LINE",
"450 417 LINE",
"450 236 LINE SMOOTH",
"450 155 OFFCURVE",
"421 120 OFFCURVE",
"354 120 CURVE SMOOTH",
"269 120 LINE",
"269 417 LINE",
"120 417 LINE",
"120 120 LINE",
"-5 120 LINE SMOOTH",
"-8 120 OFFCURVE",
"-10 119 OFFCURVE",
"-10 116 CURVE SMOOTH",
"-10 5 LINE SMOOTH",
"-10 2 OFFCURVE",
"-8 0 OFFCURVE",
"-5 0 CURVE SMOOTH",
"387 0 LINE SMOOTH",
"461 0 OFFCURVE",
"517 25 OFFCURVE",
"554 75 CURVE",
"602 25 OFFCURVE",
"654 0 OFFCURVE",
"711 0 CURVE SMOOTH"
);
}
);
userData = {
assembly = "NPUSHB[ ]	/* 31 values pushed */\01222 25 28 16 13 9 6 6 13 25 3 32 3 31 14 28 7 7 0 23 15 21 9 5 0 5 70 89 26 0 18 \012SVTCA[0]	/* SetFreedomAndProjectionVectorToAxis */\012MIAP[1]	/* MoveIndirectAbsPt */\012SHP[0]	/* ShiftPointByLastPoint */\012CALL[ ]	/* CallFunction */\012SRP1[ ]	/* SetRefPoint1 */\012SVTCA[0]	/* SetFreedomAndProjectionVectorToAxis */\012SHP[1]	/* ShiftPointByLastPoint */\012SHP[1]	/* ShiftPointByLastPoint */\012RTG[ ]	/* RoundToGrid */\012MIAP[1]	/* MoveIndirectAbsPt */\012SRP2[ ]	/* SetRefPoint2 */\012IP[ ]	/* InterpolatePts */\012MDAP[1]	/* MoveDirectAbsPt */\012IP[ ]	/* InterpolatePts */\012SHP[1]	/* ShiftPointByLastPoint */\012SRP1[ ]	/* SetRefPoint1 */\012SVTCA[1]	/* SetFreedomAndProjectionVectorToAxis */\012SHP[1]	/* ShiftPointByLastPoint */\012SRP2[ ]	/* SetRefPoint2 */\012SLOOP[ ]	/* SetLoopVariable */\012IP[ ]	/* InterpolatePts */\012SRP1[ ]	/* SetRefPoint1 */\012SHP[1]	/* ShiftPointByLastPoint */\012SRP1[ ]	/* SetRefPoint1 */\012SHP[1]	/* ShiftPointByLastPoint */\012SHP[1]	/* ShiftPointByLastPoint */\012SRP1[ ]	/* SetRefPoint1 */\012SHP[1]	/* ShiftPointByLastPoint */\012IUP[1]	/* InterpolateUntPts */\012IUP[0]	/* InterpolateUntPts */";
};
width = 1004;
},
{
anchors = (
{
name = bottom;
position = "{449, -78}";
},
{
name = top;
position = "{472, 459}";
}
);
layerId = "15908E2C-AB74-4DC1-B0E7-8741EE8F4DA5";
paths = (
{
closed = 1;
nodes = (
"793 0 LINE",
"793 485 LINE",
"708 485 LINE",
"708 78 LINE",
"647 78 LINE SMOOTH",
"586 78 OFFCURVE",
"550 99 OFFCURVE",
"517 156 CURVE",
"518 167 OFFCURVE",
"518 178 OFFCURVE",
"518 189 CURVE SMOOTH",
"518 407 LINE",
"433 407 LINE",
"433 194 LINE SMOOTH",
"433 125 OFFCURVE",
"395 78 OFFCURVE",
"331 78 CURVE SMOOTH",
"223 78 LINE",
"223 407 LINE",
"138 407 LINE",
"138 78 LINE",
"-5 78 LINE SMOOTH",
"-8 78 OFFCURVE",
"-10 77 OFFCURVE",
"-10 74 CURVE SMOOTH",
"-10 5 LINE SMOOTH",
"-10 2 OFFCURVE",
"-8 0 OFFCURVE",
"-5 0 CURVE SMOOTH",
"340 0 LINE SMOOTH",
"408 0 OFFCURVE",
"457 29 OFFCURVE",
"486 70 CURVE",
"539 17 OFFCURVE",
"587 0 OFFCURVE",
"647 0 CURVE SMOOTH"
);
}
);
userData = {
assembly = "NPUSHB[ ]	/* 31 values pushed */\01228 31 23 3 20 16 13 13 20 31 3 33 9 32 21 3 14 14 7 29 15 27 16 12 7 12 70 89 0 7 18 \012SVTCA[0]	/* SetFreedomAndProjectionVectorToAxis */\012MIAP[1]	/* MoveIndirectAbsPt */\012SHP[1]	/* ShiftPointByLastPoint */\012CALL[ ]	/* CallFunction */\012SRP1[ ]	/* SetRefPoint1 */\012SVTCA[0]	/* SetFreedomAndProjectionVectorToAxis */\012SHP[1]	/* ShiftPointByLastPoint */\012SHP[1]	/* ShiftPointByLastPoint */\012RTG[ ]	/* RoundToGrid */\012MIAP[1]	/* MoveIndirectAbsPt */\012SRP2[ ]	/* SetRefPoint2 */\012IP[ ]	/* InterpolatePts */\012MDAP[1]	/* MoveDirectAbsPt */\012IP[ ]	/* InterpolatePts */\012SHP[1]	/* ShiftPointByLastPoint */\012SRP1[ ]	/* SetRefPoint1 */\012SVTCA[1]	/* SetFreedomAndProjectionVectorToAxis */\012SHP[1]	/* ShiftPointByLastPoint */\012SRP2[ ]	/* SetRefPoint2 */\012SLOOP[ ]	/* SetLoopVariable */\012IP[ ]	/* InterpolatePts */\012SRP1[ ]	/* SetRefPoint1 */\012SHP[1]	/* ShiftPointByLastPoint */\012SRP1[ ]	/* SetRefPoint1 */\012SHP[1]	/* ShiftPointByLastPoint */\012SHP[1]	/* ShiftPointByLastPoint */\012SRP1[ ]	/* SetRefPoint1 */\012SHP[1]	/* ShiftPointByLastPoint */\012IUP[1]	/* InterpolateUntPts */\012IUP[0]	/* InterpolateUntPts */";
};
width = 878;
},
{
anchors = (
{
name = bottom;
position = "{427, -78}";
},
{
name = top;
position = "{432, 470}";
}
);
layerId = "410295A1-92BC-4707-ABFC-13885E60878B";
paths = (
{
closed = 1;
nodes = (
"656 0 LINE",
"656 475 LINE",
"632 473 LINE",
"632 24 LINE",
"587 24 LINE SMOOTH",
"529 24 OFFCURVE",
"474 37 OFFCURVE",
"438 87 CURVE",
"441 96 OFFCURVE",
"443 109 OFFCURVE",
"443 117 CURVE SMOOTH",
"443 397 LINE",
"419 397 LINE",
"419 132 LINE SMOOTH",
"419 66 OFFCURVE",
"371 24 OFFCURVE",
"305 24 CURVE SMOOTH",
"181 24 LINE",
"181 397 LINE",
"157 397 LINE",
"157 24 LINE",
"-5 24 LINE SMOOTH",
"-8 24 OFFCURVE",
"-10 23 OFFCURVE",
"-10 20 CURVE SMOOTH",
"-10 5 LINE SMOOTH",
"-10 2 OFFCURVE",
"-8 0 OFFCURVE",
"-5 0 CURVE SMOOTH",
"294 0 LINE SMOOTH",
"361 0 OFFCURVE",
"406 26 OFFCURVE",
"426 66 CURVE",
"461 13 OFFCURVE",
"525 0 OFFCURVE",
"584 0 CURVE SMOOTH"
);
}
);
width = 741;
},
{
anchors = (
{
name = bottom;
position = "{555, -78}";
},
{
name = top;
position = "{555, 487}";
}
);
layerId = "DCD2D043-4E01-4B5D-9248-443A06E88532";
paths = (
{
closed = 1;
nodes = (
"1003 0 LINE",
"1003 502 LINE",
"811 502 LINE",
"811 148 LINE",
"749 148 LINE SMOOTH",
"703 148 OFFCURVE",
"682 159 OFFCURVE",
"649 194 CURVE",
"652 210 OFFCURVE",
"653 228 OFFCURVE",
"653 247 CURVE",
"653 424 LINE",
"461 424 LINE",
"461 264 LINE SMOOTH",
"461 175 OFFCURVE",
"438 148 OFFCURVE",
"369 148 CURVE SMOOTH",
"300 148 LINE",
"300 424 LINE",
"108 424 LINE",
"108 148 LINE",
"-5 148 LINE SMOOTH",
"-8 148 OFFCURVE",
"-10 147 OFFCURVE",
"-10 144 CURVE SMOOTH",
"-10 5 LINE SMOOTH",
"-10 2 OFFCURVE",
"-8 0 OFFCURVE",
"-5 0 CURVE SMOOTH",
"418 0 LINE SMOOTH",
"496 0 OFFCURVE",
"557 23 OFFCURVE",
"599 78 CURVE",
"644 31 OFFCURVE",
"699 0 OFFCURVE",
"754 0 CURVE SMOOTH"
);
}
);
width = 1088;
}
);
note = uni0633.init;
},
{
glyphname = "sad-ar";
lastChange = "2021-05-28 09:23:06 +0000";
layers = (
{
anchors = (
{
name = bottom;
position = "{811, -78}";
},
{
name = top;
position = "{830, 586}";
}
);
layerId = "307C4A58-79B8-4138-817C-FBEE21722E1A";
paths = (
{
closed = 1;
nodes = (
"381 -240 LINE SMOOTH",
"564 -240 OFFCURVE",
"664 -157 OFFCURVE",
"675 0 CURVE",
"1195 0 LINE",
"1195 240 LINE SMOOTH",
"1195 420 OFFCURVE",
"1111 505 OFFCURVE",
"947 505 CURVE SMOOTH",
"827 505 OFFCURVE",
"737 443 OFFCURVE",
"676 320 CURVE",
"676 495 LINE",
"527 495 LINE",
"527 39 LINE SMOOTH",
"527 -62 OFFCURVE",
"480 -120 OFFCURVE",
"377 -120 CURVE SMOOTH",
"347 -120 LINE SMOOTH",
"267 -120 OFFCURVE",
"214 -58 OFFCURVE",
"214 39 CURVE SMOOTH",
"214 107 OFFCURVE",
"227 190 OFFCURVE",
"248 261 CURVE",
"116 261 LINE",
"84 198 OFFCURVE",
"65 116 OFFCURVE",
"65 40 CURVE SMOOTH",
"65 -126 OFFCURVE",
"166 -240 OFFCURVE",
"337 -240 CURVE SMOOTH"
);
},
{
closed = 1;
nodes = (
"676 120 LINE",
"676 198 LINE",
"741 323 OFFCURVE",
"819 385 OFFCURVE",
"909 385 CURVE SMOOTH",
"1002 385 OFFCURVE",
"1046 340 OFFCURVE",
"1046 243 CURVE SMOOTH",
"1046 120 LINE"
);
}
);
userData = {
assembly = "NPUSHB[ ]	/* 41 values pushed */\01239 21 28 28 18 32 27 11 4 27 18 4 3 41 40 21 23 7 7 28 19 28 39 70 89 28 18 23 36 70 89 23 16 19 15 0 14 70 89 0 27 \012SVTCA[0]	/* SetFreedomAndProjectionVectorToAxis */\012MIAP[1]	/* MoveIndirectAbsPt */\012CALL[ ]	/* CallFunction */\012SVTCA[0]	/* SetFreedomAndProjectionVectorToAxis */\012RTG[ ]	/* RoundToGrid */\012MIAP[1]	/* MoveIndirectAbsPt */\012MIAP[1]	/* MoveIndirectAbsPt */\012CALL[ ]	/* CallFunction */\012SVTCA[0]	/* SetFreedomAndProjectionVectorToAxis */\012RTG[ ]	/* RoundToGrid */\012MIAP[1]	/* MoveIndirectAbsPt */\012CALL[ ]	/* CallFunction */\012SRP1[ ]	/* SetRefPoint1 */\012SRP2[ ]	/* SetRefPoint2 */\012SVTCA[0]	/* SetFreedomAndProjectionVectorToAxis */\012IP[ ]	/* InterpolatePts */\012RTG[ ]	/* RoundToGrid */\012MDAP[1]	/* MoveDirectAbsPt */\012SRP1[ ]	/* SetRefPoint1 */\012IP[ ]	/* InterpolatePts */\012SRP1[ ]	/* SetRefPoint1 */\012SRP2[ ]	/* SetRefPoint2 */\012SVTCA[1]	/* SetFreedomAndProjectionVectorToAxis */\012SLOOP[ ]	/* SetLoopVariable */\012IP[ ]	/* InterpolatePts */\012SRP1[ ]	/* SetRefPoint1 */\012SHP[1]	/* ShiftPointByLastPoint */\012SRP1[ ]	/* SetRefPoint1 */\012SHP[1]	/* ShiftPointByLastPoint */\012SRP1[ ]	/* SetRefPoint1 */\012SHP[1]	/* ShiftPointByLastPoint */\012SRP1[ ]	/* SetRefPoint1 */\012SHP[1]	/* ShiftPointByLastPoint */\012SHP[1]	/* ShiftPointByLastPoint */\012IUP[1]	/* InterpolateUntPts */\012IUP[0]	/* InterpolateUntPts */";
};
width = 1270;
},
{
anchors = (
{
name = bottom;
position = "{811, -78}";
},
{
name = top;
position = "{830, 586}";
}
);
layerId = "15908E2C-AB74-4DC1-B0E7-8741EE8F4DA5";
paths = (
{
closed = 1;
nodes = (
"338 -240 LINE SMOOTH",
"510 -240 OFFCURVE",
"587 -161 OFFCURVE",
"587 0 CURVE",
"1093 0 LINE",
"1093 241 LINE SMOOTH",
"1093 416 OFFCURVE",
"1015 495 OFFCURVE",
"864 495 CURVE SMOOTH",
"745 495 OFFCURVE",
"650 419 OFFCURVE",
"587 270 CURVE",
"587 485 LINE",
"502 485 LINE",
"502 -3 LINE SMOOTH",
"502 -110 OFFCURVE",
"450 -162 OFFCURVE",
"334 -162 CURVE SMOOTH",
"285 -162 LINE SMOOTH",
"202 -162 OFFCURVE",
"155 -97 OFFCURVE",
"155 16 CURVE SMOOTH",
"155 116 OFFCURVE",
"166 195 OFFCURVE",
"189 252 CURVE",
"106 252 LINE",
"79 188 OFFCURVE",
"65 99 OFFCURVE",
"65 16 CURVE SMOOTH",
"65 -144 OFFCURVE",
"142 -240 OFFCURVE",
"266 -240 CURVE SMOOTH"
);
},
{
closed = 1;
nodes = (
"587 78 LINE",
"587 162 LINE",
"656 331 OFFCURVE",
"743 416 OFFCURVE",
"846 416 CURVE SMOOTH",
"955 416 OFFCURVE",
"1008 360 OFFCURVE",
"1008 237 CURVE SMOOTH",
"1008 78 LINE"
);
}
);
userData = {
assembly = "NPUSHB[ ]	/* 41 values pushed */\01231 26 38 19 27 27 16 9 3 3 16 26 3 40 39 19 22 6 6 27 17 27 38 70 89 27 18 22 35 70 89 22 16 17 15 0 12 70 89 0 27 \012SVTCA[0]	/* SetFreedomAndProjectionVectorToAxis */\012MIAP[1]	/* MoveIndirectAbsPt */\012CALL[ ]	/* CallFunction */\012SVTCA[0]	/* SetFreedomAndProjectionVectorToAxis */\012RTG[ ]	/* RoundToGrid */\012MIAP[1]	/* MoveIndirectAbsPt */\012MIAP[1]	/* MoveIndirectAbsPt */\012CALL[ ]	/* CallFunction */\012SVTCA[0]	/* SetFreedomAndProjectionVectorToAxis */\012RTG[ ]	/* RoundToGrid */\012MIAP[1]	/* MoveIndirectAbsPt */\012CALL[ ]	/* CallFunction */\012SRP1[ ]	/* SetRefPoint1 */\012SRP2[ ]	/* SetRefPoint2 */\012SVTCA[0]	/* SetFreedomAndProjectionVectorToAxis */\012IP[ ]	/* InterpolatePts */\012RTG[ ]	/* RoundToGrid */\012MDAP[1]	/* MoveDirectAbsPt */\012SRP1[ ]	/* SetRefPoint1 */\012IP[ ]	/* InterpolatePts */\012SRP1[ ]	/* SetRefPoint1 */\012SRP2[ ]	/* SetRefPoint2 */\012SVTCA[1]	/* SetFreedomAndProjectionVectorToAxis */\012SLOOP[ ]	/* SetLoopVariable */\012IP[ ]	/* InterpolatePts */\012SRP1[ ]	/* SetRefPoint1 */\012SHP[1]	/* ShiftPointByLastPoint */\012SRP1[ ]	/* SetRefPoint1 */\012SHP[1]	/* ShiftPointByLastPoint */\012SRP1[ ]	/* SetRefPoint1 */\012SHP[1]	/* ShiftPointByLastPoint */\012SHP[1]	/* ShiftPointByLastPoint */\012SRP1[ ]	/* SetRefPoint1 */\012SHP[1]	/* ShiftPointByLastPoint */\012IUP[1]	/* InterpolateUntPts */\012IUP[0]	/* InterpolateUntPts */";
};
width = 1168;
},
{
anchors = (
{
name = bottom;
position = "{771, -78}";
},
{
name = top;
position = "{790, 586}";
}
);
layerId = "410295A1-92BC-4707-ABFC-13885E60878B";
paths = (
{
closed = 1;
nodes = (
"297 -240 LINE SMOOTH",
"449 -240 OFFCURVE",
"503 -164 OFFCURVE",
"501 0 CURVE",
"991 0 LINE",
"991 258 LINE SMOOTH",
"991 411 OFFCURVE",
"918 485 OFFCURVE",
"792 485 CURVE SMOOTH",
"679 485 OFFCURVE",
"555 396 OFFCURVE",
"501 197 CURVE",
"501 486 LINE",
"477 486 LINE",
"477 -20 LINE SMOOTH",
"477 -158 OFFCURVE",
"422 -216 OFFCURVE",
"298 -216 CURVE SMOOTH",
"260 -216 LINE SMOOTH",
"142 -216 OFFCURVE",
"87 -148 OFFCURVE",
"85 -1 CURVE SMOOTH",
"84 83 OFFCURVE",
"96 166 OFFCURVE",
"123 228 CURVE",
"98 228 LINE",
"75 168 OFFCURVE",
"61 80 OFFCURVE",
"61 -2 CURVE SMOOTH",
"61 -153 OFFCURVE",
"122 -240 OFFCURVE",
"263 -240 CURVE SMOOTH"
);
},
{
closed = 1;
nodes = (
"501 24 LINE",
"501 131 LINE",
"567 373 OFFCURVE",
"681 461 OFFCURVE",
"794 461 CURVE SMOOTH",
"910 461 OFFCURVE",
"967 395 OFFCURVE",
"967 247 CURVE SMOOTH",
"967 24 LINE"
);
}
);
width = 1066;
},
{
anchors = (
{
name = bottom;
position = "{954, -78}";
},
{
name = top;
position = "{973, 586}";
}
);
layerId = "DCD2D043-4E01-4B5D-9248-443A06E88532";
paths = (
{
closed = 1;
nodes = (
"408 -245 LINE SMOOTH",
"598 -245 OFFCURVE",
"716 -155 OFFCURVE",
"734 0 CURVE",
"1263 0 LINE",
"1263 239 LINE SMOOTH",
"1263 423 OFFCURVE",
"1175 512 OFFCURVE",
"1002 512 CURVE SMOOTH",
"881 512 OFFCURVE",
"795 459 OFFCURVE",
"735 353 CURVE",
"735 502 LINE",
"544 502 LINE",
"544 67 LINE SMOOTH",
"544 -31 OFFCURVE",
"500 -92 OFFCURVE",
"406 -92 CURVE SMOOTH",
"391 -92 LINE SMOOTH",
"310 -92 OFFCURVE",
"253 -32 OFFCURVE",
"253 54 CURVE SMOOTH",
"253 101 OFFCURVE",
"267 187 OFFCURVE",
"287 267 CURVE",
"123 267 LINE",
"87 205 OFFCURVE",
"65 122 OFFCURVE",
"65 50 CURVE SMOOTH",
"65 -129 OFFCURVE",
"177 -245 OFFCURVE",
"384 -245 CURVE SMOOTH"
);
},
{
closed = 1;
nodes = (
"735 148 LINE",
"735 222 LINE",
"798 317 OFFCURVE",
"870 364 OFFCURVE",
"951 364 CURVE SMOOTH",
"1034 364 OFFCURVE",
"1071 327 OFFCURVE",
"1071 247 CURVE SMOOTH",
"1071 148 LINE"
);
}
);
width = 1338;
}
);
note = uni0635;
unicode = 0635;
},
{
glyphname = "sad-ar.fina";
lastChange = "2021-05-28 09:23:15 +0000";
layers = (
{
anchors = (
{
name = bottom;
position = "{811, -78}";
},
{
name = top;
position = "{830, 586}";
}
);
layerId = "307C4A58-79B8-4138-817C-FBEE21722E1A";
paths = (
{
closed = 1;
nodes = (
"1325 0 LINE SMOOTH",
"1328 0 OFFCURVE",
"1330 2 OFFCURVE",
"1330 5 CURVE SMOOTH",
"1330 116 LINE SMOOTH",
"1330 119 OFFCURVE",
"1328 120 OFFCURVE",
"1325 120 CURVE SMOOTH",
"1195 120 LINE",
"1195 240 LINE SMOOTH",
"1195 420 OFFCURVE",
"1111 505 OFFCURVE",
"947 505 CURVE SMOOTH",
"827 505 OFFCURVE",
"737 443 OFFCURVE",
"676 320 CURVE",
"676 495 LINE",
"527 495 LINE",
"527 39 LINE SMOOTH",
"527 -62 OFFCURVE",
"480 -120 OFFCURVE",
"377 -120 CURVE SMOOTH",
"347 -120 LINE SMOOTH",
"267 -120 OFFCURVE",
"214 -58 OFFCURVE",
"214 39 CURVE SMOOTH",
"214 107 OFFCURVE",
"227 190 OFFCURVE",
"248 261 CURVE",
"116 261 LINE",
"84 198 OFFCURVE",
"65 116 OFFCURVE",
"65 40 CURVE SMOOTH",
"65 -69 OFFCURVE",
"110 -158 OFFCURVE",
"192 -205 CURVE SMOOTH",
"233 -228 OFFCURVE",
"281 -240 OFFCURVE",
"337 -240 CURVE SMOOTH",
"381 -240 LINE SMOOTH",
"564 -240 OFFCURVE",
"664 -157 OFFCURVE",
"675 0 CURVE"
);
},
{
closed = 1;
nodes = (
"676 120 LINE",
"676 198 LINE",
"741 323 OFFCURVE",
"819 385 OFFCURVE",
"909 385 CURVE SMOOTH",
"1002 385 OFFCURVE",
"1046 340 OFFCURVE",
"1046 243 CURVE SMOOTH",
"1046 120 LINE"
);
}
);
userData = {
assembly = "NPUSHB[ ]	/* 43 values pushed */\01221 14 44 31 6 6 28 38 37 37 28 14 3 46 2 47 33 42 70 89 33 16 31 29 17 17 6 29 15 10 24 70 89 10 27 37 45 6 45 70 89 6 18 \012SVTCA[0]	/* SetFreedomAndProjectionVectorToAxis */\012MIAP[1]	/* MoveIndirectAbsPt */\012CALL[ ]	/* CallFunction */\012SRP1[ ]	/* SetRefPoint1 */\012SVTCA[0]	/* SetFreedomAndProjectionVectorToAxis */\012SHP[1]	/* ShiftPointByLastPoint */\012RTG[ ]	/* RoundToGrid */\012MIAP[1]	/* MoveIndirectAbsPt */\012CALL[ ]	/* CallFunction */\012SVTCA[0]	/* SetFreedomAndProjectionVectorToAxis */\012RTG[ ]	/* RoundToGrid */\012MIAP[1]	/* MoveIndirectAbsPt */\012SRP2[ ]	/* SetRefPoint2 */\012IP[ ]	/* InterpolatePts */\012MDAP[1]	/* MoveDirectAbsPt */\012SRP2[ ]	/* SetRefPoint2 */\012IP[ ]	/* InterpolatePts */\012MIAP[1]	/* MoveIndirectAbsPt */\012CALL[ ]	/* CallFunction */\012SRP1[ ]	/* SetRefPoint1 */\012SVTCA[1]	/* SetFreedomAndProjectionVectorToAxis */\012SHP[1]	/* ShiftPointByLastPoint */\012SRP2[ ]	/* SetRefPoint2 */\012SLOOP[ ]	/* SetLoopVariable */\012IP[ ]	/* InterpolatePts */\012SRP1[ ]	/* SetRefPoint1 */\012SHP[1]	/* ShiftPointByLastPoint */\012SRP1[ ]	/* SetRefPoint1 */\012SHP[1]	/* ShiftPointByLastPoint */\012SRP1[ ]	/* SetRefPoint1 */\012SHP[1]	/* ShiftPointByLastPoint */\012SHP[1]	/* ShiftPointByLastPoint */\012SRP1[ ]	/* SetRefPoint1 */\012SHP[1]	/* ShiftPointByLastPoint */\012IUP[1]	/* InterpolateUntPts */\012IUP[0]	/* InterpolateUntPts */";
};
width = 1320;
},
{
anchors = (
{
name = bottom;
position = "{811, -78}";
},
{
name = top;
position = "{830, 586}";
}
);
layerId = "15908E2C-AB74-4DC1-B0E7-8741EE8F4DA5";
paths = (
{
closed = 1;
nodes = (
"1227 0 LINE SMOOTH",
"1230 0 OFFCURVE",
"1232 2 OFFCURVE",
"1232 5 CURVE SMOOTH",
"1232 74 LINE SMOOTH",
"1232 77 OFFCURVE",
"1230 78 OFFCURVE",
"1227 78 CURVE SMOOTH",
"1093 78 LINE",
"1093 241 LINE SMOOTH",
"1093 416 OFFCURVE",
"1015 495 OFFCURVE",
"864 495 CURVE SMOOTH",
"745 495 OFFCURVE",
"650 419 OFFCURVE",
"587 270 CURVE",
"587 485 LINE",
"502 485 LINE",
"502 -3 LINE SMOOTH",
"502 -110 OFFCURVE",
"450 -162 OFFCURVE",
"334 -162 CURVE SMOOTH",
"285 -162 LINE SMOOTH",
"202 -162 OFFCURVE",
"155 -97 OFFCURVE",
"155 16 CURVE SMOOTH",
"155 116 OFFCURVE",
"166 195 OFFCURVE",
"189 252 CURVE",
"106 252 LINE",
"79 188 OFFCURVE",
"65 99 OFFCURVE",
"65 16 CURVE SMOOTH",
"65 -84 OFFCURVE",
"95 -159 OFFCURVE",
"148 -201 CURVE SMOOTH",
"179 -226 OFFCURVE",
"219 -240 OFFCURVE",
"266 -240 CURVE SMOOTH",
"338 -240 LINE SMOOTH",
"510 -240 OFFCURVE",
"587 -161 OFFCURVE",
"587 0 CURVE"
);
},
{
closed = 1;
nodes = (
"587 78 LINE",
"587 162 LINE",
"656 331 OFFCURVE",
"743 416 OFFCURVE",
"846 416 CURVE SMOOTH",
"955 416 OFFCURVE",
"1008 360 OFFCURVE",
"1008 237 CURVE SMOOTH",
"1008 78 LINE"
);
}
);
userData = {
assembly = "NPUSHB[ ]	/* 41 values pushed */\01213 7 44 23 0 0 20 30 20 7 3 45 33 46 26 41 70 89 26 16 23 21 10 10 0 21 15 4 16 70 89 4 27 30 44 0 44 70 89 0 18 \012SVTCA[0]	/* SetFreedomAndProjectionVectorToAxis */\012MIAP[1]	/* MoveIndirectAbsPt */\012CALL[ ]	/* CallFunction */\012SRP1[ ]	/* SetRefPoint1 */\012SVTCA[0]	/* SetFreedomAndProjectionVectorToAxis */\012SHP[1]	/* ShiftPointByLastPoint */\012RTG[ ]	/* RoundToGrid */\012MIAP[1]	/* MoveIndirectAbsPt */\012CALL[ ]	/* CallFunction */\012SVTCA[0]	/* SetFreedomAndProjectionVectorToAxis */\012RTG[ ]	/* RoundToGrid */\012MIAP[1]	/* MoveIndirectAbsPt */\012SRP2[ ]	/* SetRefPoint2 */\012IP[ ]	/* InterpolatePts */\012MDAP[1]	/* MoveDirectAbsPt */\012SRP2[ ]	/* SetRefPoint2 */\012IP[ ]	/* InterpolatePts */\012MIAP[1]	/* MoveIndirectAbsPt */\012CALL[ ]	/* CallFunction */\012SRP1[ ]	/* SetRefPoint1 */\012SVTCA[1]	/* SetFreedomAndProjectionVectorToAxis */\012SHP[1]	/* ShiftPointByLastPoint */\012SRP2[ ]	/* SetRefPoint2 */\012SLOOP[ ]	/* SetLoopVariable */\012IP[ ]	/* InterpolatePts */\012SRP1[ ]	/* SetRefPoint1 */\012SHP[1]	/* ShiftPointByLastPoint */\012SRP1[ ]	/* SetRefPoint1 */\012SHP[1]	/* ShiftPointByLastPoint */\012SHP[1]	/* ShiftPointByLastPoint */\012SRP1[ ]	/* SetRefPoint1 */\012SHP[1]	/* ShiftPointByLastPoint */\012IUP[1]	/* InterpolateUntPts */\012IUP[0]	/* InterpolateUntPts */";
};
width = 1222;
},
{
anchors = (
{
name = bottom;
position = "{771, -78}";
},
{
name = top;
position = "{790, 586}";
}
);
layerId = "410295A1-92BC-4707-ABFC-13885E60878B";
paths = (
{
closed = 1;
nodes = (
"1129 0 LINE SMOOTH",
"1132 0 OFFCURVE",
"1134 2 OFFCURVE",
"1134 5 CURVE SMOOTH",
"1134 20 LINE SMOOTH",
"1134 23 OFFCURVE",
"1132 24 OFFCURVE",
"1129 24 CURVE SMOOTH",
"991 24 LINE",
"991 258 LINE SMOOTH",
"991 411 OFFCURVE",
"918 485 OFFCURVE",
"792 485 CURVE SMOOTH",
"679 485 OFFCURVE",
"555 396 OFFCURVE",
"501 197 CURVE",
"501 486 LINE",
"477 486 LINE",
"477 -20 LINE SMOOTH",
"477 -158 OFFCURVE",
"422 -216 OFFCURVE",
"298 -216 CURVE SMOOTH",
"260 -216 LINE SMOOTH",
"142 -216 OFFCURVE",
"87 -148 OFFCURVE",
"85 -1 CURVE SMOOTH",
"84 83 OFFCURVE",
"96 166 OFFCURVE",
"123 228 CURVE",
"98 228 LINE",
"75 168 OFFCURVE",
"61 80 OFFCURVE",
"61 -2 CURVE SMOOTH",
"61 -108 OFFCURVE",
"91 -182 OFFCURVE",
"157 -217 CURVE SMOOTH",
"186 -232 OFFCURVE",
"221 -240 OFFCURVE",
"263 -240 CURVE SMOOTH",
"297 -240 LINE SMOOTH",
"449 -240 OFFCURVE",
"503 -164 OFFCURVE",
"501 0 CURVE"
);
},
{
closed = 1;
nodes = (
"501 24 LINE",
"501 131 LINE",
"567 373 OFFCURVE",
"681 461 OFFCURVE",
"794 461 CURVE SMOOTH",
"910 461 OFFCURVE",
"967 395 OFFCURVE",
"967 247 CURVE SMOOTH",
"967 24 LINE"
);
}
);
width = 1124;
},
{
anchors = (
{
name = bottom;
position = "{954, -78}";
},
{
name = top;
position = "{973, 586}";
}
);
layerId = "DCD2D043-4E01-4B5D-9248-443A06E88532";
paths = (
{
closed = 1;
nodes = (
"1390 0 LINE SMOOTH",
"1394 0 OFFCURVE",
"1395 2 OFFCURVE",
"1395 5 CURVE SMOOTH",
"1395 144 LINE SMOOTH",
"1395 147 OFFCURVE",
"1394 148 OFFCURVE",
"1390 148 CURVE SMOOTH",
"1263 148 LINE",
"1263 239 LINE SMOOTH",
"1263 423 OFFCURVE",
"1175 512 OFFCURVE",
"1002 512 CURVE SMOOTH",
"881 512 OFFCURVE",
"795 459 OFFCURVE",
"735 353 CURVE",
"735 502 LINE",
"544 502 LINE",
"544 67 LINE SMOOTH",
"544 -31 OFFCURVE",
"500 -92 OFFCURVE",
"406 -92 CURVE SMOOTH",
"394 -92 LINE SMOOTH",
"310 -92 OFFCURVE",
"253 -32 OFFCURVE",
"253 54 CURVE SMOOTH",
"253 101 OFFCURVE",
"267 187 OFFCURVE",
"287 267 CURVE",
"123 267 LINE",
"87 205 OFFCURVE",
"65 127 OFFCURVE",
"65 55 CURVE SMOOTH",
"65 -60 OFFCURVE",
"119 -161 OFFCURVE",
"220 -211 CURVE SMOOTH",
"268 -233 OFFCURVE",
"322 -244 OFFCURVE",
"390 -244 CURVE SMOOTH",
"410 -244 LINE SMOOTH",
"600 -244 OFFCURVE",
"716 -155 OFFCURVE",
"734 0 CURVE"
);
},
{
closed = 1;
nodes = (
"735 148 LINE",
"735 222 LINE",
"798 317 OFFCURVE",
"870 364 OFFCURVE",
"951 364 CURVE SMOOTH",
"1034 364 OFFCURVE",
"1071 327 OFFCURVE",
"1071 247 CURVE SMOOTH",
"1071 148 LINE"
);
}
);
width = 1385;
}
);
note = uni0635.fina;
},
{
glyphname = "sad-ar.medi";
lastChange = "2021-05-28 09:23:25 +0000";
layers = (
{
anchors = (
{
name = bottom;
position = "{391, -78}";
},
{
name = top;
position = "{420, 586}";
}
);
layerId = "307C4A58-79B8-4138-817C-FBEE21722E1A";
paths = (
{
closed = 1;
nodes = (
"911 0 LINE SMOOTH",
"914 0 OFFCURVE",
"916 2 OFFCURVE",
"916 5 CURVE SMOOTH",
"916 116 LINE SMOOTH",
"916 119 OFFCURVE",
"914 120 OFFCURVE",
"911 120 CURVE SMOOTH",
"781 120 LINE",
"781 240 LINE SMOOTH",
"781 420 OFFCURVE",
"697 505 OFFCURVE",
"533 505 CURVE SMOOTH",
"414 505 OFFCURVE",
"323 443 OFFCURVE",
"262 320 CURVE",
"262 495 LINE",
"113 495 LINE",
"113 120 LINE",
"-5 120 LINE SMOOTH",
"-8 120 OFFCURVE",
"-10 119 OFFCURVE",
"-10 116 CURVE SMOOTH",
"-10 5 LINE SMOOTH",
"-10 2 OFFCURVE",
"-8 0 OFFCURVE",
"-5 0 CURVE SMOOTH"
);
},
{
closed = 1;
nodes = (
"262 120 LINE",
"262 198 LINE",
"327 323 OFFCURVE",
"405 385 OFFCURVE",
"495 385 CURVE SMOOTH",
"588 385 OFFCURVE",
"632 340 OFFCURVE",
"632 243 CURVE SMOOTH",
"632 120 LINE"
);
}
);
userData = {
assembly = "NPUSHB[ ]	/* 32 values pushed */\01222 15 9 29 29 6 15 6 30 18 31 3 30 11 26 70 89 11 16 9 0 7 15 29 15 5 0 5 70 89 0 18 \012SVTCA[0]	/* SetFreedomAndProjectionVectorToAxis */\012MIAP[1]	/* MoveIndirectAbsPt */\012CALL[ ]	/* CallFunction */\012SRP1[ ]	/* SetRefPoint1 */\012SVTCA[0]	/* SetFreedomAndProjectionVectorToAxis */\012SHP[1]	/* ShiftPointByLastPoint */\012SHP[1]	/* ShiftPointByLastPoint */\012RTG[ ]	/* RoundToGrid */\012MIAP[1]	/* MoveIndirectAbsPt */\012SRP2[ ]	/* SetRefPoint2 */\012IP[ ]	/* InterpolatePts */\012MIAP[1]	/* MoveIndirectAbsPt */\012CALL[ ]	/* CallFunction */\012SRP1[ ]	/* SetRefPoint1 */\012SVTCA[1]	/* SetFreedomAndProjectionVectorToAxis */\012SHP[1]	/* ShiftPointByLastPoint */\012SRP1[ ]	/* SetRefPoint1 */\012SHP[1]	/* ShiftPointByLastPoint */\012SRP2[ ]	/* SetRefPoint2 */\012IP[ ]	/* InterpolatePts */\012IP[ ]	/* InterpolatePts */\012SRP1[ ]	/* SetRefPoint1 */\012SHP[1]	/* ShiftPointByLastPoint */\012SRP1[ ]	/* SetRefPoint1 */\012SHP[1]	/* ShiftPointByLastPoint */\012SRP1[ ]	/* SetRefPoint1 */\012SHP[1]	/* ShiftPointByLastPoint */\012IUP[1]	/* InterpolateUntPts */\012IUP[0]	/* InterpolateUntPts */";
};
width = 906;
},
{
anchors = (
{
name = bottom;
position = "{391, -78}";
},
{
name = top;
position = "{420, 586}";
}
);
layerId = "15908E2C-AB74-4DC1-B0E7-8741EE8F4DA5";
paths = (
{
closed = 1;
nodes = (
"840 0 LINE SMOOTH",
"843 0 OFFCURVE",
"845 2 OFFCURVE",
"845 5 CURVE SMOOTH",
"845 74 LINE SMOOTH",
"845 77 OFFCURVE",
"843 78 OFFCURVE",
"840 78 CURVE SMOOTH",
"708 78 LINE",
"708 241 LINE SMOOTH",
"708 416 OFFCURVE",
"630 495 OFFCURVE",
"479 495 CURVE SMOOTH",
"362 495 OFFCURVE",
"265 419 OFFCURVE",
"202 270 CURVE",
"202 455 LINE",
"117 455 LINE",
"117 78 LINE",
"-5 78 LINE SMOOTH",
"-8 78 OFFCURVE",
"-10 77 OFFCURVE",
"-10 74 CURVE SMOOTH",
"-10 5 LINE SMOOTH",
"-10 2 OFFCURVE",
"-8 0 OFFCURVE",
"-5 0 CURVE SMOOTH"
);
},
{
closed = 1;
nodes = (
"202 78 LINE",
"202 160 LINE",
"272 331 OFFCURVE",
"358 416 OFFCURVE",
"461 416 CURVE SMOOTH",
"569 416 OFFCURVE",
"623 360 OFFCURVE",
"623 237 CURVE SMOOTH",
"623 78 LINE"
);
}
);
userData = {
assembly = "NPUSHB[ ]	/* 33 values pushed */\01223 16 9 30 30 6 16 6 31 19 32 3 31 9 0 12 12 27 70 89 12 16 7 15 30 16 5 0 5 70 89 0 18 \012SVTCA[0]	/* SetFreedomAndProjectionVectorToAxis */\012MIAP[1]	/* MoveIndirectAbsPt */\012CALL[ ]	/* CallFunction */\012SRP1[ ]	/* SetRefPoint1 */\012SVTCA[0]	/* SetFreedomAndProjectionVectorToAxis */\012SHP[1]	/* ShiftPointByLastPoint */\012SHP[1]	/* ShiftPointByLastPoint */\012RTG[ ]	/* RoundToGrid */\012MIAP[1]	/* MoveIndirectAbsPt */\012MIAP[1]	/* MoveIndirectAbsPt */\012CALL[ ]	/* CallFunction */\012SRP1[ ]	/* SetRefPoint1 */\012SRP2[ ]	/* SetRefPoint2 */\012SVTCA[0]	/* SetFreedomAndProjectionVectorToAxis */\012IP[ ]	/* InterpolatePts */\012SRP1[ ]	/* SetRefPoint1 */\012SVTCA[1]	/* SetFreedomAndProjectionVectorToAxis */\012SHP[1]	/* ShiftPointByLastPoint */\012SRP1[ ]	/* SetRefPoint1 */\012SHP[1]	/* ShiftPointByLastPoint */\012SRP2[ ]	/* SetRefPoint2 */\012IP[ ]	/* InterpolatePts */\012IP[ ]	/* InterpolatePts */\012SRP1[ ]	/* SetRefPoint1 */\012SHP[1]	/* ShiftPointByLastPoint */\012SRP1[ ]	/* SetRefPoint1 */\012SHP[1]	/* ShiftPointByLastPoint */\012SRP1[ ]	/* SetRefPoint1 */\012SHP[1]	/* ShiftPointByLastPoint */\012IUP[1]	/* InterpolateUntPts */\012IUP[0]	/* InterpolateUntPts */";
};
width = 835;
},
{
anchors = (
{
name = bottom;
position = "{391, -78}";
},
{
name = top;
position = "{420, 586}";
}
);
layerId = "410295A1-92BC-4707-ABFC-13885E60878B";
paths = (
{
closed = 1;
nodes = (
"769 0 LINE",
"772 0 OFFCURVE",
"774 2 OFFCURVE",
"774 5 CURVE SMOOTH",
"774 20 LINE SMOOTH",
"774 23 OFFCURVE",
"772 24 OFFCURVE",
"769 24 CURVE SMOOTH",
"631 24 LINE",
"631 258 LINE SMOOTH",
"631 411 OFFCURVE",
"558 485 OFFCURVE",
"432 485 CURVE SMOOTH",
"319 485 OFFCURVE",
"195 396 OFFCURVE",
"141 197 CURVE",
"141 415 LINE",
"117 415 LINE",
"117 24 LINE",
"-5 24 LINE SMOOTH",
"-8 24 OFFCURVE",
"-10 23 OFFCURVE",
"-10 20 CURVE SMOOTH",
"-10 5 LINE SMOOTH",
"-10 2 OFFCURVE",
"-8 0 OFFCURVE",
"-5 0 CURVE SMOOTH"
);
},
{
closed = 1;
nodes = (
"141 24 LINE",
"141 131 LINE",
"207 373 OFFCURVE",
"321 461 OFFCURVE",
"434 461 CURVE SMOOTH",
"550 461 OFFCURVE",
"607 395 OFFCURVE",
"607 247 CURVE SMOOTH",
"607 24 LINE"
);
}
);
width = 764;
},
{
anchors = (
{
name = bottom;
position = "{524, -78}";
},
{
name = top;
position = "{543, 586}";
}
);
layerId = "DCD2D043-4E01-4B5D-9248-443A06E88532";
paths = (
{
closed = 1;
nodes = (
"958 0 LINE SMOOTH",
"962 0 OFFCURVE",
"963 2 OFFCURVE",
"963 5 CURVE SMOOTH",
"963 144 LINE SMOOTH",
"963 147 OFFCURVE",
"962 148 OFFCURVE",
"958 148 CURVE SMOOTH",
"830 148 LINE",
"830 239 LINE SMOOTH",
"830 423 OFFCURVE",
"742 512 OFFCURVE",
"569 512 CURVE SMOOTH",
"448 512 OFFCURVE",
"362 459 OFFCURVE",
"302 353 CURVE",
"302 522 LINE",
"110 522 LINE",
"110 148 LINE",
"-5 148 LINE SMOOTH",
"-8 148 OFFCURVE",
"-10 147 OFFCURVE",
"-10 144 CURVE SMOOTH",
"-10 5 LINE SMOOTH",
"-10 2 OFFCURVE",
"-8 0 OFFCURVE",
"-5 0 CURVE SMOOTH"
);
},
{
closed = 1;
nodes = (
"302 148 LINE",
"302 223 LINE",
"364 317 OFFCURVE",
"436 364 OFFCURVE",
"518 364 CURVE SMOOTH",
"601 364 OFFCURVE",
"638 327 OFFCURVE",
"638 247 CURVE SMOOTH",
"638 148 LINE"
);
}
);
width = 953;
}
);
note = uni0635.medi;
},
{
glyphname = "sad-ar.init";
lastChange = "2021-05-28 09:23:36 +0000";
layers = (
{
anchors = (
{
name = bottom;
position = "{391, -78}";
},
{
name = top;
position = "{420, 586}";
}
);
layerId = "307C4A58-79B8-4138-817C-FBEE21722E1A";
paths = (
{
closed = 1;
nodes = (
"781 0 LINE",
"781 240 LINE SMOOTH",
"781 420 OFFCURVE",
"697 505 OFFCURVE",
"533 505 CURVE SMOOTH",
"414 505 OFFCURVE",
"323 443 OFFCURVE",
"262 320 CURVE",
"262 495 LINE",
"113 495 LINE",
"113 120 LINE",
"-5 120 LINE SMOOTH",
"-8 120 OFFCURVE",
"-10 119 OFFCURVE",
"-10 116 CURVE SMOOTH",
"-10 5 LINE SMOOTH",
"-10 2 OFFCURVE",
"-8 0 OFFCURVE",
"-5 0 CURVE SMOOTH"
);
},
{
closed = 1;
nodes = (
"262 120 LINE",
"262 198 LINE",
"327 323 OFFCURVE",
"405 385 OFFCURVE",
"495 385 CURVE SMOOTH",
"588 385 OFFCURVE",
"632 340 OFFCURVE",
"632 243 CURVE SMOOTH",
"632 120 LINE"
);
}
);
userData = {
assembly = "NPUSHB[ ]	/* 29 values pushed */\0120 23 17 7 7 14 23 14 25 11 24 19 4 70 89 19 16 17 8 15 15 7 13 8 13 70 89 8 18 \012SVTCA[0]	/* SetFreedomAndProjectionVectorToAxis */\012MIAP[1]	/* MoveIndirectAbsPt */\012CALL[ ]	/* CallFunction */\012SRP1[ ]	/* SetRefPoint1 */\012SVTCA[0]	/* SetFreedomAndProjectionVectorToAxis */\012SHP[1]	/* ShiftPointByLastPoint */\012RTG[ ]	/* RoundToGrid */\012MIAP[1]	/* MoveIndirectAbsPt */\012SRP2[ ]	/* SetRefPoint2 */\012IP[ ]	/* InterpolatePts */\012MIAP[1]	/* MoveIndirectAbsPt */\012CALL[ ]	/* CallFunction */\012SRP1[ ]	/* SetRefPoint1 */\012SVTCA[1]	/* SetFreedomAndProjectionVectorToAxis */\012SHP[1]	/* ShiftPointByLastPoint */\012SRP2[ ]	/* SetRefPoint2 */\012IP[ ]	/* InterpolatePts */\012IP[ ]	/* InterpolatePts */\012SRP1[ ]	/* SetRefPoint1 */\012SHP[1]	/* ShiftPointByLastPoint */\012SRP1[ ]	/* SetRefPoint1 */\012SHP[1]	/* ShiftPointByLastPoint */\012SRP1[ ]	/* SetRefPoint1 */\012SHP[1]	/* ShiftPointByLastPoint */\012IUP[1]	/* InterpolateUntPts */\012IUP[0]	/* InterpolateUntPts */";
};
width = 856;
},
{
anchors = (
{
name = bottom;
position = "{391, -78}";
},
{
name = top;
position = "{420, 586}";
}
);
layerId = "15908E2C-AB74-4DC1-B0E7-8741EE8F4DA5";
paths = (
{
closed = 1;
nodes = (
"708 0 LINE",
"708 241 LINE SMOOTH",
"708 416 OFFCURVE",
"630 495 OFFCURVE",
"479 495 CURVE SMOOTH",
"362 495 OFFCURVE",
"265 419 OFFCURVE",
"202 270 CURVE",
"202 455 LINE",
"117 455 LINE",
"117 78 LINE",
"-5 78 LINE SMOOTH",
"-8 78 OFFCURVE",
"-10 77 OFFCURVE",
"-10 74 CURVE SMOOTH",
"-10 5 LINE SMOOTH",
"-10 2 OFFCURVE",
"-8 0 OFFCURVE",
"-5 0 CURVE SMOOTH"
);
},
{
closed = 1;
nodes = (
"202 78 LINE",
"202 160 LINE",
"272 331 OFFCURVE",
"358 416 OFFCURVE",
"461 416 CURVE SMOOTH",
"569 416 OFFCURVE",
"623 360 OFFCURVE",
"623 237 CURVE SMOOTH",
"623 78 LINE"
);
}
);
userData = {
assembly = "NPUSHB[ ]	/* 30 values pushed */\0129 24 24 6 17 16 6 16 26 3 25 9 0 12 12 21 70 89 12 16 7 15 24 5 0 5 70 89 0 18 \012SVTCA[0]	/* SetFreedomAndProjectionVectorToAxis */\012MIAP[1]	/* MoveIndirectAbsPt */\012CALL[ ]	/* CallFunction */\012SRP1[ ]	/* SetRefPoint1 */\012SVTCA[0]	/* SetFreedomAndProjectionVectorToAxis */\012SHP[1]	/* ShiftPointByLastPoint */\012RTG[ ]	/* RoundToGrid */\012MIAP[1]	/* MoveIndirectAbsPt */\012MIAP[1]	/* MoveIndirectAbsPt */\012CALL[ ]	/* CallFunction */\012SRP1[ ]	/* SetRefPoint1 */\012SRP2[ ]	/* SetRefPoint2 */\012SVTCA[0]	/* SetFreedomAndProjectionVectorToAxis */\012IP[ ]	/* InterpolatePts */\012SRP1[ ]	/* SetRefPoint1 */\012SVTCA[1]	/* SetFreedomAndProjectionVectorToAxis */\012SHP[1]	/* ShiftPointByLastPoint */\012SRP2[ ]	/* SetRefPoint2 */\012IP[ ]	/* InterpolatePts */\012IP[ ]	/* InterpolatePts */\012SRP1[ ]	/* SetRefPoint1 */\012SHP[1]	/* ShiftPointByLastPoint */\012SRP1[ ]	/* SetRefPoint1 */\012SHP[1]	/* ShiftPointByLastPoint */\012SRP1[ ]	/* SetRefPoint1 */\012SHP[1]	/* ShiftPointByLastPoint */\012IUP[1]	/* InterpolateUntPts */\012IUP[0]	/* InterpolateUntPts */";
};
width = 783;
},
{
anchors = (
{
name = bottom;
position = "{391, -78}";
},
{
name = top;
position = "{420, 586}";
}
);
layerId = "410295A1-92BC-4707-ABFC-13885E60878B";
paths = (
{
closed = 1;
nodes = (
"631 0 LINE",
"631 258 LINE SMOOTH",
"631 411 OFFCURVE",
"558 485 OFFCURVE",
"432 485 CURVE SMOOTH",
"319 485 OFFCURVE",
"195 396 OFFCURVE",
"141 197 CURVE",
"141 415 LINE",
"117 415 LINE",
"117 24 LINE",
"-5 24 LINE SMOOTH",
"-8 24 OFFCURVE",
"-10 23 OFFCURVE",
"-10 20 CURVE SMOOTH",
"-10 5 LINE SMOOTH",
"-10 2 OFFCURVE",
"-8 0 OFFCURVE",
"-5 0 CURVE"
);
},
{
closed = 1;
nodes = (
"141 24 LINE",
"141 131 LINE",
"207 373 OFFCURVE",
"321 461 OFFCURVE",
"434 461 CURVE SMOOTH",
"550 461 OFFCURVE",
"607 395 OFFCURVE",
"607 247 CURVE SMOOTH",
"607 24 LINE"
);
}
);
width = 710;
},
{
anchors = (
{
name = bottom;
position = "{511, -78}";
},
{
name = top;
position = "{540, 586}";
}
);
layerId = "DCD2D043-4E01-4B5D-9248-443A06E88532";
paths = (
{
closed = 1;
nodes = (
"830 0 LINE",
"830 239 LINE SMOOTH",
"830 423 OFFCURVE",
"742 512 OFFCURVE",
"569 512 CURVE SMOOTH",
"448 512 OFFCURVE",
"362 459 OFFCURVE",
"302 353 CURVE",
"302 522 LINE",
"110 522 LINE",
"110 148 LINE",
"-5 148 LINE SMOOTH",
"-8 148 OFFCURVE",
"-10 147 OFFCURVE",
"-10 144 CURVE SMOOTH",
"-10 5 LINE SMOOTH",
"-10 2 OFFCURVE",
"-8 0 OFFCURVE",
"-5 0 CURVE SMOOTH"
);
},
{
closed = 1;
nodes = (
"302 148 LINE",
"302 223 LINE",
"364 317 OFFCURVE",
"436 364 OFFCURVE",
"518 364 CURVE SMOOTH",
"601 364 OFFCURVE",
"638 327 OFFCURVE",
"638 247 CURVE SMOOTH",
"638 148 LINE"
);
}
);
width = 905;
}
);
note = uni0635.init;
},
{
glyphname = "tah-ar";
lastChange = "2021-05-30 08:41:00 +0000";
layers = (
{
anchors = (
{
name = bottom;
position = "{391, -78}";
},
{
name = top;
position = "{523, 585}";
}
);
layerId = "307C4A58-79B8-4138-817C-FBEE21722E1A";
paths = (
{
closed = 1;
nodes = (
"781 0 LINE",
"781 240 LINE SMOOTH",
"781 420 OFFCURVE",
"697 505 OFFCURVE",
"533 505 CURVE SMOOTH",
"414 505 OFFCURVE",
"323 443 OFFCURVE",
"262 320 CURVE",
"262 760 LINE",
"113 760 LINE",
"113 120 LINE",
"25 120 LINE SMOOTH",
"21 120 OFFCURVE",
"20 119 OFFCURVE",
"20 115 CURVE SMOOTH",
"20 6 LINE SMOOTH",
"20 2 OFFCURVE",
"21 0 OFFCURVE",
"25 0 CURVE SMOOTH"
);
},
{
closed = 1;
nodes = (
"262 198 LINE",
"327 323 OFFCURVE",
"405 385 OFFCURVE",
"495 385 CURVE SMOOTH",
"588 385 OFFCURVE",
"632 340 OFFCURVE",
"632 243 CURVE SMOOTH",
"632 120 LINE",
"262 120 LINE"
);
}
);
userData = {
assembly = "NPUSHB[ ]	/* 31 values pushed */\0120 18 12 7 7 9 8 9 18 3 21 20 12 19 14 7 8 19 8 70 89 19 18 14 4 70 89 14 16 10 0 \012SVTCA[0]	/* SetFreedomAndProjectionVectorToAxis */\012MIAP[1]	/* MoveIndirectAbsPt */\012MIAP[1]	/* MoveIndirectAbsPt */\012CALL[ ]	/* CallFunction */\012SVTCA[0]	/* SetFreedomAndProjectionVectorToAxis */\012RTG[ ]	/* RoundToGrid */\012MIAP[1]	/* MoveIndirectAbsPt */\012CALL[ ]	/* CallFunction */\012SRP1[ ]	/* SetRefPoint1 */\012SVTCA[0]	/* SetFreedomAndProjectionVectorToAxis */\012SHP[1]	/* ShiftPointByLastPoint */\012SRP1[ ]	/* SetRefPoint1 */\012SRP2[ ]	/* SetRefPoint2 */\012IP[ ]	/* InterpolatePts */\012SRP1[ ]	/* SetRefPoint1 */\012SRP2[ ]	/* SetRefPoint2 */\012SVTCA[1]	/* SetFreedomAndProjectionVectorToAxis */\012SLOOP[ ]	/* SetLoopVariable */\012IP[ ]	/* InterpolatePts */\012SRP1[ ]	/* SetRefPoint1 */\012SHP[1]	/* ShiftPointByLastPoint */\012SRP1[ ]	/* SetRefPoint1 */\012SHP[1]	/* ShiftPointByLastPoint */\012SRP1[ ]	/* SetRefPoint1 */\012SHP[1]	/* ShiftPointByLastPoint */\012IUP[1]	/* InterpolateUntPts */\012IUP[0]	/* InterpolateUntPts */";
};
width = 856;
},
{
anchors = (
{
name = bottom;
position = "{391, -78}";
},
{
name = top;
position = "{491, 605}";
}
);
layerId = "15908E2C-AB74-4DC1-B0E7-8741EE8F4DA5";
paths = (
{
closed = 1;
nodes = (
"738 0 LINE",
"738 241 LINE SMOOTH",
"738 416 OFFCURVE",
"660 495 OFFCURVE",
"509 495 CURVE SMOOTH",
"390 495 OFFCURVE",
"295 419 OFFCURVE",
"232 270 CURVE",
"232 760 LINE",
"147 760 LINE",
"147 78 LINE",
"25 78 LINE SMOOTH",
"22 78 OFFCURVE",
"20 77 OFFCURVE",
"20 74 CURVE SMOOTH",
"20 5 LINE SMOOTH",
"20 2 OFFCURVE",
"22 0 OFFCURVE",
"25 0 CURVE SMOOTH"
);
},
{
closed = 1;
nodes = (
"232 160 LINE",
"303 332 OFFCURVE",
"391 416 OFFCURVE",
"491 416 CURVE SMOOTH",
"600 416 OFFCURVE",
"653 360 OFFCURVE",
"653 237 CURVE SMOOTH",
"653 78 LINE",
"232 78 LINE"
);
}
);
userData = {
assembly = "NPUSHB[ ]	/* 31 values pushed */\01217 16 9 24 24 6 3 6 16 3 27 26 9 0 12 12 21 70 89 12 16 7 0 25 5 0 5 70 89 0 18 \012SVTCA[0]	/* SetFreedomAndProjectionVectorToAxis */\012MIAP[1]	/* MoveIndirectAbsPt */\012CALL[ ]	/* CallFunction */\012SRP1[ ]	/* SetRefPoint1 */\012SVTCA[0]	/* SetFreedomAndProjectionVectorToAxis */\012SHP[1]	/* ShiftPointByLastPoint */\012RTG[ ]	/* RoundToGrid */\012MIAP[1]	/* MoveIndirectAbsPt */\012MIAP[1]	/* MoveIndirectAbsPt */\012CALL[ ]	/* CallFunction */\012SRP1[ ]	/* SetRefPoint1 */\012SRP2[ ]	/* SetRefPoint2 */\012SVTCA[0]	/* SetFreedomAndProjectionVectorToAxis */\012IP[ ]	/* InterpolatePts */\012SRP1[ ]	/* SetRefPoint1 */\012SRP2[ ]	/* SetRefPoint2 */\012SVTCA[1]	/* SetFreedomAndProjectionVectorToAxis */\012SLOOP[ ]	/* SetLoopVariable */\012IP[ ]	/* InterpolatePts */\012SRP1[ ]	/* SetRefPoint1 */\012SHP[1]	/* ShiftPointByLastPoint */\012SRP1[ ]	/* SetRefPoint1 */\012SHP[1]	/* ShiftPointByLastPoint */\012SRP1[ ]	/* SetRefPoint1 */\012SHP[1]	/* ShiftPointByLastPoint */\012IUP[1]	/* InterpolateUntPts */\012IUP[0]	/* InterpolateUntPts */";
};
width = 803;
},
{
anchors = (
{
name = bottom;
position = "{421, -78}";
},
{
name = top;
position = "{460, 576}";
}
);
layerId = "410295A1-92BC-4707-ABFC-13885E60878B";
paths = (
{
closed = 1;
nodes = (
"661 0 LINE",
"661 258 LINE SMOOTH",
"661 411 OFFCURVE",
"588 485 OFFCURVE",
"462 485 CURVE SMOOTH",
"349 485 OFFCURVE",
"225 396 OFFCURVE",
"171 197 CURVE",
"171 760 LINE",
"147 760 LINE",
"147 24 LINE",
"25 24 LINE SMOOTH",
"22 24 OFFCURVE",
"20 23 OFFCURVE",
"20 20 CURVE SMOOTH",
"20 5 LINE SMOOTH",
"20 2 OFFCURVE",
"22 0 OFFCURVE",
"25 0 CURVE"
);
},
{
closed = 1;
nodes = (
"171 131 LINE",
"237 373 OFFCURVE",
"351 461 OFFCURVE",
"464 461 CURVE SMOOTH",
"580 461 OFFCURVE",
"637 395 OFFCURVE",
"637 247 CURVE SMOOTH",
"637 24 LINE",
"171 24 LINE"
);
}
);
width = 716;
},
{
anchors = (
{
name = bottom;
position = "{474, -78}";
},
{
name = top;
position = "{540, 595}";
}
);
layerId = "DCD2D043-4E01-4B5D-9248-443A06E88532";
paths = (
{
closed = 1;
nodes = (
"810 0 LINE",
"810 239 LINE SMOOTH",
"810 423 OFFCURVE",
"722 512 OFFCURVE",
"549 512 CURVE SMOOTH",
"429 512 OFFCURVE",
"342 459 OFFCURVE",
"282 353 CURVE",
"282 760 LINE",
"90 760 LINE",
"90 148 LINE",
"25 148 LINE SMOOTH",
"21 148 OFFCURVE",
"20 147 OFFCURVE",
"20 142 CURVE SMOOTH",
"20 7 LINE SMOOTH",
"20 2 OFFCURVE",
"21 0 OFFCURVE",
"25 0 CURVE SMOOTH"
);
},
{
closed = 1;
nodes = (
"282 223 LINE",
"344 317 OFFCURVE",
"414 364 OFFCURVE",
"498 364 CURVE SMOOTH",
"580 364 OFFCURVE",
"618 327 OFFCURVE",
"618 247 CURVE SMOOTH",
"618 148 LINE",
"282 148 LINE"
);
}
);
width = 891;
}
);
note = uni0637;
unicode = 0637;
},
{
glyphname = "tah-ar.fina";
lastChange = "2021-05-28 09:23:58 +0000";
layers = (
{
anchors = (
{
name = bottom;
position = "{391, -78}";
},
{
name = top;
position = "{533, 583}";
}
);
layerId = "307C4A58-79B8-4138-817C-FBEE21722E1A";
paths = (
{
closed = 1;
nodes = (
"20 0 LINE",
"911 0 LINE SMOOTH",
"914 0 OFFCURVE",
"916 2 OFFCURVE",
"916 5 CURVE SMOOTH",
"916 116 LINE SMOOTH",
"916 119 OFFCURVE",
"914 120 OFFCURVE",
"911 120 CURVE SMOOTH",
"781 120 LINE",
"781 240 LINE SMOOTH",
"781 420 OFFCURVE",
"697 505 OFFCURVE",
"533 505 CURVE SMOOTH",
"414 505 OFFCURVE",
"323 443 OFFCURVE",
"262 320 CURVE",
"262 760 LINE",
"113 760 LINE",
"113 120 LINE",
"20 120 LINE"
);
},
{
closed = 1;
nodes = (
"262 120 LINE",
"262 198 LINE",
"327 323 OFFCURVE",
"405 385 OFFCURVE",
"495 385 CURVE SMOOTH",
"588 385 OFFCURVE",
"632 340 OFFCURVE",
"632 243 CURVE SMOOTH",
"632 120 LINE"
);
}
);
userData = {
assembly = "NPUSHB[ ]	/* 33 values pushed */\0124 25 25 1 18 10 10 1 0 3 26 13 27 4 17 6 25 10 0 17 0 70 89 17 18 6 22 70 89 6 16 2 0 \012SVTCA[0]	/* SetFreedomAndProjectionVectorToAxis */\012MIAP[1]	/* MoveIndirectAbsPt */\012MIAP[1]	/* MoveIndirectAbsPt */\012CALL[ ]	/* CallFunction */\012SVTCA[0]	/* SetFreedomAndProjectionVectorToAxis */\012RTG[ ]	/* RoundToGrid */\012MIAP[1]	/* MoveIndirectAbsPt */\012CALL[ ]	/* CallFunction */\012SRP1[ ]	/* SetRefPoint1 */\012SVTCA[0]	/* SetFreedomAndProjectionVectorToAxis */\012SHP[1]	/* ShiftPointByLastPoint */\012SHP[1]	/* ShiftPointByLastPoint */\012SRP1[ ]	/* SetRefPoint1 */\012SRP2[ ]	/* SetRefPoint2 */\012IP[ ]	/* InterpolatePts */\012SRP1[ ]	/* SetRefPoint1 */\012SVTCA[1]	/* SetFreedomAndProjectionVectorToAxis */\012SHP[1]	/* ShiftPointByLastPoint */\012SRP2[ ]	/* SetRefPoint2 */\012SLOOP[ ]	/* SetLoopVariable */\012IP[ ]	/* InterpolatePts */\012SRP1[ ]	/* SetRefPoint1 */\012SHP[1]	/* ShiftPointByLastPoint */\012SRP1[ ]	/* SetRefPoint1 */\012SHP[1]	/* ShiftPointByLastPoint */\012SRP1[ ]	/* SetRefPoint1 */\012SHP[1]	/* ShiftPointByLastPoint */\012IUP[1]	/* InterpolateUntPts */\012IUP[0]	/* InterpolateUntPts */";
};
width = 906;
},
{
anchors = (
{
name = bottom;
position = "{391, -78}";
},
{
name = top;
position = "{485, 597}";
}
);
layerId = "15908E2C-AB74-4DC1-B0E7-8741EE8F4DA5";
paths = (
{
closed = 1;
nodes = (
"30 0 LINE",
"850 0 LINE SMOOTH",
"853 0 OFFCURVE",
"855 2 OFFCURVE",
"855 5 CURVE SMOOTH",
"855 74 LINE SMOOTH",
"855 77 OFFCURVE",
"853 78 OFFCURVE",
"850 78 CURVE SMOOTH",
"718 78 LINE",
"718 241 LINE SMOOTH",
"718 416 OFFCURVE",
"640 495 OFFCURVE",
"489 495 CURVE SMOOTH",
"370 495 OFFCURVE",
"275 419 OFFCURVE",
"212 270 CURVE",
"212 760 LINE",
"127 760 LINE",
"127 78 LINE",
"30 78 LINE"
);
},
{
closed = 1;
nodes = (
"212 78 LINE",
"212 160 LINE",
"283 332 OFFCURVE",
"371 416 OFFCURVE",
"471 416 CURVE SMOOTH",
"580 416 OFFCURVE",
"633 360 OFFCURVE",
"633 237 CURVE SMOOTH",
"633 78 LINE"
);
}
);
userData = {
assembly = "NPUSHB[ ]	/* 33 values pushed */\01219 11 4 26 26 1 0 1 11 3 28 14 29 4 18 7 27 11 0 18 0 70 89 18 18 7 23 70 89 7 16 2 0 \012SVTCA[0]	/* SetFreedomAndProjectionVectorToAxis */\012MIAP[1]	/* MoveIndirectAbsPt */\012MIAP[1]	/* MoveIndirectAbsPt */\012CALL[ ]	/* CallFunction */\012SVTCA[0]	/* SetFreedomAndProjectionVectorToAxis */\012RTG[ ]	/* RoundToGrid */\012MIAP[1]	/* MoveIndirectAbsPt */\012CALL[ ]	/* CallFunction */\012SRP1[ ]	/* SetRefPoint1 */\012SVTCA[0]	/* SetFreedomAndProjectionVectorToAxis */\012SHP[1]	/* ShiftPointByLastPoint */\012SHP[1]	/* ShiftPointByLastPoint */\012SRP1[ ]	/* SetRefPoint1 */\012SRP2[ ]	/* SetRefPoint2 */\012IP[ ]	/* InterpolatePts */\012SRP1[ ]	/* SetRefPoint1 */\012SVTCA[1]	/* SetFreedomAndProjectionVectorToAxis */\012SHP[1]	/* ShiftPointByLastPoint */\012SRP2[ ]	/* SetRefPoint2 */\012SLOOP[ ]	/* SetLoopVariable */\012IP[ ]	/* InterpolatePts */\012SRP1[ ]	/* SetRefPoint1 */\012SHP[1]	/* ShiftPointByLastPoint */\012SRP1[ ]	/* SetRefPoint1 */\012SHP[1]	/* ShiftPointByLastPoint */\012SRP1[ ]	/* SetRefPoint1 */\012SHP[1]	/* ShiftPointByLastPoint */\012IUP[1]	/* InterpolateUntPts */\012IUP[0]	/* InterpolateUntPts */";
};
width = 845;
},
{
anchors = (
{
name = bottom;
position = "{411, -78}";
},
{
name = top;
position = "{430, 576}";
}
);
layerId = "410295A1-92BC-4707-ABFC-13885E60878B";
paths = (
{
closed = 1;
nodes = (
"22 0 LINE",
"789 0 LINE SMOOTH",
"792 0 OFFCURVE",
"794 2 OFFCURVE",
"794 5 CURVE SMOOTH",
"794 20 LINE SMOOTH",
"794 23 OFFCURVE",
"792 24 OFFCURVE",
"789 24 CURVE SMOOTH",
"661 24 LINE",
"661 258 LINE SMOOTH",
"661 411 OFFCURVE",
"588 485 OFFCURVE",
"462 485 CURVE SMOOTH",
"349 485 OFFCURVE",
"225 396 OFFCURVE",
"171 197 CURVE",
"171 760 LINE",
"147 760 LINE",
"147 24 LINE",
"22 24 LINE"
);
},
{
closed = 1;
nodes = (
"171 24 LINE",
"171 131 LINE",
"237 373 OFFCURVE",
"351 461 OFFCURVE",
"464 461 CURVE SMOOTH",
"580 461 OFFCURVE",
"637 395 OFFCURVE",
"637 247 CURVE SMOOTH",
"637 24 LINE"
);
}
);
width = 784;
},
{
anchors = (
{
name = bottom;
position = "{473, -78}";
},
{
name = top;
position = "{540, 595}";
}
);
layerId = "DCD2D043-4E01-4B5D-9248-443A06E88532";
paths = (
{
closed = 1;
nodes = (
"13 0 LINE",
"952 0 LINE SMOOTH",
"955 0 OFFCURVE",
"957 2 OFFCURVE",
"957 5 CURVE SMOOTH",
"957 144 LINE SMOOTH",
"957 147 OFFCURVE",
"955 148 OFFCURVE",
"952 148 CURVE SMOOTH",
"823 148 LINE",
"823 239 LINE SMOOTH",
"823 423 OFFCURVE",
"715 512 OFFCURVE",
"562 512 CURVE SMOOTH",
"471 512 OFFCURVE",
"360 465 OFFCURVE",
"295 353 CURVE",
"295 760 LINE",
"104 760 LINE",
"104 148 LINE",
"13 148 LINE"
);
},
{
closed = 1;
nodes = (
"295 148 LINE",
"295 223 LINE",
"346 300 OFFCURVE",
"434 364 OFFCURVE",
"511 364 CURVE SMOOTH",
"585 364 OFFCURVE",
"631 327 OFFCURVE",
"631 247 CURVE SMOOTH",
"631 148 LINE"
);
}
);
width = 947;
}
);
note = uni0637.fina;
},
{
glyphname = "tah-ar.medi";
lastChange = "2021-05-28 09:24:15 +0000";
layers = (
{
anchors = (
{
name = bottom;
position = "{361, -78}";
},
{
name = top;
position = "{533, 590}";
}
);
layerId = "307C4A58-79B8-4138-817C-FBEE21722E1A";
paths = (
{
closed = 1;
nodes = (
"911 0 LINE SMOOTH",
"914 0 OFFCURVE",
"916 2 OFFCURVE",
"916 5 CURVE SMOOTH",
"916 116 LINE SMOOTH",
"916 119 OFFCURVE",
"914 120 OFFCURVE",
"911 120 CURVE SMOOTH",
"781 120 LINE",
"781 240 LINE SMOOTH",
"781 420 OFFCURVE",
"697 505 OFFCURVE",
"533 505 CURVE SMOOTH",
"414 505 OFFCURVE",
"323 443 OFFCURVE",
"262 320 CURVE",
"262 760 LINE",
"113 760 LINE",
"113 120 LINE",
"-5 120 LINE SMOOTH",
"-8 120 OFFCURVE",
"-10 119 OFFCURVE",
"-10 116 CURVE SMOOTH",
"-10 5 LINE SMOOTH",
"-10 2 OFFCURVE",
"-8 0 OFFCURVE",
"-5 0 CURVE SMOOTH"
);
},
{
closed = 1;
nodes = (
"262 120 LINE",
"262 198 LINE",
"327 323 OFFCURVE",
"405 385 OFFCURVE",
"495 385 CURVE SMOOTH",
"588 385 OFFCURVE",
"632 340 OFFCURVE",
"632 243 CURVE SMOOTH",
"632 120 LINE"
);
}
);
userData = {
assembly = "NPUSHB[ ]	/* 33 values pushed */\0129 29 29 6 22 15 6 15 30 18 31 3 30 9 0 11 11 26 70 89 11 16 7 0 29 15 5 0 5 70 89 0 18 \012SVTCA[0]	/* SetFreedomAndProjectionVectorToAxis */\012MIAP[1]	/* MoveIndirectAbsPt */\012CALL[ ]	/* CallFunction */\012SRP1[ ]	/* SetRefPoint1 */\012SVTCA[0]	/* SetFreedomAndProjectionVectorToAxis */\012SHP[1]	/* ShiftPointByLastPoint */\012SHP[1]	/* ShiftPointByLastPoint */\012RTG[ ]	/* RoundToGrid */\012MIAP[1]	/* MoveIndirectAbsPt */\012MIAP[1]	/* MoveIndirectAbsPt */\012CALL[ ]	/* CallFunction */\012SRP1[ ]	/* SetRefPoint1 */\012SRP2[ ]	/* SetRefPoint2 */\012SVTCA[0]	/* SetFreedomAndProjectionVectorToAxis */\012IP[ ]	/* InterpolatePts */\012SRP1[ ]	/* SetRefPoint1 */\012SVTCA[1]	/* SetFreedomAndProjectionVectorToAxis */\012SHP[1]	/* ShiftPointByLastPoint */\012SRP1[ ]	/* SetRefPoint1 */\012SHP[1]	/* ShiftPointByLastPoint */\012SRP2[ ]	/* SetRefPoint2 */\012IP[ ]	/* InterpolatePts */\012IP[ ]	/* InterpolatePts */\012SRP1[ ]	/* SetRefPoint1 */\012SHP[1]	/* ShiftPointByLastPoint */\012SRP1[ ]	/* SetRefPoint1 */\012SHP[1]	/* ShiftPointByLastPoint */\012SRP1[ ]	/* SetRefPoint1 */\012SHP[1]	/* ShiftPointByLastPoint */\012IUP[1]	/* InterpolateUntPts */\012IUP[0]	/* InterpolateUntPts */";
};
width = 906;
},
{
anchors = (
{
name = bottom;
position = "{411, -78}";
},
{
name = top;
position = "{450, 576}";
}
);
layerId = "15908E2C-AB74-4DC1-B0E7-8741EE8F4DA5";
paths = (
{
closed = 1;
nodes = (
"840 0 LINE SMOOTH",
"843 0 OFFCURVE",
"845 2 OFFCURVE",
"845 5 CURVE SMOOTH",
"845 74 LINE SMOOTH",
"845 77 OFFCURVE",
"843 78 OFFCURVE",
"840 78 CURVE SMOOTH",
"708 78 LINE",
"708 241 LINE SMOOTH",
"708 416 OFFCURVE",
"630 495 OFFCURVE",
"479 495 CURVE SMOOTH",
"362 495 OFFCURVE",
"265 419 OFFCURVE",
"202 270 CURVE",
"202 760 LINE",
"117 760 LINE",
"117 78 LINE",
"-5 78 LINE SMOOTH",
"-8 78 OFFCURVE",
"-10 77 OFFCURVE",
"-10 74 CURVE SMOOTH",
"-10 5 LINE SMOOTH",
"-10 2 OFFCURVE",
"-8 0 OFFCURVE",
"-5 0 CURVE SMOOTH"
);
},
{
closed = 1;
nodes = (
"202 78 LINE",
"202 160 LINE",
"272 331 OFFCURVE",
"358 416 OFFCURVE",
"461 416 CURVE SMOOTH",
"569 416 OFFCURVE",
"623 360 OFFCURVE",
"623 237 CURVE SMOOTH",
"623 78 LINE"
);
}
);
userData = {
assembly = "NPUSHB[ ]	/* 33 values pushed */\01223 16 9 29 29 6 16 6 31 19 32 3 31 9 0 12 12 27 70 89 12 16 7 0 30 16 5 0 5 70 89 0 18 \012SVTCA[0]	/* SetFreedomAndProjectionVectorToAxis */\012MIAP[1]	/* MoveIndirectAbsPt */\012CALL[ ]	/* CallFunction */\012SRP1[ ]	/* SetRefPoint1 */\012SVTCA[0]	/* SetFreedomAndProjectionVectorToAxis */\012SHP[1]	/* ShiftPointByLastPoint */\012SHP[1]	/* ShiftPointByLastPoint */\012RTG[ ]	/* RoundToGrid */\012MIAP[1]	/* MoveIndirectAbsPt */\012MIAP[1]	/* MoveIndirectAbsPt */\012CALL[ ]	/* CallFunction */\012SRP1[ ]	/* SetRefPoint1 */\012SRP2[ ]	/* SetRefPoint2 */\012SVTCA[0]	/* SetFreedomAndProjectionVectorToAxis */\012IP[ ]	/* InterpolatePts */\012SRP1[ ]	/* SetRefPoint1 */\012SVTCA[1]	/* SetFreedomAndProjectionVectorToAxis */\012SHP[1]	/* ShiftPointByLastPoint */\012SRP1[ ]	/* SetRefPoint1 */\012SHP[1]	/* ShiftPointByLastPoint */\012SRP2[ ]	/* SetRefPoint2 */\012IP[ ]	/* InterpolatePts */\012IP[ ]	/* InterpolatePts */\012SRP1[ ]	/* SetRefPoint1 */\012SHP[1]	/* ShiftPointByLastPoint */\012SRP1[ ]	/* SetRefPoint1 */\012SHP[1]	/* ShiftPointByLastPoint */\012SRP1[ ]	/* SetRefPoint1 */\012SHP[1]	/* ShiftPointByLastPoint */\012IUP[1]	/* InterpolateUntPts */\012IUP[0]	/* InterpolateUntPts */";
};
width = 835;
},
{
anchors = (
{
name = bottom;
position = "{401, -78}";
},
{
name = top;
position = "{430, 576}";
}
);
layerId = "410295A1-92BC-4707-ABFC-13885E60878B";
paths = (
{
closed = 1;
nodes = (
"789 0 LINE SMOOTH",
"792 0 OFFCURVE",
"794 2 OFFCURVE",
"794 5 CURVE SMOOTH",
"794 20 LINE SMOOTH",
"794 23 OFFCURVE",
"792 24 OFFCURVE",
"789 24 CURVE SMOOTH",
"661 24 LINE",
"661 258 LINE SMOOTH",
"661 411 OFFCURVE",
"588 485 OFFCURVE",
"462 485 CURVE SMOOTH",
"349 485 OFFCURVE",
"225 396 OFFCURVE",
"171 197 CURVE",
"171 760 LINE",
"147 760 LINE",
"147 24 LINE",
"-5 24 LINE SMOOTH",
"-8 24 OFFCURVE",
"-10 23 OFFCURVE",
"-10 20 CURVE SMOOTH",
"-10 5 LINE SMOOTH",
"-10 2 OFFCURVE",
"-8 0 OFFCURVE",
"-5 0 CURVE SMOOTH"
);
},
{
closed = 1;
nodes = (
"171 24 LINE",
"171 131 LINE",
"237 373 OFFCURVE",
"351 461 OFFCURVE",
"464 461 CURVE SMOOTH",
"580 461 OFFCURVE",
"637 395 OFFCURVE",
"637 247 CURVE SMOOTH",
"637 24 LINE"
);
}
);
width = 784;
},
{
anchors = (
{
name = bottom;
position = "{473, -78}";
},
{
name = top;
position = "{540, 595}";
}
);
layerId = "DCD2D043-4E01-4B5D-9248-443A06E88532";
paths = (
{
closed = 1;
nodes = (
"958 0 LINE SMOOTH",
"962 0 OFFCURVE",
"963 2 OFFCURVE",
"963 5 CURVE SMOOTH",
"963 144 LINE SMOOTH",
"963 147 OFFCURVE",
"962 148 OFFCURVE",
"958 148 CURVE SMOOTH",
"830 148 LINE",
"830 239 LINE SMOOTH",
"830 423 OFFCURVE",
"730 512 OFFCURVE",
"569 512 CURVE SMOOTH",
"466 512 OFFCURVE",
"360 455 OFFCURVE",
"302 353 CURVE",
"302 760 LINE",
"110 760 LINE",
"110 148 LINE",
"-5 148 LINE SMOOTH",
"-8 148 OFFCURVE",
"-10 147 OFFCURVE",
"-10 144 CURVE SMOOTH",
"-10 5 LINE SMOOTH",
"-10 2 OFFCURVE",
"-8 0 OFFCURVE",
"-5 0 CURVE SMOOTH"
);
},
{
closed = 1;
nodes = (
"302 148 LINE",
"302 223 LINE",
"358 308 OFFCURVE",
"449 364 OFFCURVE",
"518 364 CURVE SMOOTH",
"597 364 OFFCURVE",
"638 321 OFFCURVE",
"638 247 CURVE SMOOTH",
"638 148 LINE"
);
}
);
width = 953;
}
);
note = uni0637.medi;
},
